<mxfile host="app.diagrams.net" agent="Mozilla/5.0 (Windows NT 10.0; Win64; x64) AppleWebKit/537.36 (KHTML, like Gecko) Chrome/135.0.0.0 Safari/537.36" version="26.2.14">
  <diagram name="Page-1" id="BC8Oxdii62xuA8r6NCRO">
    <mxGraphModel dx="2050" dy="928" grid="1" gridSize="10" guides="1" tooltips="1" connect="1" arrows="1" fold="1" page="1" pageScale="1" pageWidth="827" pageHeight="1169" math="0" shadow="0">
      <root>
        <mxCell id="0" />
        <mxCell id="1" parent="0" />
        <mxCell id="hQiSCkWojdwhhGaJqLUB-5" value="" style="group" parent="1" vertex="1" connectable="0">
          <mxGeometry x="170" y="30" width="360" height="230" as="geometry" />
        </mxCell>
        <mxCell id="0LG0XsHrcLDaFfg-o1A3-2" value="" style="rounded=0;whiteSpace=wrap;html=1;fillColor=none;" parent="hQiSCkWojdwhhGaJqLUB-5" vertex="1">
          <mxGeometry width="360" height="230" as="geometry" />
        </mxCell>
        <mxCell id="0LG0XsHrcLDaFfg-o1A3-1" value="Pre prosser&amp;nbsp;" style="rounded=0;whiteSpace=wrap;html=1;fillColor=#ffe6cc;strokeColor=none;" parent="hQiSCkWojdwhhGaJqLUB-5" vertex="1">
          <mxGeometry width="150" height="40" as="geometry" />
        </mxCell>
        <mxCell id="0LG0XsHrcLDaFfg-o1A3-7" value="" style="group" parent="hQiSCkWojdwhhGaJqLUB-5" vertex="1" connectable="0">
          <mxGeometry x="20" y="60" width="120" height="60" as="geometry" />
        </mxCell>
        <mxCell id="0LG0XsHrcLDaFfg-o1A3-4" value="" style="rounded=0;whiteSpace=wrap;html=1;fillColor=none;dashed=1;" parent="0LG0XsHrcLDaFfg-o1A3-7" vertex="1">
          <mxGeometry width="120" height="60" as="geometry" />
        </mxCell>
        <mxCell id="0LG0XsHrcLDaFfg-o1A3-5" value="INPUT" style="text;html=1;align=center;verticalAlign=middle;whiteSpace=wrap;rounded=0;" parent="0LG0XsHrcLDaFfg-o1A3-7" vertex="1">
          <mxGeometry width="60" height="30" as="geometry" />
        </mxCell>
        <mxCell id="0LG0XsHrcLDaFfg-o1A3-6" value="main.c" style="text;html=1;align=center;verticalAlign=middle;whiteSpace=wrap;rounded=0;" parent="0LG0XsHrcLDaFfg-o1A3-7" vertex="1">
          <mxGeometry x="30" y="30" width="60" height="30" as="geometry" />
        </mxCell>
        <mxCell id="0LG0XsHrcLDaFfg-o1A3-8" value="" style="group" parent="hQiSCkWojdwhhGaJqLUB-5" vertex="1" connectable="0">
          <mxGeometry x="200" y="60" width="120" height="60" as="geometry" />
        </mxCell>
        <mxCell id="0LG0XsHrcLDaFfg-o1A3-9" value="" style="rounded=0;whiteSpace=wrap;html=1;fillColor=none;dashed=1;" parent="0LG0XsHrcLDaFfg-o1A3-8" vertex="1">
          <mxGeometry width="120" height="60" as="geometry" />
        </mxCell>
        <mxCell id="0LG0XsHrcLDaFfg-o1A3-10" value="OUTPUT" style="text;html=1;align=center;verticalAlign=middle;whiteSpace=wrap;rounded=0;" parent="0LG0XsHrcLDaFfg-o1A3-8" vertex="1">
          <mxGeometry width="60" height="30" as="geometry" />
        </mxCell>
        <mxCell id="0LG0XsHrcLDaFfg-o1A3-11" value="main.i" style="text;html=1;align=center;verticalAlign=middle;whiteSpace=wrap;rounded=0;" parent="0LG0XsHrcLDaFfg-o1A3-8" vertex="1">
          <mxGeometry x="30" y="30" width="60" height="30" as="geometry" />
        </mxCell>
        <mxCell id="0LG0XsHrcLDaFfg-o1A3-14" style="edgeStyle=orthogonalEdgeStyle;rounded=0;orthogonalLoop=1;jettySize=auto;html=1;entryX=0;entryY=0.5;entryDx=0;entryDy=0;" parent="hQiSCkWojdwhhGaJqLUB-5" source="0LG0XsHrcLDaFfg-o1A3-4" target="0LG0XsHrcLDaFfg-o1A3-9" edge="1">
          <mxGeometry relative="1" as="geometry" />
        </mxCell>
        <mxCell id="hQiSCkWojdwhhGaJqLUB-1" value="" style="group" parent="hQiSCkWojdwhhGaJqLUB-5" vertex="1" connectable="0">
          <mxGeometry x="100" y="150" width="250" height="60" as="geometry" />
        </mxCell>
        <mxCell id="hQiSCkWojdwhhGaJqLUB-2" value="" style="rounded=0;whiteSpace=wrap;html=1;fillColor=none;dashed=1;" parent="hQiSCkWojdwhhGaJqLUB-1" vertex="1">
          <mxGeometry x="-90" width="340" height="60" as="geometry" />
        </mxCell>
        <mxCell id="hQiSCkWojdwhhGaJqLUB-3" value="COMMAND" style="text;html=1;align=center;verticalAlign=middle;whiteSpace=wrap;rounded=0;" parent="hQiSCkWojdwhhGaJqLUB-1" vertex="1">
          <mxGeometry x="-90" width="80" height="30" as="geometry" />
        </mxCell>
        <mxCell id="hQiSCkWojdwhhGaJqLUB-4" value="arm-none-eabi-gcc -E main.c -o main.i" style="text;html=1;align=center;verticalAlign=middle;whiteSpace=wrap;rounded=0;" parent="hQiSCkWojdwhhGaJqLUB-5" vertex="1">
          <mxGeometry x="10" y="180" width="340" height="30" as="geometry" />
        </mxCell>
        <mxCell id="hQiSCkWojdwhhGaJqLUB-39" value="" style="rounded=0;whiteSpace=wrap;html=1;fillColor=none;" parent="1" vertex="1">
          <mxGeometry x="170" y="1340" width="770" height="430" as="geometry" />
        </mxCell>
        <mxCell id="hQiSCkWojdwhhGaJqLUB-40" value="linker" style="rounded=0;whiteSpace=wrap;html=1;fillColor=#ffe6cc;strokeColor=none;" parent="1" vertex="1">
          <mxGeometry x="170" y="1340" width="150" height="40" as="geometry" />
        </mxCell>
        <mxCell id="hQiSCkWojdwhhGaJqLUB-41" value="" style="group" parent="1" vertex="1" connectable="0">
          <mxGeometry x="190" y="1400" width="120" height="60" as="geometry" />
        </mxCell>
        <mxCell id="hQiSCkWojdwhhGaJqLUB-42" value="" style="rounded=0;whiteSpace=wrap;html=1;fillColor=none;dashed=1;" parent="hQiSCkWojdwhhGaJqLUB-41" vertex="1">
          <mxGeometry width="120" height="60" as="geometry" />
        </mxCell>
        <mxCell id="hQiSCkWojdwhhGaJqLUB-43" value="INPUT" style="text;html=1;align=center;verticalAlign=middle;whiteSpace=wrap;rounded=0;" parent="hQiSCkWojdwhhGaJqLUB-41" vertex="1">
          <mxGeometry width="60" height="30" as="geometry" />
        </mxCell>
        <mxCell id="hQiSCkWojdwhhGaJqLUB-44" value="main.o" style="text;html=1;align=center;verticalAlign=middle;whiteSpace=wrap;rounded=0;" parent="hQiSCkWojdwhhGaJqLUB-41" vertex="1">
          <mxGeometry x="30" y="30" width="60" height="30" as="geometry" />
        </mxCell>
        <mxCell id="hQiSCkWojdwhhGaJqLUB-45" value="" style="group" parent="1" vertex="1" connectable="0">
          <mxGeometry x="370" y="1380" width="120" height="100" as="geometry" />
        </mxCell>
        <mxCell id="hQiSCkWojdwhhGaJqLUB-46" value="" style="rounded=0;whiteSpace=wrap;html=1;fillColor=none;dashed=1;" parent="hQiSCkWojdwhhGaJqLUB-45" vertex="1">
          <mxGeometry width="120" height="100" as="geometry" />
        </mxCell>
        <mxCell id="hQiSCkWojdwhhGaJqLUB-47" value="OUTPUT" style="text;html=1;align=center;verticalAlign=middle;whiteSpace=wrap;rounded=0;" parent="hQiSCkWojdwhhGaJqLUB-45" vertex="1">
          <mxGeometry width="60" height="50" as="geometry" />
        </mxCell>
        <mxCell id="hQiSCkWojdwhhGaJqLUB-48" value="main.elf" style="text;html=1;align=center;verticalAlign=middle;whiteSpace=wrap;rounded=0;" parent="hQiSCkWojdwhhGaJqLUB-45" vertex="1">
          <mxGeometry x="30" y="37.5" width="60" height="25" as="geometry" />
        </mxCell>
        <mxCell id="hQiSCkWojdwhhGaJqLUB-54" value="main.hex" style="text;html=1;align=center;verticalAlign=middle;whiteSpace=wrap;rounded=0;" parent="hQiSCkWojdwhhGaJqLUB-45" vertex="1">
          <mxGeometry x="30" y="62.5" width="60" height="25" as="geometry" />
        </mxCell>
        <mxCell id="hQiSCkWojdwhhGaJqLUB-49" style="edgeStyle=orthogonalEdgeStyle;rounded=0;orthogonalLoop=1;jettySize=auto;html=1;entryX=0;entryY=0.5;entryDx=0;entryDy=0;" parent="1" source="hQiSCkWojdwhhGaJqLUB-42" target="hQiSCkWojdwhhGaJqLUB-46" edge="1">
          <mxGeometry relative="1" as="geometry" />
        </mxCell>
        <mxCell id="hQiSCkWojdwhhGaJqLUB-50" value="" style="group" parent="1" vertex="1" connectable="0">
          <mxGeometry x="270" y="1530" width="250" height="60" as="geometry" />
        </mxCell>
        <mxCell id="hQiSCkWojdwhhGaJqLUB-51" value="" style="rounded=0;whiteSpace=wrap;html=1;fillColor=none;dashed=1;" parent="hQiSCkWojdwhhGaJqLUB-50" vertex="1">
          <mxGeometry x="-90" width="340" height="60" as="geometry" />
        </mxCell>
        <mxCell id="hQiSCkWojdwhhGaJqLUB-52" value="COMMAND" style="text;html=1;align=center;verticalAlign=middle;whiteSpace=wrap;rounded=0;" parent="hQiSCkWojdwhhGaJqLUB-50" vertex="1">
          <mxGeometry x="-90" width="80" height="30" as="geometry" />
        </mxCell>
        <mxCell id="hQiSCkWojdwhhGaJqLUB-53" value="arm-none-eabi-gcc -E main.c -o main.i" style="text;html=1;align=center;verticalAlign=middle;whiteSpace=wrap;rounded=0;" parent="hQiSCkWojdwhhGaJqLUB-50" vertex="1">
          <mxGeometry x="-90" y="15" width="340" height="30" as="geometry" />
        </mxCell>
        <mxCell id="hQiSCkWojdwhhGaJqLUB-7" value="" style="rounded=0;whiteSpace=wrap;html=1;fillColor=none;container=0;" parent="1" vertex="1">
          <mxGeometry x="170" y="290" width="490" height="410" as="geometry" />
        </mxCell>
        <mxCell id="hQiSCkWojdwhhGaJqLUB-8" value="compiler" style="rounded=0;whiteSpace=wrap;html=1;fillColor=#ffe6cc;strokeColor=none;container=0;" parent="1" vertex="1">
          <mxGeometry x="170" y="290" width="150" height="48.88888888888889" as="geometry" />
        </mxCell>
        <mxCell id="hQiSCkWojdwhhGaJqLUB-17" style="edgeStyle=orthogonalEdgeStyle;rounded=0;orthogonalLoop=1;jettySize=auto;html=1;entryX=0;entryY=0.5;entryDx=0;entryDy=0;" parent="1" source="hQiSCkWojdwhhGaJqLUB-10" target="hQiSCkWojdwhhGaJqLUB-14" edge="1">
          <mxGeometry relative="1" as="geometry" />
        </mxCell>
        <mxCell id="hQiSCkWojdwhhGaJqLUB-55" value="Note:" style="text;html=1;align=center;verticalAlign=middle;whiteSpace=wrap;rounded=0;container=0;" parent="1" vertex="1">
          <mxGeometry x="190" y="546.6666666666667" width="60" height="36.66666666666667" as="geometry" />
        </mxCell>
        <mxCell id="hQiSCkWojdwhhGaJqLUB-73" value="-mcpu=cortex-m4&amp;nbsp; controller selection flag" style="text;html=1;align=left;verticalAlign=middle;whiteSpace=wrap;rounded=0;container=0;" parent="1" vertex="1">
          <mxGeometry x="241" y="570" width="130" height="30" as="geometry" />
        </mxCell>
        <mxCell id="hQiSCkWojdwhhGaJqLUB-10" value="" style="rounded=0;whiteSpace=wrap;html=1;fillColor=none;dashed=1;container=0;" parent="1" vertex="1">
          <mxGeometry x="190" y="363.33333333333337" width="120" height="73.33333333333334" as="geometry" />
        </mxCell>
        <mxCell id="hQiSCkWojdwhhGaJqLUB-11" value="INPUT" style="text;html=1;align=center;verticalAlign=middle;whiteSpace=wrap;rounded=0;container=0;" parent="1" vertex="1">
          <mxGeometry x="190" y="363.33333333333337" width="60" height="36.66666666666667" as="geometry" />
        </mxCell>
        <mxCell id="hQiSCkWojdwhhGaJqLUB-12" value="main.i" style="text;html=1;align=center;verticalAlign=middle;whiteSpace=wrap;rounded=0;container=0;" parent="1" vertex="1">
          <mxGeometry x="220" y="400.00000000000006" width="60" height="36.66666666666667" as="geometry" />
        </mxCell>
        <mxCell id="hQiSCkWojdwhhGaJqLUB-14" value="" style="rounded=0;whiteSpace=wrap;html=1;fillColor=none;dashed=1;container=0;" parent="1" vertex="1">
          <mxGeometry x="370" y="363.33333333333337" width="120" height="73.33333333333334" as="geometry" />
        </mxCell>
        <mxCell id="hQiSCkWojdwhhGaJqLUB-15" value="OUTPUT" style="text;html=1;align=center;verticalAlign=middle;whiteSpace=wrap;rounded=0;container=0;" parent="1" vertex="1">
          <mxGeometry x="370" y="363.33333333333337" width="60" height="36.66666666666667" as="geometry" />
        </mxCell>
        <mxCell id="hQiSCkWojdwhhGaJqLUB-16" value="main.s" style="text;html=1;align=center;verticalAlign=middle;whiteSpace=wrap;rounded=0;container=0;" parent="1" vertex="1">
          <mxGeometry x="400" y="400.00000000000006" width="60" height="36.66666666666667" as="geometry" />
        </mxCell>
        <mxCell id="hQiSCkWojdwhhGaJqLUB-19" value="" style="rounded=0;whiteSpace=wrap;html=1;fillColor=none;dashed=1;container=0;" parent="1" vertex="1">
          <mxGeometry x="180" y="461.11" width="440" height="73.33" as="geometry" />
        </mxCell>
        <mxCell id="hQiSCkWojdwhhGaJqLUB-20" value="COMMAND" style="text;html=1;align=center;verticalAlign=middle;whiteSpace=wrap;rounded=0;container=0;" parent="1" vertex="1">
          <mxGeometry x="180" y="461.1111111111111" width="80" height="36.66666666666667" as="geometry" />
        </mxCell>
        <mxCell id="hQiSCkWojdwhhGaJqLUB-21" value="arm-none-eabi-gcc -S -mcpu=cortex-m4 -mthumb main.i -o main.s" style="text;html=1;align=center;verticalAlign=middle;whiteSpace=wrap;rounded=0;container=0;" parent="1" vertex="1">
          <mxGeometry x="180" y="497.78" width="400" height="36.67" as="geometry" />
        </mxCell>
        <mxCell id="hQiSCkWojdwhhGaJqLUB-74" value="&lt;span style=&quot;text-align: center;&quot;&gt;-mthumb&lt;/span&gt;&lt;div&gt;&lt;span style=&quot;text-align: center;&quot;&gt;instruction flag&lt;/span&gt;&lt;/div&gt;" style="text;html=1;align=left;verticalAlign=middle;whiteSpace=wrap;rounded=0;container=0;" parent="1" vertex="1">
          <mxGeometry x="240" y="620" width="130" height="30" as="geometry" />
        </mxCell>
        <mxCell id="hQiSCkWojdwhhGaJqLUB-23" value="" style="rounded=0;whiteSpace=wrap;html=1;fillColor=none;container=0;" parent="1" vertex="1">
          <mxGeometry x="170" y="790" width="360" height="370" as="geometry" />
        </mxCell>
        <mxCell id="hQiSCkWojdwhhGaJqLUB-24" value="Assembler" style="rounded=0;whiteSpace=wrap;html=1;fillColor=#ffe6cc;strokeColor=none;container=0;" parent="1" vertex="1">
          <mxGeometry x="170" y="790" width="150" height="40" as="geometry" />
        </mxCell>
        <mxCell id="hQiSCkWojdwhhGaJqLUB-33" style="edgeStyle=orthogonalEdgeStyle;rounded=0;orthogonalLoop=1;jettySize=auto;html=1;entryX=0;entryY=0.5;entryDx=0;entryDy=0;" parent="1" source="hQiSCkWojdwhhGaJqLUB-26" target="hQiSCkWojdwhhGaJqLUB-30" edge="1">
          <mxGeometry relative="1" as="geometry" />
        </mxCell>
        <mxCell id="hQiSCkWojdwhhGaJqLUB-26" value="" style="rounded=0;whiteSpace=wrap;html=1;fillColor=none;dashed=1;container=0;" parent="1" vertex="1">
          <mxGeometry x="190" y="850" width="120" height="60" as="geometry" />
        </mxCell>
        <mxCell id="hQiSCkWojdwhhGaJqLUB-27" value="INPUT" style="text;html=1;align=center;verticalAlign=middle;whiteSpace=wrap;rounded=0;container=0;" parent="1" vertex="1">
          <mxGeometry x="190" y="850" width="60" height="30" as="geometry" />
        </mxCell>
        <mxCell id="hQiSCkWojdwhhGaJqLUB-28" value="main.s" style="text;html=1;align=center;verticalAlign=middle;whiteSpace=wrap;rounded=0;container=0;" parent="1" vertex="1">
          <mxGeometry x="220" y="880" width="60" height="30" as="geometry" />
        </mxCell>
        <mxCell id="hQiSCkWojdwhhGaJqLUB-30" value="" style="rounded=0;whiteSpace=wrap;html=1;fillColor=none;dashed=1;container=0;" parent="1" vertex="1">
          <mxGeometry x="370" y="850" width="120" height="60" as="geometry" />
        </mxCell>
        <mxCell id="hQiSCkWojdwhhGaJqLUB-31" value="OUTPUT" style="text;html=1;align=center;verticalAlign=middle;whiteSpace=wrap;rounded=0;container=0;" parent="1" vertex="1">
          <mxGeometry x="370" y="850" width="60" height="30" as="geometry" />
        </mxCell>
        <mxCell id="hQiSCkWojdwhhGaJqLUB-32" value="main.o" style="text;html=1;align=center;verticalAlign=middle;whiteSpace=wrap;rounded=0;container=0;" parent="1" vertex="1">
          <mxGeometry x="400" y="880" width="60" height="30" as="geometry" />
        </mxCell>
        <mxCell id="hQiSCkWojdwhhGaJqLUB-35" value="" style="rounded=0;whiteSpace=wrap;html=1;fillColor=none;dashed=1;container=0;" parent="1" vertex="1">
          <mxGeometry x="180" y="940" width="340" height="60" as="geometry" />
        </mxCell>
        <mxCell id="hQiSCkWojdwhhGaJqLUB-36" value="COMMAND" style="text;html=1;align=center;verticalAlign=middle;whiteSpace=wrap;rounded=0;container=0;" parent="1" vertex="1">
          <mxGeometry x="180" y="940" width="80" height="30" as="geometry" />
        </mxCell>
        <mxCell id="hQiSCkWojdwhhGaJqLUB-37" value="arm-none-eabi-as&amp;nbsp; main.s -o main.o" style="text;html=1;align=center;verticalAlign=middle;whiteSpace=wrap;rounded=0;container=0;" parent="1" vertex="1">
          <mxGeometry x="180" y="955" width="340" height="30" as="geometry" />
        </mxCell>
        <mxCell id="hQiSCkWojdwhhGaJqLUB-75" value="Note:" style="text;html=1;align=center;verticalAlign=middle;whiteSpace=wrap;rounded=0;container=0;" parent="1" vertex="1">
          <mxGeometry x="181" y="1009.9966666666667" width="60" height="36.66666666666667" as="geometry" />
        </mxCell>
        <mxCell id="hQiSCkWojdwhhGaJqLUB-76" value="obj file viewer commod" style="text;html=1;align=center;verticalAlign=middle;whiteSpace=wrap;rounded=0;container=0;" parent="1" vertex="1">
          <mxGeometry x="210" y="1040" width="145" height="36.67" as="geometry" />
        </mxCell>
        <mxCell id="hQiSCkWojdwhhGaJqLUB-77" value="arm-none-eabi-objdump -d main.o" style="text;html=1;align=center;verticalAlign=middle;whiteSpace=wrap;rounded=0;container=0;" parent="1" vertex="1">
          <mxGeometry x="220" y="1070" width="235" height="36.67" as="geometry" />
        </mxCell>
        <mxCell id="-DRYTPV2OSwlCu-ppBE0-148" value="" style="shape=image;verticalLabelPosition=bottom;labelBackgroundColor=default;verticalAlign=top;aspect=fixed;imageAspect=0;image=data:image/png,iVBORw0KGgoAAAANSUhEUgAABk0AAAICCAYAAABiLYpjAAAAAXNSR0IArs4c6QAAAARnQU1BAACxjwv8YQUAAAAJcEhZcwAAFxEAABcRAcom8z8AAP+lSURBVHhe7P0H2HbfWZcJr48iFopgGfgoFhKqSscCxDIz0ptKIICUFBBH6U1pIYCQkARQR3oXBRycsdCL0iHgjKOoIRDev9HQAuM3zoD0fMc57t9w5cq1drnL81zP8/7O49jH+z77Xnuta61d7vte573WGo888sgLvXnz5s2bN2/evHnz5s2bN2/evHnz5s2bN2/eHubtx37sx1598J9hjDH3jAcPHvzGC1/4wv9P3m9uhwcPHvz6C1/4wpfI+83t8Mgjj/za137t175k3m9uhwcPHvzqC1/4wpfK+83t8Mgjj/zyj/zIj/yWvN/cDo888sgvPec5z3mZvN/cDg8ePPjF5z3veb8t7ze3w4MHD37h+c9//m/P+83t8ODBg//8ghe84OXyfnM7PPLII//pwYMHvzPvN7fDI4888oJnP/vZvzvvN7fDI4888tPPfe5z/5u839wODx48eP6///f//v+b95vb4ZFHHnmepYkx5t5iadILS5NeWJr0wtKkF5YmvbA06YWlSS8sTXphadILS5NeWJr0wtKkF5YmvbA0McbcayxNemFp0gtLk15YmvTC0qQXlia9sDTphaVJLyxNemFp0gtLk15YmvTC0qQXlibGmHuNpUkvLE16YWnSC0uTXlia9MLSpBeWJr2wNOmFpUkvLE16YWnSC0uTXlia9MLSxBhzr7E06YWlSS8sTXphadILS5NeWJr0wtKkF5YmvbA06YWlSS8sTXphadILS5NeWJoYY+41lia9sDTphaVJLyxNemFp0gtLk15YmvTC0qQXlia9sDTphaVJLyxNemFp0gtLE2PMvcbSpBeWJr2wNOmFpUkvLE16YWnSC0uTXlia9MLSpBeWJr2wNOmFpUkvLE16sUeaPGpji7xssc8YY26NDWnC8+qV884JR9LeBp1j+3+xNOmFpUkvLE16YWnSC0uTXlia9MLSpBeWJr2wNOmFpUkvLE16YWnSiy1p8kZjjJ8bY/DabHuHkP4jin3GGHNrrEgTnm8vWJ5Z75hfTHzZku7bxhgdvwB9+BjjN8YYXzHGqOraBkuTXlia9MLSpBeWJr2wNOmFpUkvLE16YWnSC0uTXlia9MLSpBeWJr3YK02eNcZ47BjjbYst/rrZ0sQY04qd0mRNhuxNd5s8ZozxPWOMJ1mamCNYmvTC0qQXlia9sDTphaVJLyxNemFp0gtLk15YmvTC0qQXlia92CtN6Chk6q0triVNKPvDxhjfOMZ4lfyiMcbM2ClN1kabaJRJZ2lyLXj2fujy7L3IG7elSS8sTXphadILS5NeWJr0wtKkF5YmvbA06YWlSS8sTXphadILS5Ne3KQ0YUQK4uPzxxifOcZ4q5wg8OgxxhPGGJ+wpPvyJV9LE2PMIXZIk28dYzx3IkSU5qvDszCn4dnI84pnG88snl9r7HkWkoaRfMqLNKQl/9dKaSGnr/Zt5QH52YswYtovS5N7iqVJLyxNemFp0gtLk15YmvTC0qQXlia9sDTphaVJLyxNemFp0oubkibaz/a9YZ2UKt9nLK/96NJRx/9JTyzGGHOIHdIEKcszCjnwkWl6K6QBQuXtl7RZmvCs02iV+Gx75mSaLK09ktNX+ZLuyctren5qy6NilD7GfzSPpy/p87P3jVO6s7A06YWlSS8sTXphadILS5NeWJr0wtKkF5YmvbA06YWlSS8sTXphadKLm5AmjAzRr7hjHlVa7XuPsE8x0LFpjDGH2ClN+FKjESd6g4oiQmmj3ODZ9uNpH884jc7IUqJKDxIpMb3KloBR+iqOmL6SJnvyUAyPC8cr3UUXl7c06YWlSS8sTXphadILS5NeWJr0wtKkF5YmvbA06YWlSS8sTXphadKLvdKEjalk8sYUM1sihNfztDGQZQjp6MSj0zJPwUWaar8xxqyyU5rwehQPWaKsiYa9cmTtWRjjAMWShQV5ZLkT01fSZCuP/HdEI23y/pOxNOmFpUkvLE16YWnSC0uTXlia9MLSpBeWJr2wNOmFpUkvLE16YWnSi73SJE/rom3P6JEZM2mS8wRLE2PMSRyQJlEePClJiEqazITCmoSoyHFAJUFEVW6VvtonYh6KN0uenO4iWJr0wtKkF5YmvbA06YWlSS8sTXphadILS5NeWJr0wtKkF5YmvbA06cVeaVKJjIo1acKixI9dRqiwqDLz5pM2TrtVyZG1ESjGGLPKAWkCcUqrKBGyNJFoIB3PMtYniRv7Z7Jh9iyMI0L2Cg9Rpa/2iZxH/huOyp9dWJr0wtKkF5YmvbA06YWlSS8sTXphadILS5NeWJr0wtKkF5YmvbA06cVNSBOO+4LQufiZyxQ1TO2V1yrJ5bF90nIseRtjzCEOSpMoQ+K0WzNpwvMK8ZGnLmTjWZen52I/IiM/C3McR4QHVOmrfSLnUdXvE1eOPxlLk15YmvTC0qQXlia9sDTphaVJLyxNemFp0gtLk15YmvTC0qQXlia9uAlpQkcg++Li7pCn5wLKeEaaAow0TwxpjDFmNwelCfAcYjRIpJIKR0dhaIF4FluPVHEcER5Qpa/2iZwH9Xl6GGWjZy/TlOVjz8LSpBeWJr2wNOmFpUkvLE16YWnSC0uTXlia9MLSpBeWJr2wNOmFpUkvri1NOGY2tVYlTfj/14VRJrnj0hhjDnGCNKnI0gQQDzzD3jilrViTLFUcR4QHVOmrfSLnwd88eyWErvbstTTphaVJLyxNemFp0gtLk15YmvTC0qQXlia9sDTphaVJLyxNemFp0otLSxM66eJUWmvSRIJF0kRpn7WU+6hl21OuMcaUXFGazKQEzzqm7PqakHZNmnz4ks9trWmi2Hj2IoCu+uy1NOmFpUkvLE16YWnSC0uTXlia9MLSpBeWJr2wNOmFpUkvLE16YWnSi0tLE6VnY55+jtH0XKxNQkccaVjjpFoIntfouIvTc2njmD0xGGPM/8sVpYlkA8+nJ4fnm/ZlWaHpuWJa1jjpsBA8sfxg8dxl+8K0NstZWJr0wtKkF5YmvbA06YWlSS8sTXphadILS5NeWJr0wtKkF5YmvbA06cWlpQmw/ojECcdznBaC18a6JW9VTM/F6BP2sf6Jfu3MQsk6/kgcxhhzTWkCPI/2rgVCWi0Er7TPXJ6FOY4jwgOq9NU+kfNgtAsxsN5KfPYq3lzvk7E06YWlSS8sTXphadILS5NeWJr0wtKkF5YmvbA06YWlSS8sTXphadKLLWlySegwpCNuhgSNpvbK0KFYTfNljDFTVqTJpeH5tmctkK1n4U0jIVTJFciC5SwsTXphadILS5NeWJr0wtKkF5YmvbA06YWlSS8sTXphadILS5NeWJr04ialyRZ5PZSMpYkx5jA3KE3uKmsjUsDS5B5jadILS5NeWJr0wtKkF5YmvbA06YWlSS8sTXphadILS5NeWJr0opM0QYbQMcdok7cL+/lVNtN5EV+cyssYYzaxNNmEZ++PL8/etw/749Rjcb2Vs7A06YWlSS8sTXphadILS5NeWJr0wtKkF5YmvbA06YWlSS8sTXphadKLTtIEHj1ZCJ7OPNZKMcaYQ1ia7IJnb7UQ/Gx9lpOxNOmFpUkvLE16YWnSC0uTXlia9MLSpBeWJr2wNOmFpUkvLE16YWnSi27SRGjO/71rBBhjTImlySGu/uy1NOmFpUkvLE16YWnSC0uTXlia9MLSpBeWJr2wNOmFpUkvLE16YWnSi67SxBhjLoKlSS8sTXphadILS5NeWJr0wtKkF5YmvbA06YWlSS8sTXphadILS5NeWJr04kWkiTdv3rx58+bNmzdv3rx58+bNmzdv3rx58+bN28O8eaSJMebe4pEmxhhjjDHGGGOMMS+KR5r0wiNNeuHpuYwx9xpLE2OMMcYYY4wxxpgXxdKkF5YmvbA0McbcayxNjDHGGGOMMcYYY14US5NeWJr0wtLEGHOvsTQxxhhjjDHGGGOMeVEsTXphadILSxNjzL3G0sQYY4wxxhhjjDHmRbE06YWlSS8sTYwx9xpLE2OMMcYYY4wxxpgXxdKkF5YmvbA0McbcayxNjDHGGGOMMcYYY14US5NeWJr0wtLEPGqM8bJ554RXzjuM6c5EmnAtc+2vbfF6P3KfmBclPzdoR9rzJrnm+cv1M7/Juec634dbPHrZ8v1+LqrHpfPdQs+prXJfs3h+rR1D+r3teiStuVvw5bh6LnLOXy7vNFeDc0Cbr92zdw3q85bL8/jItcQ1yXFvNDmOtuJ51KGtciz5vqmey3Gr6ncuOYab4Hcs5b5EfqHgSNqjnJI319vRYy7FWrzE1eEah9uO5Q+m++ZVJm0W+b070nTnD+ysaxe4njlXL5lfuGWIi2tY7Ui7vvwtX9MtsTTphaVJLyxNHm7eYYzBef+I/EIBaUj75fkFYzpTSBO+6H7rcj2vbd+2fPnkPvmNMcZH+kPWYT58abuvCG2nfe94Q+359lc8f1X9zG/ypWOMF4wx3uSE9nnDMcbPjjG+ffmCswXn+dfHGD83xnjTE8qrIIYfWM7xJfPdA1+Wn7OU/c4r5RLjzxTPLzZi/uTUfjH9Wr7wJUubcg5eIb9o7jRcBz81xniX1CnzdmOMXxljfEzDzo/7yoeMMX51jPHn7lAHWQWfrT5jqUt+Fv3wGOP1V54377Zcjzzv1o572zHGT44x/liDtvrCMcaPLZ1w3De/NMb42DHGS40x3mCM8fyiPnH7qjHGb8mZngFtQwx/bYzx0vnFK/IFy3vKH99xTo6kPcrnjzF+eozxJ3bmjfD618t7HNcf5+0m+avL+XpsKpv9/2WM8ffGGL8t7L8N/sotx/JH6Kua3Ef/YozxFsX7FDH/4hjj748xfnt67a5AvR+MMf5ZI0k84w8vcfLc//kxxp+8hXtpjb89xnj2GON1xxhvM8b4P8cYn3hL13NrLE16YWnSC0uTh5sj0uQxY4zvHWM8Mb9gTGcm0uTDli9YbF+9dC6y8X/tJw1pLU1Oh+fG94wxnnRPpclbFfUzv8mlpYlEAkIzixRJE97T3umE8jLc+9+8XDsfcKURLGtQn19b6vOVRceAkAT5oTHGeywdZ2xPW9ovHx+lyZoM2ZvO3E2+ePnxwCum/ZYm+6Ez698t90duxyPcB2lCW/BeyDMY0fGeY4zXWkaM/J3lWcJnLOqYryueV7+8dLh91BjjtcNxtMtPjDF+//L85bn8DcsPFS4pHE5hjzThufxey+t6Nmt74wufb0uTY9KEDlQ613mPQwr81pzgysykCSLgO8YYH3RD55F7918tZTJCI37OoS15vv3lW7rfJE14pvzF5T56/zHGP17epzh3757aiZj5jHhbMV+Cc6UJHd//23JO+dx89Pi9MIrjf17OxYcuYiI/328bS5OdWJr0wtKkF5YmDzdHpMklUaf1Ny5v5sZcjUKaZLgGf3yM8dwxRvXmZGlyWe6TNLkmPCf5EkIH0avmF+8INylNgHNNJ+Yp5WViWbchDBjlwXPpHy7/vlpOsCC5UYkN1SGOkskjU2ajTTTKxNLk/qFRJh9ddHBYmuzH0uQ3QSAgef/upKNSEiEKEKFjK6FC23A9SkZoH53jtz3aJEoT7inql6UJnZa/Kx94JSxNjkkT0vP+SKcv5/Gmp8ibSZObZk2a3DaSJsiDPE3YfRhRMuOuSBPK+V9voJxziNKE5zLf9T/B0uTFsTTphaVJL/ZKEx7Y+mX2Zy6/rq0gHR/a+JcOH758aWSCXuPXmkAe5MWDS/uU7glLWRxfzbc8Y28ZEfJXeaTl100V5+a9lm4PR/Pac86yNKG9Z/nn+h+BY4idfImDKb4oN0uTvedCHE1vHkKuIE1u4t7n+MeHa5tfJM7Ymzbfw7Ee/CI0plN+dELnZ3DOh/9X+VRpYUuaxPpUecLsvabKL0sTjvu8lbzFkTjy+c37maOdX/7P8gHSUh5pGKHzZUvc37QiTThG7ZChTM5xnt+c9MSi85tfF6r/nrYCYvn45VogX9r6ktKE5zudC+x7VhhVEeOnvEqo7K2zoGym61grK7aP7ruqjpwbft3Gc4ZjyIdrda1TR7KDX1Nzn9ChOJMba9IEJD90vNLTTjz3quOU5muW81eliaiOXCO6x3S986vxGHfVHjwrc3vwGr8oVfuuXUNH0kJMzy8Oc4wRYtW1w3vB2rVD2qfuSLsnXr64xnbi/1U75TLztV+BjOX8vnlRbpYm5P+5G+1ErHRkqz5Mz5HjnNUnd5KrbbbKjChvXX/8Ups24fp7nXA86ZT3WlsRw/uFGGIegs4XTSnFaAJGVnAt5zwp84M32uYa0oRy3zq1CVNn5TbJxLoTL7J1KybagimzKiESqQQI5fHDAJ61lQQh7/9xGe2nYyQkuEZvs7OZ+vxokiYSP0ekyexcce3R0RevX50b3hfyM5nrL0oT8mS0jvLJbSs4B+8brve1tIgF8ueZSAzUdSZCjqQFfrV+ahxcBzwD90oT3oeYmgvJxxSFdL5XU3Tp3PAcIs8/G87N6xXlkJ40e9LPpEnOI0Ibvc9yXp++PMPzM1SQD2KB9iTtny7S0jn/F8YY/yGN5vidy3V3iVhyHpz7vzFpk8yaNJm9hvjJMed9MQam/6ti4Jj/IdTvzxTXh9KRN5/Tec/n/zzzaW8+g3Of5mcia3/ouqrarJImKofnN8dQh08LdVA+HPvnxxj/fjmnnKN4TiOcQ845z9hPSvkIyv3vlx/uUD/+z2ffNwvlMFUa9y7l8AOCWA7HM+pH7fjfrkhd4nnvJR7S8p5QtbmI6Yn/DxXxU/a/SdLkcRO5/1BjadILS5Ne7JEmWsuCjemZ+MUi/+cLNx+0IuqEp7Oe1/m/1sDQazzU9FrceJ2OCeWvrSpnxp4ycnqVxwfftTLPyTu22zNSuj0czWvvOavqFNsh1klpj45KIUbliyTh/8STBceRc3FKevOQckFp8uTJvc8XtpyejkZei/ffM4sPrBXx+Hxt5064o2m36sEzWPnN8pKEiPnEsqMMycIC1qQJ6fe0nfIlL6aY4f+zdUVivEo7izceozi+byMOOqTzKBbtj2XGNs3TR/HlQHHxnOT/lEln6hpqy5wfz8BvWa5pCReuc63PQTlqA5WT49fUTrn+1ZdL4tCoBOVLR/vXXVCaIERyO8bY+dzxg0kwxTojIYhNbbu2PsmsLB0T20frjqjOuSOLtEgP3jt1LaxNtwU6BtHBM0kCpTrmVGlCfly3lMOIg3heNcqFe2Mtb6F4WT9FdYztEoUPX6rpIKZsrtGqPUij0TC5ffniHzmSVunpWCMN17bu889OMdBRwevVtUNnQbx2jqSN5cd46VyN8eZ24hzSTupAWCuzkiGCZwPPGJ7d1egISZOnhHJjnO+arhUEjNaw+P6lPUlLfWL+ypfpl5QvHZaxQ4Q0Wtci5sW5Wes4Ud6fEvKO9y4x895Gu6seavPcBntj+KIwfZ42ppf6o6F9JEOqtnmlkNc1pAkd6Ex5NWuTalQHx6ju+dqM8WYqGVIRRULMb22kSYVEC9fwWlzXhnozhSNShPvxu8P5PyJNJDs+dTlX+bqiY5LrFzEVr186VGPeMR/iIh9GUOjck09uX47R2itco7yv8f+/WXQq0hHMNUVeypcYGA2ZRciRtBDj4D07xvEyIR2QN/Wc5b1HmmhqLkQJncESKHmKLqWjc7pq0yxalJ4OedJzX8/Sz6QJefzCGOPj0jlgP3KDdol5/vNihIjWReH12J45LTJX01xp4znGj264VmIs8TwciQU58H+PMT59+RFQXvMoT68VmYmRtddUHj/iUczs+79WYuD+ijEgSzR1G58rua7UfpIYQnnTRry30p6MfqH/i+cpP4LK9x0CYfYaVNKEcv7zIuGoQz5viADqQN66P+I5zWuNIGC0XkysIwIijtwhHeXSnjx3KZeprKnfVjkIC85FbsfvLEamxHj4/KnnIGn5HJw/05CeNiI9P24ib65D6o9MEcRA3ORBW/K+gcxae696KLE06YWlSS+2pAkPNDpdcke0OuUrUaAHJ78moWNcx8XX6EjXft6otJ8ve3xhAV6n3KqDfcasDI4nn1gP1Y0t/kp4tuD5KXnHffyrERa53dY4mleVHqpzFuuEOMl1Ih+NBFHaI9JEZXKOhfKO7bt1LnKZR9Obh5gLShOuLTqNJRC4lukEiVJBecV93FcaNZAFSybGEn/Zr87x2Dm/lTZLhFk9+MKi/dybGiVA3HSAsi+OXpGEID1SILdHbMcj0mRP2yl9jIEOF+KLz7vIWrx8kYxiAYiDL4HEoV8NxziioNiSJrmtVWbMW+3BL5WVh9JxDte+/B+RJlVaiYlYzqz+Egm5LOVBWfxqTun5lTLpKymzhyxNgNg0ZVb+RXcFIoXzkOssabDWtrGsKAy0n/rGX2yrrCw3JBS4FuhopS2y0IzQdnS2xCm5JDGqKbrWpIny4r7M03MRJ+lV1qsvxyheRAr31SzvSKwjne06N5RFRzVtpfwlA2btwZdaBADHxF9Z076UEQXLVtosg5Q+ChXaSGIpLoqODCCPuE/1ifLiSFrKZ5qIHK+Oj2lzO3H+YjvNyqQjJscXUQyzNBIQOpc678qb2F9jiV155empJFKiYIn5sp5Krk+VF+eGtNQzy5pIzBu5oXNLB6X205mDvCMP8qVzi/uCTm6dB2LI022RVoIkx1Clr17bEiTVvnORNKHunxPaRKNCsrgg3n+7nN+48LqEyGzaLdgrPWIZcUSKYuUc8avntWeNoEyeTdXolJskdtbG/58iTThXSAJdS4wA0H7ahnud9uWa/Prl/THKh5gP4kT5EMt/XEYCMSomXu/8AptrlBjZT2cjbcv1SPk6nzEPFn6mTNLSCc31QXyK5UhaxfEjS1v97hAH/QiKQ88q8qaznrzpWK7y3pImpP8naUouRqnwvp6n6JIEoU0RIdwzvE4cz1viiMfM0hNrTn9EmtBGTKHFvUPZqp/kSJU2T7elRd1zebP0UEmTGAvvC4pF+efpsiQxaBOmStI5pk0YpZClR2QmRjiHCB+eG1m6rEmTKgblT73YRzn/cmkP7QOJlCxYYt70bfBM4jMQbcd+RvdFGUfs/8vy2TLmH1mTJpSD2Pg9oQ5Ky+dT1WFteq7qdeKScIkjMSRNVD/uXY2eIZ/Z9Fyz1yRS+M6jMpSWa4rPhHruKG1eg0TpqbOECvHTLsQf8waua12n8f8mYGnSC0uTXmxJEz6Y8SEsTz1SdXyDOtbz/rXXKIM3Dh6UWY4c7QTfUwYPbqgkQkybZc0l8uZ10mWhscbRvI6cs1mdIJd7VJpU7SIob097kQcdb1qQWxxNbx5iLihNuG5jPlxjSIV4XBQCEZURhUDF7HjKYhoCrm0dv5a2kh2qR5YpsR55aq9K1khC5HxiegmOI9Jktp+2Uye+6r4WQ2YtbVVmJRcgxqFO4S1pksukraPMyH9HkBRcM3l/ZBZrle9sqixN4xXrn0UDVPVfS68YqjL3cAlpojrnUSW5zhWxrNiJJzmSp8uivllQgIRClikzotRQeuWRy4zps9jgi/bXLtcHv+7Xl8Scf5QktGmUKHxuqPLOKI88YgQkMBS7ZECVNqaPMgBoX35dSftq9MZaWn6NybUZr5NZetoqyxQ667n+8kiR6trZm7YSHRDrplEisZ0quaEy86gSpvahzFmngORHtZ4JSEBU5WYZQtxxWiFRyRvlm0eXiJy3WBMTIuYdO7OIDznC9ZzbSeXFtVuOxjDbD7O2kbSgbRTrNaVJ1Sb86pY2ieJCciSLD6XnWoujaPa+Holps+xg2imNcuHzPdPK8MyYPecVbzV6ogOSJnwOQ7rRKR83RpfqmpHs+KrU0Ud7IUc4V7m9NJIjrl8S86lGZ5A+tle1DyqZorRRpAAdlf80CZwjaWGWvpIpGmUSRQrEvLekicQL7aTO7DjyJAsM9lcLxUt6xGOOpD8iTSRHclrqjSDjvU6Chn15eiqQpKDesQP6qDSRHEFW5FhYoJ3PDBqpApIYWaaQ/h8tnyvps6jOmaQG9xE/buDeIR+NGoxiRKxJk7UYeFYTA/uYgqpqP2Lh3JJGxLzj/pl8keTI+UTWpAmjPOJxkjDUQTFXUiSCAOK85mmqquMkTSiXZ1JkJkaAuP67MJ2YQKQiD2kv5VeJFCAPRjDT76NnwFp64mGqsChTzE4sTXphadKLLWkyo+qAh7WO9dlrPDBnneuzY2aspY8d9SozixFRdcrvzbv6W6zVdcal8qrO2Vqdcvq1tBWKL0sdOHIuMkfTm4ecC0qT3DHOtZilCaMRqnyqtBmlybKjYittJVSO1ENU0qPal9NLFlRpK1EBe9pOAqDKd8Za2jiiQ68RRyUriCOLiC1pkvdDzF95VhLg0tJEaePIl4pZuVWe2jcTIzNRs4dLSBMJjs/amT5SSRPqW4kRUQkVCYUoLtao8lAslXiRBOH9OW98Mc33WZYmqhPnnHUDJFCIdSZkMlG85DpmoSIZUKUllixGIlF6cA2vpa3QiB2EUL5fyCu+JsHByIW1usOetFt1y0IltlM+5zH9WpkVEgxZDOTXq4XgKxlSUaVbyxeQQHT6/L7i3Eh85NfELO+1Y6tj6Nw+EsOaNJlx09KkmjJL9ZQ0oX5r4mMmVGDr2EhMmyWAXqdzOE6jxsiBDyrqIEGQO/y7IGmieuQtjvpQXfIC7rSHpEkcIQLVMdU+odEfSDR1JDOSg+sg501HZSyXZ201skXEdUp4n63ESJVWr7GP9zfWechxkBcx8hpxrImRvWuaZHkB3MvVFF2SIH+9GGlVCZIj6fdKkygjkOKnXu+XkCYzMSKiUNE1KImRp/gC1lvhBwtb0mR2H9FBnttkTZpUkkUxSJrM2JIm5J1FWTUNl4RFHrESWZMmeeQKUA512CtNGJER0wvq9T8nASNpQrl58fQ1aTIjSxOVyb2bpxCbocXdETI5fqbp43mytiaSKbA06YWlSS/2ShMe2Lyp84EE06w5y29ampCWkQTx1zr8zf4qfaTqqK/KhCqfap+o8iYt7cS8/HFjfyx3rU5H84rsOWdrddojTdZih0r45LbPf29xNL15yLlBaaK/t+7XqgzI+a2xlbaKudoHa3lVwqHaJ3hu0Cl4VJrsbbtrSxPFQfoqDvbnOCo5MtsPWcrkv4E4sqCoOCJNuM61vgftyeLFxBkFio7bW/+qnMhtS5OqztwHa9JIxLKyNKG+1VRZlSCp9s1Q/lwPOf/ZFF0SG7xf0/mk92Le97kG+XIaj8nSBBQjbRQFySWkCXnwZVjl7ZEmldiAeCznfy1tRnlzLXBeq2ubtlJefIbSmiG6dnhmVdfOnrSxbpreKpIlSf47Mytz676YjaYQlUwQlQwBvmTzy286n7ju6MwgrjiqZC1f2gYpwfXKuaFe8dzoOs4yQ8zyVr5ZdlTHnBLDHmmS24b0apsj0oT4mIIof96u1u2BU6QJ7VQt5L6Wl469hDSJ0G5PXZ4/tFcuW4Ig7xeURWcq6S6xbd1XmVOm58qygzpcS5oob57bXAuz6z1KkyoOqKQJabMEyWk5/xIjszjYT+dxlCaSKDlv7oktaUJ5eWouwfF5iq41CaIpt6oRK3vSH5UmxPyoot4zuIeQinSQ00HN1HicVzr9z5UmGh2SY6kESbVP7JUmeXouYDQI7clnH0ZX6tl/KWlCW/BMju3H9ZhHlKxJE70WRYcERy4vck1pIknB+x/3ab7neC+i7EtJE9qRzxuIDtqOUWy0o0auKB7uvSxBKiRGFD9rMcX42c81Y2lyEEuTXlia9GJLmvAw4wOOOrL4gM6HMn7tl0ctQNWxvvUaZcw6wfMxvE469mmLx+X0kUpsVGVClU+1T1R50z68IcQvOJVYWKvT0bzgyDlbq9MeabIWe8yDOhAXG2unxHy2zkXmaHrzkHML0mTrfq063SDnt8ZW2irmah+s5VUJh2qfOFea7G27Kt8Za2ln0oQ4vqaIoYqjkiOz/ZAliWKQCCAG5u+dxRw5Ik0E7wd0XKmzlbpKaug4zuGe+q+VA7ctTURV52qkSCSWdVPSZG3UiLY8Rdea2FDZcSqsSpqoXrRPzH8t78hdkiZb13auJ51GdBhyP+vaqUaKKC2delXaWLdLSBNRlZmnoopcUppQJzprOPfcK6z3x7VAGVw3e0eakI/WGGFKuXxedG5mgmCWt/I9Ik2OxLAmTdbaRmvdHJEmKkvPMLYscSI882ai45LSBM5d02QNyQfqmtdBWZMmKiu216kbo122JE/mrkgT3mP/QRLu2jSF2FoccAlpshUHU08Rx7nSRFNzrV0X1XRbeyTI0fTXkiakZ20c7lmOYaQtn7d5znBNXmKkSQdpAso7Trt1rjShjqwDxbnhOmY0J+3H1HDcQ0dGmhBznKKLjb85BzGPzE1IE+7Dr1u557RmyqnShHK49hh5RDvSpnxXoR25B/NIk6PShHt9Lf58LZsNLE16YWnSiy1pQoc5++NC3pA71EXVsb71Gg/MWSf47JgZa+krsVGVCVU+1T5xJO8jnJLXkXO2Vqecfi3tDOLni2L8MEqeT0xpjtTxaHrzkHML0mSWzxZHjt9KW8Vc7YO1vCrhUO0T50qTKoaKKt8Za2ln0oQ4KgmQmcmR2X7I0oQy+YAfv8TznHxScWzmFGkiSPOEJU6l23NcZCt9F2kicp0r8SFuQ5poai5GDeQvgshE3VuxY3JNbKgOMd5KmgB148t5ZC3vyF2SJnvTZzj+8Uv5cURKRU6LJInlX1KaiKrMXAZcUppokfb3TnnldLCWL7HP5MYeZnmv5ZuPWUs7Y02aaPF4FjaPMXWenutUaaLpu2aviygStAg9ZdMZOFuHR7Hl0Slb0uS2uSvSpMo7QyflWtpLSJNZ+ojSniNNJCqY1gnZF99j6cQltlMlyNH015ImLJDO/fj+6Tq45PRcXaRJnDLrUtIEAcHzjs+K8RyeMj0XxCm6eN8h7drUXHAT0oRzmKfnqjhVmmhRdr7LxDafTc91VJrsTW92YmnSC0uTXqxJEx5ks87p3KEu1jrWZ6+tlTM7ZsZa+jxVFH9Th2pdDIkH8hOXyvsoR/Jaa8vqnK3VKb+W/94DZfErAOJiyx0yYq2O+mVG5Gh68xBzg9IE6BDn2qzWGdnD2vH52l5Ly2sSE+JIPUQlHKp9s/T5b6ikCRAzncJVfTJVvjPW0lavKQ46+reYyZHZfsjShL95TjJ6Y+05WaG2zOWQz5rMiGSxkf/eYi392mtbXEOaiNkC8ZFKmsDasbzG+ThlTRPO2dp6KXqda6eabmsmNpjWi2tRMc2kScVW3mJNmuTX1qQJEC/nvRrNobpo3Y+1tHzxU2eDWEu/l9mi7xU5bf47p411OypNxGyBeCFZcIo0ia9xPUgyZEFzVJrAVtxrzPLmnpmJkOoYZAIxMM3Unhhm0mSt3I7SRPu416sptrZGkqhOeTRIRvnEmCqREqEtK2lyVxaC7yJNqteywFhjLW1+Lf+9ljbuW5MdYk2MrL0GdLYyNRfXUpVGr8epu9YkSPVatW+Wfq80AUQIdcvrd0B8r1sTLJeQJqBYqjVNEBA8dy69pslMmlx6pAmfw7Woep4+61RpoteRDnwG2ZqaC64pTQChwXv0njVETpEmUcxksZGlCRAP7yFVPFyTtEHMg6m+SP+nivTmRCxNemFp0otTpQkd56S/y9JklpbXSZfjmaWHI3kzLQSb3ii2OJLXWltW50x5V+mzOJrFMUOxPGuRG3x4Y6vqrbzz9aRzQT7xuKPpzUPMDUuTWVrK4Jfi3K+z6blAx2vkg1CMXNs6fq2sqj6z9FU9RCUVtC/GIqKsIf3a8TmO2f6q7WZpK5S2Egg5XqWvhMcsjirtbD9UC8HznEQWrT0nK2blSDiozsTOl5dKNmSxoTzp5M/150sO9Y95IG6q9IoBsRen/+KX7oyoyNdO5lxpspZ2TXyIeHwUBjMJovS0eZQas/SZPYKiWiR+6zgdo/KvKU2qdFnabEmT2et8aaZTgPbVKA+ljdOPxbTEE6dTmokI0tMRwrVNes5ldTxk8TErq0q7Vj7rgFA3CYhZ2ph+rcyZfJDQqPIFyYRqtIpGliBcuKdm0kSjWfauabL2OnWlk0/npmJ2LM+bmbyojqn2QYwhypFTpIkESVzThHLpaKTcS3UAHZUms/TUcc+UWhIi1CuPugGmPCL/LFZoK6QIz4hKysykCu1Ix+3RabNuituUJlqLJKZHTHDdRclU5QGcc56pXO/ETj5MqcP5y2k1goX3eYmQI2mBOJjCJ6cnDt6nchzEjHjIeTPlD3lXQiSm4Zxo6qFMXiReooPO63wMkobnRTWd1570EhJZsFTSRPu21iPhmplJEy3SvpVHPKaSJtU+IJ//fXlWRAlyLWlCx/w/Wq7rStJcWpqwgDvn9siaJqApunif+MHlGRmPr7i2NJnlxXF8ZuOeU7mXliZ/eTk/WtMEKOP/TPtA+dMOfD9V/krPVMYxpir+NYjzg5bPyb97R/p7jaVJLyxNerEmTUAd56xDwZsvnd988OLBXHVar3Wsz15T53rVcT87ZsZa+iw2VC7pqRN144sLnVdRFohT845tp31VHjOO5nXknKlObNSbX7vw4ZX07IvyYa3+Myhb7Zk3ylDe+VwQA7HMzsXR9OYh5oalifZxHT453IPal/PIxOPphNC1zQdt9sWRIzktne48w6q0cKQeopIT2kcZ3HN8WSFOvhBmmVIdT3vQYc2XWzrc4/oYse34EqW2y3lU+c7YipcvMrEDnzi0GPqeOCppMdsPeaQJeeuc5Y3zuiYXJEPUlqoX7asOZpWjURDPXOrEtampqqKY2Kp/liOKQeeNa5AvIMTAvihN1C7sz1OKZSppAqoHbUNZa+2jtMyrvFbnipk0oX20/gedj9SNOLTgfF5zZK80yXKjohIeW2IjH5P/XmMrb6E6cl6ZWoypJ7gW+UWq2lrHRxlQ1ZP21YLtal/yYrFP9mkkRpWWOHhe6lzEtDn9U5ZOEa5tnc8oEjTyg/nMSadrh9jpIIgd+HvTqnzSEi/Sbla3NWkCsUw6SihT03Pl+CISLnkxdyFxoHP5uHAuOcfkrU5xSZTYlnRAxcXO90oT2kYLsX/KUifyU3vNjoNZ3sqzkhfVMXtiyG2mabhoC64/PVO0P+aT20adfBqpwbOS+3/tXtsL56ySIFBJE+oueUFdEH3kwSLB7KuERiQez3OTetDG3I9a6Hu2Nohi5Zqjw0vPD9qL5w/tlcvn+Z/r0AlJE84p7R2ngdL2Acu5oa6VvKBNT5EmtOMPjzHeazkHtCPPBToeo8BR/pybT106N3nmcx7ZF/PmucECzpyLT1uudcQVApZ9nFuJENL+yHItxLRc4zkt0HGpa4T0W3HEvPlcm/OeSRMJkSwpIhIrmkJLEoQ2ZUovpiKkTemk5vmR5chW+n8e0mu6Lq4R7lOeq+yvpIlGkHAe+QzJ53vky/csbRRHq2h6rr+xLIZNW/LLfM4f7ZalSTyGvPlsxvtHjkWyIcfC6DSuve9aYokCAy4hTWgjng26d7hu9T5Fm0ahco40IQZNz/XpY4zXW9rvb4UFzI9KE0C40I7EuzU1F5wrTUDTY9Hvw+dSnVOQ1KANP2OM8fpLPTmv7ItlnCJNQOU/NeTPWjvcv7RjFCSacouy+WxKvFzf37lcZ++Z7tmYPuaPRGNflikzJF84LzwvZ8+FhwJLk15YmvRiS5rwMFMHujbWqGDuWd7A7rI0Acqu1tzI64HApfKO63ns5UheR86Z6kR9yYvXdUyUGjFtVf8ZpFV76hfUfLCqpMysjtW5gKPpzUPKDUsT7T91jQqYHU/nVT7+SNqj9YBKTsR93OOx7NzJXx0PdChKnMTpuGb1yW03y7dCaWkTnnPqzK/iFUfi4EtojmO2H7I0QXYQE/HF52SUOmud+5SFXFCcdHTyxSmXQ534IhHrP2uDvfUXfOFVR7XS8iWH6yOOYpEI4fWtKbtm0oT7VWVt5UM9+KJX1XmtTWEmTYB8WRSacxzbhzrnWPZIE/Jbm5pLKCbu1bxGyUxs5GPovL2WNKGDn3MugcJGh2E8dkuaAO3xtKJ9+VKbjzmSNqaPMZL+AwvBQidIvLeq+sS0tNWetFX5eV2QLWkyK5MO75kwAY5DDHBdVyMCJBOIh+clv+bXfZ3zJi8tdq7ykThMsXF0ei4gPzpAYn50gv6llWNglrfqulea6JgjMdCh9b3L9Uc6TW9VtQ0L4TKdSJ6eC1h/gLbmWqimyDrKUWkCqjvXXax7XpdlBsfTMR2vGW10eNKBO3u20VmtdozH0fmf20OjX3guVVN6dUDSJLdD3OiYp5OuEiBAe54iTd53uXclEtT+VVtRBp2m6oDWOefX4Pm6Ycqq7w7niHTvs3yG4X6PIqRKS1xVWqATlE7qKo7cwUze6qDPeVPnSpqQ/9rUXIJr618v75eUQ5tqSi3e2ySl2PhRhkbAiDgF1570xC25pqm3KmkC1AERIsGour9faiPSaSF4paPT/8+ENVVyhzL1Rj7QpuSpqbcqaQKUgbSK9eO4vI4KXEKaVPcRzzCeb1zXsU3PlSbUTQvBqywEAO13yvRcIAnCKLA8gqXiEtKEzm+ekTzPOTd56ivqgCxl9FE8h4zmim10qjQhfy0Er/yJ879d6han51J6fmQg6ah4+L6Yz9ks/f+xSNTcPjOYKox7nfvvoZ/qy9KkF5YmvdiSJoKHGh059xnelOLD+5LQduR/Cfbmdeo545hLtAMdM7wJzSRLJZrE0XNxNL15iNghTa7J3vt1xpFr+0jac6iExaWeG5Fz226NI/FeMw6ek3yJr+QK8CU7io81jsRI2r3vD0fqT5vuTXvTqM5VO5/DTd13nYnSJHaaXaJdjrQvX/b2pgViJP+ta4J89147R9MeiXfGkTKB6bOQLbMpvDK0UxarEeqgNQAuxd5zc00uEcM12uYmOPfaVL1PaT+OW7ueJSSqkT/mRdm6dyMsrp47PivorIy/7F/jSFpxjThOJUoQCQzio02rco+mPxXqvZUn7cP53+qgP5c9sdxFaD/O3SXaTxIkC5cuIGW55y5R14zacY94F0wTd+Saumb8Dw2WJr2wNOnFXmlizFG2RqasSRNjLsYtS5P7SCVNzGmsjUiBI9LEmNuikiamL3RkM0XXbBSLMZ3hl8T8qjqPlDHm0lQSZI2j6c3Dgab82jM1lzG3gqVJLyxNemFpYq4FMkRDHpkGQfDrM02rlad3M+biWJpcHEuTy8FzUmuSIJrVnjwnNT0W0yi5I9p0xtLk7sFUW0zLWE3RZUxXeG9krQveF90pba7NUQlyNL25vzDCgqngWE+Gqb5Yn+OUkXfG3AiWJr2wNOmFpYm5JsxRWi0ETwdhtR6LMRfH0uTiWJpcFq0HUj0nZ2uIGNMJS5O7B+vVsLZAXHzemO6wxgTrVlQLyhtzaY5KkKPpzf2Fzud/uYwmZ90P3nM9stO0xdKkF5YmvbA0MTcBvwxjfuIjc+MbcxEsTcwdwc9JY4wxxhhjjDE3hqVJLyxNemFpYoy511iaGGOMMcYYY4wxxrwolia9sDTpxYtIE2/evHnz5s2bN2/evHnz5s2bN2/evHnz5s2bt4d580gTY8y9xSNNjDF3hQcPHvzqC1/4wpfK+83t8Mgjj/zyj/zIj3hu+iY88sgjv/Sc5zznZfJ+czs8ePDgF5/3vOf9trzf3A4PHjz4hec///m/Pe83t8ODBw/+8wte8IKXy/vN7fDII4/8pwcPHvzOvN/cDo888sgLnv3sZ//uvN/cDh5p0guPNOmFp+cyxtxrLE2MMXcFS5NeWJr0wtKkF5YmvbA06YWlSS8sTXphadILS5NeWJr0wtLEGHOvsTQxxtwVLE16YWnSC0uTXlia9MLSpBeWJr2wNOmFpUkvLE16YWnSC0sTY8y9xtLEGHNXsDTphaVJLyxNemFp0gtLk15YmvTC0qQXlia9sDTphaVJLyxNjDH3GksTY8xdwdKkF5YmvbA06YWlSS8sTXphadILS5NeWJr0wtKkF5YmvbA0McbcayxNjDF3BUuTXlia9MLSpBeWJr2wNOmFpUkvLE16YWnSC0uTXlia9MLSxBhzr7E0McbcFSxNemFp0gtLk15YmvTC0qQXlia9sDTphaVJLyxNemFp0ouu0uSV8w5jjDmFiTThGfOotC+zJ43pw8um85XfR/Lr5ubJ5wR8XgKWJr2wNOmFpUkvLE16YWnSC0uTXlia9MLSpBeWJr2wNOlFR2nyEWMMYvny/IIxxhxlIk2+bHnOfOQYI78GbzTGeMEY47ljDL9h9YZz9YPL+fy5McYbjzE+fIzxG2OMrwjnV/vecXLOzXWh/X99OScvUex/J58XS5NuWJr0wtKkF5YmvbA06YWlSS8sTXphadILS5NeWJr0oqM0ecwY43vHGE/MLxhjzFEm0kRS5NvGGNUXGnWwz6SK6QGjFL51OVdPGmM8etn/VmOM71n2XVOavMoY48eW6+jl84vmReCcfHc6J2BpErA06YWlSS8sTXphadILS5NeWJr0wtKkF5YmvbA06YWlSS86ShNjjLkYE2kCGm1CJ3qEjvAf9yiTO0GUFltfTC1NemJpErA06YWlSS8sTXphadILS5NeWJr0wtKkF5YmvbA06YWlSS+2pAnzj79t+vXuZ44xPiHsU7onjDE+f4zxdsuvfytI92FLOvIhv0wuc7Z/FsseiE/xkge/OjfG3ENWpMlstMnaKJM9zw6eRzyrqvUbeG6xxWeknm38y36eoYy0y2VHSEP5W89c4LXHh5iZvipzjZj3lCtiWp7pr5UTFND2j13O4bPGGO++xERe+f0CtqTJ0Rhm5VdfkJX35+1oi8zRY6v0ub60z9uE9nnLMcbTinqTTnm9fVG3nA/1r/Kp0oo1aRLrUuV577A06YWlSS8sTXphadILS5NeWJr0wtKkF5YmvbA06YWlSS+2pMk7LL/E/qSlY5H/x43X32OZRz7uJ23uxNNaJWxMv6VjclqVSfrInlj2QDqV/aMbMRtj7jgr0gTyaJO1USY8O+ggr54dlXTJI1h4vjCVVM6bfEnPcXq2xbU4IsSn9TuIQXFoLY/MtWKmA10x83qOmdf3lJvTxveGZ07aQHDuiEF5x3ZQm0bxtSZNTolhVv6bpHSztvj2HaNTOPZnDxy7Nz3pEBVPDtObxXogMHhvV15H8onlRhGitB+V2nQmTWJdvi+ck89Ka6LcKyxNemFp0gtLk15YmvTC0qQXlia9sDTphaVJLyxNemFp0ou90oTtGUEq0Jmi/XRk8Ctj4HU6xdgXf4FNRx+dbllMSKRE4bElTXIslEN5Oe8KxcEWf+2qOHKZxpg7zoY0yaNNeAbkznaIMiX+2l0d8V8+6ZyPzASEOvh5Bn3h0uk/e5ZVeasOMQbYinm2SHpkFrOkSRXzVrmxbZU2yhTykZCoBEdkNj2X4tsjTao8Ygy5Mz+yNT2XXqctXjvsr85BZuvY6hpdSx8XYJfA4PwhhlRvRstoP++rXJuUQXt8y3KdIYWyCCE94kT5vOEiPIjlVVPaPdKkaldi+NId5+ROY2nSC0uTXlia9MLSpBeWJr2wNOmFpUkvLE16YWnSC0uTXuyVJnTGRSRH6BDJ09NUAoL0eaoUkPCI+W9Jk7VY6GhZo5I0QB5MY8LUYbPOSmPMHWRDmoBGm7BA9WyUyZZUiCM9ttLm/CVN1jrQBbFWo0o0hVZkK45zYpaUqGKeyQnyYuomnrP6EjlLW4mMilm6I9Jktr/quM9spVHeuZNfEqIamSLWjs3tuJU+lsVrEhhRpMS0nO8oR0ByI0qPWT4xveI5Ik2qfUB7P2elve88lia9sDTphaVJLyxNemFp0gtLk15YmvTC0qQXlia9sDTpxV5pkgXGmqiYHVNxijTJ+4Hjq1giijmPgjHG3GN2SBONduD5wjYTB5WsgCwc8t9iJiCqqaRmKO84OqDi2jFXUiKmn5WbQQLlvCGWq5EKFZeQJoohlxMFQn5NrEmTLCsyM8kBW8dmcvqcXy5LAqM6f7M6V9Kj2pfTS6jM0laChBEl3JM5hhjfq6XX7gWWJr2wNOmFpUkvLE16YWnSC0uTXlia9MLSpBeWJr2wNOnFTUsTFoJl4VwW2v3qMPf5TUqTrXTGmHvEDmkC6lTOne8wEwciS4+jAiIfvwbPLq1pwsYC5HRGk3dkVpbIZR6NuZISa+krlJZ68F7AWiJxY3/VeR85V5ooBvZXMbB/LYY90mR2/ExcwNaxma30uaz8t1jLp5Ie1T6hKbqOShPFsHVOLE3M1bE06YWlSS8sTXphadILS5NeWJr0wtKkF5YmvbA06cVNSRPSf0HoHGMqLKbrYnqRmx5pspXOGHOP2ClNJBHyuiCwJQLOFRD5+D2wjtQ3BHmSR3bMyhK5zKMxV1JiLX2F0hI7Eh2ZnjfeK9a+cF5KmhDD1xTlb8VgafLi+8S50oT1U9bOSW7ve4GlSS8sTXphadILS5NeWJr0wtKkF5YmvbA06YWlSS8sTXpxU9KEjkj2sYB85Dam59pKZ4y5R9xTaSLI8wnh1/fKd1aWyGUejbmSEmvpK46knXEpaVJJgj1Ymrz4PnGuNKliuPdYmvTC0qQXlia9sDTphaVJLyxNemFp0gtLk15YmvTC0qQXNyFN1tLepDQB0s3WNGHqMDZjzD3iAtIEZguw6zWeTXl9kKpDupIEWWCcQhVftS++FiXJ0ZgrKSHIm1ECVbn5ObuWdg/nShNQDHvWDsmsSRNYy1vnoFrTBFjXY3ZsbkeI6XN+vBbLuglpkl/Lf4ssTWCtLvcaS5NeWJr0wtKkF5YmvbA06YWlSS8sTXphadILS5NeWJr04ralCWlIe2lpQplM/cXG/4XyiOUBx3E8ccb0xpg7zoWkyUxs8OxgweooFWZpkbV0BGcBMUufUVlZEEAlSGb5XiLmSkrk1xhhUJUb45/lQ1qm7GJ6plzXyBFpUu1b278nhi1pMpMTOq6SE0LHaqSGmJV5pKxZ2lOlybcX9Z+JmixNqv3VPqAuf385JyqPmD90eb+fnac7g6VJLyxNemFp0gtLk15YmvTC0qQXlia9sDTphaVJLyxNenET0gQ0PdcnjTEetXTEscbJtRaCV1o2/i8UN/spn3VVWJiexZRzWmPMPeBC0kQjLvTsQE6wrogWZY/TWkkOIDH4FT3PGY7hb555WUDMhEWFRic8c4zx6OV5+sRlXxYHMeYvPCFm1o5AmFQxz0QD5HIpk+dsLFfHxLRPXurE+wP7ZvlHjkgT8mW6KNVR6RUD6U+JQedEdc3nQIuaV+dgNsoE8rGxHaOMmKWPZeX0l5Ym1OWHxhjvHq4dyowypToeNI0X54X3d9ov1uWTwznRPvKQSIox5Da5c1ia9MLSpBeWJr2wNOmFpUkvLE16YWnSC0uTXlia9MLSpBc3JU1Ir4XgtT1jjPFWV5qeS9N+VVNxEQtlx1hIl9dbMcbcAy4kTYBnx9OXdPHZ8biccMkP4aB0iNnXWjrYs4A4Ik2I4RNT3mx0kldfzNZizmUdibmSEpEj5c7SPqlImzkiTYD1X6gj+cdpr86N4QfCMXk6rVneVVtkjh47S/+eKf2lpQn7eG+WvGDjmqxGwmRpApwXiRNNyUUsLPie6/IB6fgoXe78dF6WJr2wNOmFpUkvLE16YWnSC0uTXlia9MLSpBeWJr2wNOnFljS5NHSC8MvoLjAnPDEZY+4pO6XJUfY+O/K6E5eEvI88T28r5r3lAvW5dPlHuWYMR9oic/TYo+lPoRIhtN+ly73mOWmFpUkvLE16YWnSC0uTXlia9MLSpBeWJr2wNOmFpUkvLE16cdPSxBhjbpQrSRNjTC1NzBlYmvTC0qQXlia9sDTphaVJLyxNemFp0gtLk15YmvTC0qQXlibGmHuNpYkxV8PS5MJYmvTC0qQXlia9sDTphaVJLyxNemFp0gtLk15YmvTC0qQXlibGmHuNpYkxV8PS5MJYmvTC0qQXlia9sDTphaVJLyxNemFp0gtLk15YmvTC0qQXlibGmHuNpYkx5q5gadILS5NeWJr0wtKkF5YmvbA06YWlSS8sTXphadILS5NeWJoYY+41libGmLuCpUkvLE16YWnSC0uTXlia9MLSpBeWJr2wNOmFpUkvLE168SLSxJs3b968efPmzZs3b968efPmzZs3b968efPm7WHePNLEGHNv8UgTY8xdwSNNeuGRJr3wSJNeeKRJLzzSpBceadILjzTphUea9MIjTXrhkSa98PRcxph7jaWJMcYYY8xlsTTphaVJLyxNemFp0gtLk15YmvTC0qQXlibGmHuNpYkxxhhjzGWxNOmFpUkvLE16YWnSC0uTXlia9MLSpBeWJsaYe42liTHGGGPMZbE06YWlSS8sTXphadILS5NeWJr0wtKkF5Ymxph7jaWJMcYYY8xlsTTphaVJLyxNemFp0gtLk15YmvTC0qQXlibGmHuNpYkxxhhjzGWxNOmFpUkvLE16YWnSC0uTXlia9MLSpBeWJsaYe42liTHGGGPMZbE06YWlSS8sTXphadILS5NeWJr0wtKkF5Ymxph7zUSavPIY41EbG2mO8rLLsZnZ/iNwPPmY41Tn8hLn5BIQR4xv6zzz+lvtSGfuBroO8zPqElwz7yO85i1eq5T9lmOMR48xHtbOK9qAZ8ye6+BIWnO30HuNzi3n+qx7wtKkF5YmvbA06YWlSS8sTXphadILS5NeWJqYrvDl7mvGGN84xnij/KIxeymkCdfWt44xeOatbd92QofCh48xfmOM8Y479+/lHZbjP9KdWYdR239Fart4Tm6zTb9sjPHjY4xXXc7zrxfnmWv26Uu8+Tr9oTHGa4e05m7xJWOMF4wx3vSC1+EbjjG+f7lefu7CeR/l7ccYvzbG+OgxxkvkF68E98vTlnupul9e9xbb46bhWvippe7vunEOvnhps+8YY7xifjFBG3/V8hntzR6i9rzLfNEY48fGGL9/jPF2Y4xfHmN87BjjpXLCvVia9MLSpBeWJr2wNOmFpUkvLE16YWnSC0uTu8erjDGeu3To3tYvN2+Cj1i+5NPhY2liTmYiTT5sjPH5y/bVy3XGxv+1nzRH77GZHJntj3Bv03leyRpLk9NhVMb3jDGedEelCdfgtyyx0uFLJzSjB3gucp2qY/xNUr73Ee6R5yz3yMvnF+8ol5YmXC/fvFwXH7iMsLhEvmtwXn50jPHtY4xXSK/dtDThl/TfF+4X7m/agNEmn7fcX9wv1+zoJ4ZnL+1x2x00UZqsyRClo93W0okPHWP86hjj58cYb37FtjSXw9LknmNp0gtLk15YmvTC0qQXlia9sDTphaXJ3eNhkCZ0BtKpYWlizqaQJhnJCu6rc9+cZnJktj9iaXKzdJQmPOt+Np3nL13iZKRM1en87ktHMB2090UkzLA02UZtVAmMa9FJmtCe3A9fOcZ4yfzi0llMZ/81hUZXabI22kSjTLbkCkTBYmlyd4jShHP4k2OMj7E0uT9YmvTC0qQXlia9sDTphaVJLyxNenGuNOGL4dsuv+IDftH7mWOMTwj7lO4Jy69i+cJadfazT2nIY9ZRnsskv6pM4G/SVvPZEytbFcsR9sYNe9OqjvzLMdTxiUv6xy4i4VnL/0lX1SGWtdY2eT/HsZ+22UM+H+dcA8B+OsTowGYKJUsTcxYXlCZb9xTM5Mhsv9C9Tecp9zYd4fHeztIk3mevlfKKcPzjQ8xraTPxWMp645wgsSd99bxgGp0cG+mUF52u+XmR8+H/VT5VWrEmTfa0W35O83+e03GECL/GZsTS2pdm4sjS5J2WfPQ31yavV1CORqLouPw6deFX9mt1eZvQRvwqf9aekSN5c59V7RTT0V7kxfXzmJSGTj7uEdqDe+Q9lrxy21Yx5bLWiMfrOp4dfyQtMELo45e0XNeknUmTU+pBG73bGONnllEWVRuR7/uHmBmhVOU7O2+5w32rzCxNuLaeutSJaeWqsiHG+YkbaQWx/PRyv7z6JD35ftNyv7xLUZ897cOXytw2vDeQl9qDOGiPxxXnALbqx7VCGfm8c9xbL8/OHHuFBAefq3jOIHKyEFGar13uryqNoHym5JLg59pdkyZqK9WD/6+d/9y2/J+2jQKM/e83xvjc5RzleydzJH1My3l5nZW0qgvvE7xHr4ncmJb3nFnaKtbqPNNOXAd8Zpm1U+ZDFrkZpQkSbe2YVSxNemFp0gtLk15YmvTC0qQXlia9sDTpxbnShC8JHPdJy5enPHc0r/MFWqMGtOVREqRTGj7Qz9IpbS4zHsPrQlM8xX1AnuqY54tZ3J8Xg85b5GjcR9LyGp1tquOXL5uO01ZJhVjW94b/PyOkmY1YmbXZjOp8xG3vNSAoX3WivlX9jNnNhaQJ1zGdQ/meembqUJnJkdl+wWgDXs/3tsSDpMmTJ/dZle/emCvo6NSx+XlVfQHcm550W/XgeaG8tNGJt5YP/4/lRhGitHmUzkyaxLowzc+s3UjHL7PJB8FLXnHdFL3OsZXMEDqeTjSuxR8I510x5tgzsx8IEAOdoHvrQnuqLrH9q/jX8o6dfMqbZ3tsp5iGeqqtYl5x9IxG3MS4SBc7tXNMOo+fNel4zMTjGa2h8mYjKPamBd7PVUelJ+3XFdKEvJEQR+uhURa5jZR3zHcrZtIiO7j2dN6q0RuzMjX9lfJ5yuTaqsQFP6yY1T+XH6GN94xqkZDgfovXNeUiO3L7MPIidrRotAptg7DUyBZ+sR9HbFTtkcuJ9fvsUD/u5Wq0CmKROlbtViEhQnzES9yMLojtSMyMQOA+J641aUL5nBtECeeee2BNmlDXXxljfEpoq9i2eeSL0n9USP93xxgvHV7XKJd8jqqYj6SPaVkTiPPC/zkvcTQG54b3VNWF9x7SMermj6b6kJbpIfekXYv1lUI6pWV6La71qp0qkCakJS+ufeLi3O25jkosTXphadILS5NeWJr0wtKkF5YmvbA06cWlpAkbHfLqBKfTK35Z5MM9SFbEjnB13rPFXwKr855/I7FMOupVpqZ0iiJkJgBm0qSSEnlTXkfi3kpLuZFYxy9Y6qZ6zmSHqF7nX9UttkVun+rYLS5xDQidQ7WdpYk5mwtIE70eBQDXMaKD6zsKi5kcme2PVOUISRPKo1Nar3Nv0LGTj6nyUsx746A94siBWQf+VvosEqp6MLJG+7nnSccxxKwRZ3HkSsyHjv7cHsSikRlKm+OupAl1ofOQdlNnfWy3KA+iFPnCJb743NQoEXXsrxFlR/y/REElLbaY1aXKM9Ylnhc6XPXL8/jL6FPzrtqpygskUmJepJ1Nz1W9NoupQsdz7cRfl0t20ImrzsWttFzzsVOadqSjOaYnNn5JTvooNpR3FBmqB2nfeWc9sghZi5lO+CxEJDs4b0zrwzWcn0uCvLem5yIfpIde16iQLAW4/pWX9lN/yZk1WbAnzQyVS/vEheIlKSRFQNJk1jYz4TF7jfpJtsTYsyCpjt0iShOO0SiR11jqKEmBSKEepJ1JE+VFRz3XCjHvlSa0FeIknn/yor0VS05P/twXalvq/++WY14vnSPOR5YGW+mjPFLaWHfOC+eXcxDlDvKB4/9c2PcGy8gN2jnGsDdtjPX1Q6wcT3vkukmaVO20Bh0iyjv+/yQsTXphadILS5NeWJr0wtKkF5YmvbA06cWlpEnu9FfHOB/+c4d3lgq5416oQyEvxjwrE3Je+W8R4+PLviBWfq27tqlDay3vHPda2kogrNWReNfExqys6jiVr30cm2PZYhbrkWsAqvgsTczZXECazISHjotiYpZ2tj9S5SckTaKAAO4VpEKOfVbeWhmikglAWUzZlKebWkufhYcExlo98rRelayZ5RPTK54j0kT7cgc77ZY79iUDqhguAW3Cr4L3SJeKU+sSO5sVA+clTg9WCQ04kregjDg1mJCwicep4z/mLyQsqphmx0R0fJYSxMe0OvG6X0vLIux55MiR9LO0MxmSmaWb5VvFAJIdWaZU7JEmOR/KZZosnkdxKi1JnCw+KpkSUX7U45RF3rOgEFW+kiZRpETW5MasnOoYlc21y744ymNv/aI0IdYoSThXUaIobSVNYnx67Yg0odM/t5XkRRQSMX0eNVGlB9qJenCOYixr6T99eY7pep2lrWQKIoV655Eib1FMm7Y3bSVXgFi/ochD0qRqpxvD0qQXlia9sDTphaVJLyxNemFp0gtLk15cSprEzm/gQ746zKOUgHiM0h3pGJ+VGV9TB/5MIKzFt4cjcW+lrWJcq2MlFyLUvarXrM4qi/mliTHLjy1msc7Kg+qYSpBU+4w5xAWkCaMMqte4xrOwmMmK2f7ImtCQNMkd/1UMcCTm6vU8smPGVvosJmYCYy2u6phqX04vmTFLm2MDtVteP4T4sjyQDMj5XgqVWUkTXkNgMT9+3J4UYmFkAtfTuXWp8qn2wVrejNTIea9xVJoopldL+2NM+TWhNFkcVJC2kgwiy4mt9HlNE/6e1YN8qtcilTTZikGiIgoVyY6tqa5gjzTJ+RBTJU1U/7wmySx9fv0UabJ1bBYdkiYacZGpBIhANEhSzOqXR15QFiPqECYzUTMjSxPKkSj5wDTiYk2aVIKk2peJkia3VSVUZukVdxYjIkuPrfQZLZL++4rzovbSaxIcn1Oc38yetJRRiRGh0SZRqEiafOzB6+GiWJr0wtKkF5YmvbA06YWlSS8sTXphadKLNWnCh3hGTMQOGf5mv6g6v4E0ezrM19LNmJUJmt7pVGmyd6TJ7PiKrbRVfap9Yk2aqCyOpQODOZfjxv4qDk3dlV+7iWug+ltYmpizOVOacB3Tmb91T3WSJkdjjlT5rbGVPguL/LdYy6c6ptonNC3WUWmiGNhXtRv7iS/LgJzvpSCemTThWqGDj3MZNwkGHXuJumRBcmreW9KE91YW0GZh7K9eOp1jnWAmTWJMvD6LaSYbdPxaGkFaBMQsrSSBpvNS+pnsiNKE+560a/X4iUk+Yk2aSDhkKrFR7ZtxKWmifVv1v5Y0mQmZLEny35mZNFE53A9r9ctCRVN3Va+R52cUn9PyNFh5ejFNgRXX9phJk5nIOFearMWW01PPLC8i+bit9BGl1XlhnZl4XtT2yofzq/204Q8vI9yyyAXSak2TWVrKR5rMYq0ESbXvxrE06YWlSS8sTXphadILS5NeWJr0wtKkF2vSRJ3zsUMmd4DPOrv5ArCnw3wt3YxZmXCuNJE8WNvIa3Z8xVbaqj7VPqHzsiZNaAM6nfKvkCvpATNpchPXwFp9LE3M2VxImmzdUzc1PVfu1FZ8MfajMUeq/NbYSp+FRf5brOVTHVPtE+dKE9rta4o2y+22Jhouxd71OGKdozS5RF1m0oTO6SN5z6QJ+SFKqCcd709fOgT55fjekSZ7Y6o6NUHHc/2tCQkg7bWlyan1ALXRXZYmW/XPZYhT1zSpYolkSZL/zmxJE+r3tUXdZvVbkyYqi/tHn9NiukpMEIckQZyOqpIm1bRc4r5Jk63zkjvbmFbwnwYhUi3uvict5VuamLOxNOmFpUkvLE16YWnSC0uTXlia9GJNmuzh3A7ztXQzZmXCudKE/Y/a2NaOr9hKW9Wn2ifWJMNWWRVqMzpX+bcqc41ZrGuxxGN0jvjCmr+k0gnDa8TGF9Y8570xm1xImlSvVczkyGx/5NLSZG/MkaPHbqXPwiL/LdbyqY6p9olzpQkx5GmnKtZEw6VQjFtl5FioS54ma418fGQmTY7mPZMmEkPvmV4/Mj1XjKkSE1scOZ6015Yms7R7uA/SZCYvttA0Y7msDELuu5drTudordwsSfLfmS1pQjlZfsyQWKAzn/thVuaMSkwAsRBnvueyNNG0V1w/X5A+o7HWB/cusSE7X6eoU5YZkSq2WXriXZMg+bit9JEjaSs4/v2X8uOIlIoqLfssTczZWJr0wtKkF5YmvbA06YWlSS8sTXpx29IE1kYT8IWOLZKPX3tNHfI57Vp8ezkS91pajfKIYifXI7ImTWCtrExuhyPHilmsOe9IJU22tqNxGfP/cKY0Ada54Pqr1uzIzOTIbH/kUtIEjsSc4Vg6catj87MN1tLzWhQTM4ExqwdUx1T7Zunz3yJLE1Bd8nRYFWui4VJIAG0JCsRDjjvu24pvrS5Zmmjf0bwracJ5nwmYI9IEFFO1Zsce1o7P1/1aWiQI11VcHySvW5LTx9fy30eppAms5asRGl3WNOG8H51iC7hmfnq5nir5ASqXtohlaNREVa5GelxqTZNZOZnYRkgWtc3ayI5MJSZmrEmT/Jksb4ycqOLKMmPrtWqf0KLqVTm8xnUWR86spadjIEqjuGB7TruX2aLvFTlt/junpW5e08SsYmnSC0uTXlia9MLSpBeWJr2wNOlFB2mivzU6RMzkgNLn/ZAFRC5LaHRFFd9ejsQ9i0Npcxyz9FDlH5kdy3FMd8Gm4yQs1F5beVfMyjtyDcw4ReIY8yJcQJrMhAXHMQqKe0pfimZpZ/sjl5Qms/RVzBkdq5EaYhbfTEpU7TpLO6sHVMdoH517uR57RU21v9oHVbutiQagTnQ48uv3HOMRNBKD81Hl8+5LHLRFFAmz+GJdlH6WFippMhMh5P33J3nntLAmTZBaHLdXmsRyYqdjFVOFOvdjeRDLlBBQ2qos0lKfOFJEi8Pn9HRSs7g373OSGWt5qx5ZTEQUQxYYyjfLC9IjPCQattJXKI9cJszymUmTKCRiejq4/96O+ksAIQmqdI9d8s9CYyZCKDe2D3HO0sZjZtJkdmysn47JC9Cv5TvjXGmyxpHpueLaKYLjs+hYkyaz12gXRr1wjuJIDaVnofmXLtLHeq7l/VXLeSEt13o+VmTxEct5pY20MwmyVrcqPXBvffDy3KnugYthadILS5NeWJr0wtKkF5YmvbA06YWlSS86SBOlZR9D/1lsnS+1z0od+vl4NtKQlmM4ln2xw5+yiYEOCb48KB1/60twjm8vR+LOaZEAfOGp0kJuo4zkkMqNgiOW9UnLlGKUp33KU22TBUkWKVvMYj1yDcywNDFncwFpog59rtknh3tK+2JHM/v5BTPXLZ2++rI0259Rh/8Xpnt7JkFmsiHHzNR2s5gz8Vji4FnFs+0Hl31xZEaVnhEnHFOln0mJWT2gOkb7yJ/nKOKA9mLKmCxTquNBozjiOVEcpM/tlvNYEw3xdWLcWpNkDWKKC68Tq95vmNKF/bTba68cd05dKmkyy1v7oiBZkyYgKfTJIR/OY7UQfEyva1PnOcYU84oxrXX+x+Pjdf8Dy744CoO0WrCdzk9G3JC+SgsSGYqNtFqzhTpGaRLzJu1rHazHTJocjXkmO2ZIVpA3x8b7r8qHeCppov3E9JRQf8We88nE42kHPmfoXH79EiPtnUd66DjVgfbhPvv+Ja+4Tgr5VeIjotEpuT1iObl+7FOeM0GSRcoWXaQJ1/kPjTEet7Qr6xhRjyxTZvICaDutxULZ3DPkxcLt7IvypUrPeeA64Jzm9DHtpyzPU86LzlWMRyM/PmdJx2eCxwc5FAXJ3rSUz/N8Vrc4ygTWpAnH8RptznG5HS+GpUkvLE16YWnSC0uTXlia9MLSpBeWJr3oIE2A9M9Y9mvjS+17hDQiHq8Ofm1IBPLK6clLaehgozOFDvkqviMciftI2qqNIsQs4VJJhVlZTwxp8qgcIZmyt21msR69BiosTczZXECaANczc7bTeRbvqSflhMt9JkESp6x6wmR/hFgkG2K6o9JEr81iXmsPmB1Lh1d17N70M4GxVo/qmLiP50gslw7vPSNhIJ4TTW01q0tutzXRAFHK7Jnuaw1iorOUWBVTrC8drxWXqEslTWCW9wdM8p5JE/LRQvDK55ljjMcs7ZelCfeIOvrVtsqXvFj/ivLWYpoxOz6vt3I0LdBZqg74mJbrl3rGabNmeVOPrY7ymTSBWb7vVeQ7kx0zKFf1I09JiVk+xFJJE732tCLOD9wZC8d/yDKKR8droxO7WntDx1Eu8a61zx5pgvSgwzu3B8zKifXLU4LFfJEpPCv3rIvSRZogHbjW41RfHJ87sNakCdB2T01tx9Rg732B9LO0fymlJd3HLddXfG5V9VlLm9tY5cc2ovy/WMS6Jk3eYIzxk8s1VU33dTEsTXphadILS5NeWJr0wtKkF5YmvbA06cW50uQa8IWQLw4zqg53OiPWjgHyvSZbcUeOpD0X2ubadTemLTukyVHu4j11TsxHn1dH059CJUL2vA8c5Zx2uxbU8ZS4TjlmL5fIW/W6FOfGdOQ6PpKWdEfies2D6fdyJObb5Nz6U0flceR9gC+ON9E+p8R2l6gkCHW+REfi0XN0JP3e80KePGu20sHRtHtjvTUsTXphadILS5NeWJr0wtKkF5YmvbA06UVHabJFJU2MMabkCtLE3D6VNDHGGNOLSpqYe4KlSS8sTXphadILS5NeWJr0wtKkF5YmvbA0McbcayxN7iWWJsYY0x9Lk3uMpUkvLE16YWnSC0uTXlia9MLSpBeWJr2wNDHG3GssTe4llibGGNMfS5N7jKVJLyxNemFp0gtLk15YmvTC0qQXlia9uIvSxBhjdmNpYowxxhhzWSxNemFp0gtLk15YmvTC0qQXlia9sDTphaWJMeZeY2lijDHGGHNZLE16YWnSC0uTXlia9MLSpBeWJr2wNOnFi0gTb968efPmzZs3b968efPmzZs3b968efPmzZu3h3mzNPHmzZs3b968efPmzZs3b968efPmzZs3b968eYvSJA9DMcaYu46n5zLGGGOMMcaYhxNPz9ULT8/VC0/P1QtPz9ULr2lijLnXWJoYY4wxxhhjzMOJpUkvLE16YWnSC0uTXliaGGPuNZYmxhhjjDHGGPNwYmnSC0uTXlia9MLSpBeWJsaYe42liTHGGGOMMcY8nFia9MLSpBeWJr2wNOmFpYkx5l5jaWKMMcYYY4wxDyeWJr2wNOmFpUkvLE16YWlijLnXWJoYY4wxxhhjzMOJpUkvLE16YWnSC0uTXliaGGPuNZYmxhhjjDHGGPNwYmnSC0uTXlia9MLSpBd3RZo8aozxsnlnI7rHZ8xDy4Y02XPv7klzaV55KXdtI03kNuI8wrnx5fqaF8Xt85vQFudcazcNsXJ/xOdUtc/cLpyT1yzOSbWfL5453RHOPf7adI/vtrlr7VNdw/cN6vdyeeeVOdKuR9Ie5Zp5P8z8jjt4rz+0WJr0wtKkF5YmvbA06cVdkCbvMMYgto/ILzShe3zGPNSsSBPu3d8YY3z5yheePWkuDV9uv3V5rqxt3xY6ABTnR95gnEd4+zPj+/Dl+K848fj7Tmyfl8gvPmS84RjjZ8YY73SHrpUPG2P8+hjjnUPM1T5zO3BNff9yj/3cGOPNlnPC/u8r9n/oGOPXxhhfOcZ4qZzZDs49/toQ36+OMf5u0/humw8J7fPS+cVmvMEY43uXZ83PjzH+6D19D3nbMcYvjTE+9oav2S9c3o/+2I52PZL2KF+w5P3Hr5D3w8zbjDH+4xjjLcYYL5lfNL2wNOmFpUkvLE16YWnSiw7S5FXGGM9dOgCrX4Z2lxLd4zPmoeaOShM6pT5/2b566ZBj4//aT6fqwyJNHjPG+J4xxpNOPP4IvCf92PKe9PL5xVtiK6a3usH2uUm26l3xpQfTd6ASJNU+c/PwPP6m5Vx84Bjj0cv5iPv/UtgP3I/fNcb4gBM7KN/yzOOPwsisZ48xvn2M8Yr5xQLi+86lPa7dUUhs/+5AbDfBVkw32T7nwDX8Dcs1/EFjjNe6x88aS5O+0oT76UfGGN8xxqAD9S5dg4w0+SfLD1Z+a37R9MLSpBeWJr2wNOmFpUkvLE3Op3t8xjzU3EFpkuEZ+ePLc3L25nnfpclNckpH/bXpGNNNcLTeGmXyUQ07htaoBEm1z9w8dOj96NJBHjtbZvvvIkelyU2yJShug44xnQL1+LdLPV4pv3jPsDSxNLkWf3WM8ZMebdIfS5NeWJr0wtKkF5YmvThXmvBBhw+i/MIO+HXdZ44xPiHsU7onLL+OfrsgR95ojPHY5RfUz1r+T35RnmQpMSsD+Jvjq7ndOY5NeZ8bu8jxkYa0OR9jzC1wRWnCvc4zY/ZsiPCaniNHnw2nSJP4POPXo5Fzn5NPK/Il3eOX+iFIcltkaUKen1fkMyPHUe2bxRYhPWkUZ57fXO9JL1jek959OUbpVCb/Ukf+/8SlTmvtyi+PY7tG2Efb0R6cszdOr2/FBLktIlX++VrmeKaZ0PHEu9WWFVvtK2JMszIQINT7Z1fqnUE0kP5NizqKrRjVFvrVdW4L5atrnjpU+QjSMXJM7c+oqRxbJUiqfZHchq9dpFNdeIbE6/Vop9lam8RyY5vwTKrahDjeP7THmxRxQxU7z9AYe8zrEydtsMbW8VyD77Z0Nv7QGONxSxzcy9V+1ZcvnbG9Invqv3Y8bMUNOQ869J5anDPV8adTXdYkZc672jcrL8MxpON+5JqJ5W7FpjJ1jfB/rhF1XLImkF7P5RMf5zFfo+TzfmOMz13OT36WMJ0VMf3UEtN7Fu1FXG89OX9V/vl+zMcT62csbfk6RZ4ituU7bpzDPfWAI/Hy+SSehy05EfPmOq7qNmuLnJ50yquqO3WL0oQ8/06RT2RPfBGut7++PBuJgetwJkKOpIUcy+uuxMLaJX8t5X1EmtA2tDHPF45/haUsRlXovqF9c/mUy7Hc7yoj5sWUmcpLcB3+hTHG88cYPzzGeK/l83ROR9nvG84Z9a/qoetFMfyJMcanF8eQTvlVccGf3Yhd/JExxvOWNv8t+UXTB0uTXlia9MLSpBeWJr04V5pIGHzS8kvQPOc+r7/HIkXifo0qoSMyH0NaOomOlCEQF3kfUBbH0unIlyfYk+9a7KLKh18fVvEZY26YK0gTniE/GO513e88K3KHN5AHHd6kYe5wPVOeuVJu5Ig0efLkecYXX6H1L+I+4LnGWiqxHMmOtXx5Tqp+2kgbO6OqfOJzknzW2iJLl7hPefL/HNuec0anpfiyIp+YhjLpyKYNaSvSap0VtWteS4N2/ZalXV817AfyU9vF9uCXv+r0YbqptZiUD3HlkTzsRyKs5R+Ppy1Vr1herlOG9v2B5biqfWcxsR5EvB9iJ8havatY1M6zUSkxxucsMfJ/8owdo8THehKfPGkLJAbXvOoQ25ROlYjEh+qqc53TVoKk2ieIkQ6wnO9npTZUXfhspLqwTsbRX8PubRPFNGuTGDfnQPlUozXoOGNdCK5pzmuOnddnbbCnfhxPZ3w+/rPD8V8czp82rhddO3m/1jRR7B+dYollxvrzC+tY/9nxem0Wd+ykJt2vjDGesrRfrse7LtdKVUfWtnjz4roTyvtj0vlg36dslCeQYrwf5vsxlv1Fy3U3i01lMrJMZcZ1RLT2Si6bZ8U3Lu+rvy/Uk/yQCIopnh+NKJnFFNcCIZ9fXtonn5NZ/nGkh46fteWfK9qS6RlJl9tytkbJnnogGvbESzri5Xr95nAe1jqQOYZf55Mn6wVxHfP/z0nrwCjvT520xZ9fnj2KU/uJ8XelfJAmyoe6xzqRT7zX9sYnWMeGa5G8lO8/G2P8w+W9IoqQD17qRFpGUlInpa2kSY6F/Pj/3yzaeCvvNWnCdfTdyzEcy3XE/7kudNyafImv8RmSKQbX8tIx3KP5OkR2KA0SDqlCnXkPj/V/mVC+0v7iGOPTlmsxX+OIQn6Aofy0nzb6PcuzgHZgej2OzbHHuISm6OKzh/IwDbE06YWlSS8sTXphadKLS0kTtmcEmcAHWO3niyRfAEDyIoqRvdNz5TI4nnzicadIk5zvkdhzPoiTHF8s0xhzw1xBmlTSgfudL9U5LwmPKBF4RqhzPouLiiPShOcQnc8qS3HF8qv4YU2a5Hz50qn9POdIR72VB/uiQIr50DGf41urG6xJkxwbefKlelZnHa90eXF52ns2JZTkAmXyq1DqqGf+UWmictjPryKF8ol1XYsJKmmylX9cND7WK7Ylv/SmjbJkyZAnx8e669hYTlUP2keCJLddlX4GaemsiuVFKgmh6bxyW6ijhQ54lcs1rzbi+uae0zVP5wzXcZQviieLgyqOvfugypcYvqRIH+tCJynCKf+yfg+zNmEkkPbTJrq/YptIJBA3nU9cj/FX0tRTi55nwaDOtBw7nVrkFWVLbIN3mVwD4sjxVdq1/VBJD9IzBVauvxZ9j2mr42MeOW6Jjxi3hALth1DRtcI1TwdznFoq5rtnuqk1aaLyFF9VHlRCQ2m5FtQxTWyzqbBimbQB91+8vqsygDbL0kTlcH5eP50f8oh1XYsJKmkyy79aNF7HUy866dWW/CqfzvMsLdRhj0xRjEob2zJDTLPpufRaFS9lRSkisUG83EPc82vPmapczolETqxHzJu2UHvT+a39dGZz7XMM+Xx9ISokTUiPOIltSgf6T4wxfn+4FhSfxAv58p7PucqCJebxh8IzkFEKpCc+xbKWlnaNaYFY/s3OWMibRcnJ+w8veeS8K9khJFwY+ZHz5HwjKGjH/7KMqojXFeLgny7v1XSC7slLUMfZ9FzVa5Ql2UL+UUxKmnCe/9ZyfXEM6Yhb1wvXGMdJeHC9SIgw3RbXCteY8ib2/zDG+KrJ2iWM7kJme4quxlia9MLSpBeWJr2wNOnFpaQJHYURPqRJUkTBABIbms5qrzRZK0NS4hRpspbvVuwwywdm8RhjbogrSBOER5YCoKmtIjNBUcmUGUekSRYAPM+yCJnFVKWVmFjLN7dD1ek/yyemXxttsiZNcp4xNkkKzhkduHF0BmjarHj8Wke95EIuE45Kk7X0TKtBZ7KujbWYoJIma/kTTxy1EeuVOxer2DNID7VvLCu3byVXYFa/2f4KSZrZeiaKMU+3k2OUIKjaAhFAW+Q8JDhi2aTPUxhBFDXqXKkESbVvbX8lU1SXLCSOMstHbcLzqWoTyQDaRH9noUEeLKgeBQtIHOQyYZbXmsiISFTsOb7at7YfKukxK5P606nJvaFrvDoeZnlE6aFYJBRov9ipSHkSBq+xtHc8vpIAmTVpQofoVnmA5OB+zSNaNP1P7DSeCYpYZiUGjkiTtbRM78P50X21FhNU0kRyJI8SIX8WY6ctNMpDx+d6KW0eIYNsiMeL3JaZSl6ISsRAFa/ExtboEjHLu4pnlndsi1xv5R/XL5E0odM7x6j0EhD5b1EJjOp4QYxZ4Egm7EkLs/RVLLO0Me81aTIbRYJM4Doiz1huFBxZiOzJS1RiRET5Ep8rs2MkTbLckBzh80SOSZKE6dK4NiRA8qiSKnZRiRbTDEuTXlia9MLSpBeWJr24lDTJi6DzAS1LCpGP2StN9pQxkxRV2iP5iuqYap/QaJNKqBhjboArSBN1Rsdf5M+gs76SHTxnsqCYcUSa5OmZqnJOkSZ78hXVMdU+odEmlYgQ1fHVPqF2V0f/kXO21lFfyQmxJSliPNoncbHFWkyQ48r5b8Waj48gG7j+1qSJZAjtW8UnZnlVbQRb9Y6oDrn9hWRDHClRIUGQ5QsxSpq8WtgPs2MqzpUm/JKbNswxKL742pG41lA+EiAilvnqYT/EY2jvPPIkUkmQKA5y7GoDysz3GgKmei1Ch32Vpjp+Jkdm+yFLD+U7q38mHy8Ud5QPEOPWa5XYEOTDfXUNabKnPJCkiKNSKtYExVqZsCZCojTR35wfOuC3zs9aTJClSc4/X89ZqOj4atFyBAltGaWJOu3jqJQ9VJICiDeLkUiWHhIbVbwVjJKgDhrZIVQu50WvzfKu0goJkkqa5HxAoz8kZtbiQz5Q5h9YXtO+LDtEXKeEzx570+o1xaLyRI4l5p2lAMwkRkSCgmmvuK5n90GVVx5ZEvPSaI8ZMwEClMWPAf5g2q+RLbRNfE3SRAIkppc0Ye2VmFc+RgIkjlTZQnlYmjTG0qQXlia9sDTphaVJL9akCR/ItMixNv5mv5gJA9LsFQ+WJsaYq3EFacJzQetjsLFINR2E+fnF34gF0tC5xvztcWN/JR0ylib18dU+kaXJ7JxVAmWto35NLmQRIWirLASqfWusxQQ5rq38c/r8d2QmOiLEp/VCaF8WFuaajO2rmEhT3Q/sz/Fu1TsiyZDbX+yJEWaigfhPkSZ0CNGRwmKyX710ThNDHEFRCZJqn2LgeDqSqjZkapau0qQSFVAJkmofUCaCYKsNqnJOOX4mR2b7IUsPlVkJj4p8PCgProm1uO+KNKFMxa37kXs33+drgmKtTDgqTfT31vlZiwlm0mSWf05/VJoQj9Y0oS1ZULtqy8yWNKmEBGSRkf9eQ3nrOmZdnngdsz9OlTXLey3GSpBU+0SUJrQD8oFn11p8WZpEkRKppMmetFyvyptYOOdrsWzlXYmODNeD1jTRdcT7T14AvZqiK8sN8tKaJsoLKZ7zgpk0kRiZ1Z/9D64gTYhHa5oQ+79YiV3kPExDLE16YWnSC0uTXlia9GJNmkhmqJNJHXxRJMyEAR/09ooHSxNjzNW4gjQRdGzwpV3PxzxlF88Sre9BZ2kU0FFE507bjKVJfXy1T2RpIviyzzlTR1010mOto35NLjzM0kTM2jfGxLn+muJe0P0Q67dV78iWNBHESOdSjLFaCD6LBuI/Ik1IjyhR5+DTl2cGHbla6+VUabK3Dau4TqGjNNlqg7iOTOTo8TM5MtsPWXqozEtIE+L+2iLmHPeaUMgS4zakiaCzkY5Rda7mRejXBMVamfCwSBNBW9IxHNuyGikiblOa8AzkOqazPV/HPCvVrrO812KsBEm1T1TShPj+wY74iGNNVlxCmuyJZSuOPdJEvPUY4x8HaZDXQuG6iVN0SXrktUr25AVb0mSr/nE0yExeHJEm4s8usfMMUex5yi4xy8M0wtKkF5YmvbA06YWlSS/WpMkeZsKAD297xYOliTHmalxRmgieGU9c0kWJwP6ZWDiCpUl9fLVPzKSJIP4nhHO2d3TDmlywNPlN1L7kqRi2YqrYqndkrzQROcat0RmkPyJNmEKK6+G9UjznTM+lGDgfOYaKKq5T6ChNZnltcfT4mRyZ7YcsPWKZlTjI5OPhlDxmQiFLjNuUJoL6PX6pN7+ezwu0V7GtlQkPmzQRlPf+S9vEURuZ25Qms7wzs7zX8qkESbVPVNKkyreCONZkxSWkySx9ZCvtEWkiEA3vt7RbHF0DMT+e9Yw8iYu+Z2JeeXTIljThes/Tc82YyYtTpIlQ7NSR2PPxsJWHaYClSS8sTXphadILS5Ne3FdpsiftkXxFdUy1b89rxpgbYEWaqLOe+3022kMd4VVncqZaIL7ad5RrSZM9aWdiokorqmOqfWvpM1Waap/YkiaiWiB+raN+TS6stWslC6qyBZ0IbGItJqjimi3Ortei4KmOj2m5/rbasiLHkP/eYqveEdVhrzQReYH4mWjgPO6VJkpLu+W050gTQMbEeNfIcZ3KudKEYxR3taYHr1HXI2ua8OvjKq89aBHyPcfP5MhsP1TSY61MvqSSn/ZXx8Ns8fSKNaGQJUYHaSK0qLnquCYo1soESZP8OtdtlhhxMfUcYz4/azFBliAwW6xdr3GvnLqmyYy1MmEmTUAd+NWxvKZ4adeZ2JiR5cAas7w5h5eSJvm1I/HBWvr8Wv57Le1s34w1MbL22hbVsbSZpujiPbRad6SiymsmTWL62QiPzExenCNNBCNbqgXiwQvB3wEsTXphadILS5NeWJr04r5Jk1lajfjYk7bKV1THaF+Vnl+n8xppjDG3wIo0Ucc/92gedQGPXr6QR+khgVGJlkqQzGQG+TBlF9PD5Hwyl5Yms7SSSNeUJlV62o3XOAfVeYK1PHNsEKVJ7HjPbV2Ji7WO+jW5MHuNdqXjKksTpc8jbKryq32RquxqHyivGM8sLWxJk7XYsiRROXTi55j+/nI/nDo9FzKCdq4EAfnQqVPlc9PSRDIkrmmSj5/tW9sf21BTNM3SAjGyoDPx5NcyyicLjCPSJP8tJB9o1zjyY02azF4jr7+X2qBiJiXi8epYmcmR2X6o8tc+znvsVIvCQvlUx6/tJ4+vSnGvCYUsMW5amqyVd0lpMnudZ8VPLtec5IPSMtpA6zRAVX61L1JJk2ofKK8cSyUKIEuTGEsWH+dIk5ms0DHEu7XuyIxZevKm/bmOFc8s7anSpBp5g5jgvvrzQQLl44H4uH9jfMBzlGsnp9cIFj4XSnpogfS4HsgsLSiWnL6KZS3v/7jkPZMm5Kcpt35Xap810cF7KuvFEYum5tJr5DWTIFVelTRBaOT1U3QMn52of4x3JkD2ShPeg/71EsvvSem2pAnPlLcIzxrK/CvLeyzPiZiXuQUsTXphadILS5NeWJr0ooM0AckFPkzxATHKkyo9VGXwL3/zwZAPKeRFnvytL+VKeyRfUR2jfWwsLvzYUC77ZjLIGHMDrEgTkCjgXuWXp/H+5bnB/tyRTEc7+5+5iJVHhem5csd8FDNPXtJSpvblvCsuLU2UH/VjdAT15csg7aDn5LWkiZ6T7x7Krdots5Znjg3ySBOJmXjOND0XX+xz2UpPZwodWHp9TS6og3+tXaN4oA21MLrK4fqjA4J9ecSERofkmKCKK+ePzOO4Kv/qeLElTUCx5fYlT9pXoiLG9MlLWu4H7csyJeZd1TsiMUJHSu7QAOXzWRsxzkTDEWkCmp4r1pM1TqqF4DX6hGuHzxfEUu0DxaG8X6toQ8VQxSX0GvdkHs2SmQmPI9Ikxk1nLiKNe+T7l31xlAlEQZBjJy8t5v6U0AbKvzomsnY810OUEnTOVXJkth8quaEyyZ/60z7c71X9q+NzHltxz4QBZImhfeTBv8SW5WKkyrvaJ2blcX189hjjtZf7UdNz0WEZZYRGYuTY1soECQXuIe4B0nMPIhJ4VkRRQdvyGSC2AeeHxafZl6f4msUElSDJ+SNpuf6Vv0aZxONzJzxkaaJ9xPI5qS1pG9oyCxGxJk2IVwu2Ey8jpHK8avOZ2JgR8/7UJWauY7VPlh1V3srjqDThecei5O+57Pvc5Zr7Z0vnu/LWAuw5PvblWCQcuI9Jz/WASPmpZR9rYUiEHElbxfI6y3sDdWdflAl78p5JE+BzL23xN5dyuI6Y5o12o32y0JCkoU3z1Fwxr9fdkZfS8z7ND2i06HpcDP7TQv3VJoiOKFPOlSYcw+c27p2/lWJH3hB7linAMTxTYt7Kl/bxCJQGWJr0wtKkF5YmvbA06UUXaUIaOtLYz5cbPpyupYdZGaRXZ6c66OiwQMxcU5q8x9JxGsvmQyD5GWNuiQ1pAjwf6EjWfauNe/lxOfFyT39ikC3xfq86dEnPYpV8aY15P6n44lVxaWmi9DF+npN0wEk2XEua0J48J2PZdIZX7RZZyzPHBlmazM7ZrGza/AfCudJIFMqcyQW9ntuVDhfiqcTD7NqgnXL+iom0MSaYxTXLnw6jmG52POyRJmvtmztfScuC1TmmDyjKhqreVTryRRxUo0n0+icsHaZrMdIWlWjg+CPShPRaCF5lIWwes8iQOD0X0MlJbNRRo16qfcqbNox5qw1jzFVcQlKGY29Cmij904q4Wfclx7cmTWCW1wdO0md0PDGuHT+TI7P9sCY9qjLfO5U5Ox5meeS414RCJTGoz/eGztW1KcCqvKt9oiqPenz8cg3GZwFpc3sqNs51jG2tTEEadRqTPx3mrxdiivKBmJ6a2pbyOD85/xxTHM1RSRNQ/pzbmP9fTPkflSbk+3HLr+BzW1YjYcSaNIG98c7Exhrk/RlF3h+U8pjlzfGnSJP3WT6DxGsCwZ3baW98go717wnPI9JSFj+goKwoQkj73TvTgmLhWo+x/OUiFjrt1/JekyaIBcRBbBu1T1xsXWgEC6N38tRcs7z4PFHlxbX4XeF+iqM5yOvTJ/WPwgSyABFHpAlpkVFV7HkUDhB7NTrlj4wxnrc8n+MIFHNLWJr0wtKkF5YmvbA06cW50qQzfIi5LfhAzIdcY8wts0OaRLh3j9y/PGdIvxfS3uazKXObsRxp50ty9JydwintyjHXbI9r5y+OtO+l7wdGmCIZttb7UIxraS4FbX7NsugAOrUNESd0mm611zW45PWoNji1Ducefwp8MT23/rcR9zWgLa55jwBlHMn/EudnjWvlf622vFa8cFvXMeVWP5rIHImPNrpGWrE3llPyjnC+KWsmWEDShCnVNDVXxZ689oKc4YcUp9brKHtilxxBtKytiWJuGUuTXlia9MLSpBeWJr24z9LEGGOOShNjzN1FU3QxYmatk8P81041RokwCte/gDXGGHMETamVp+Z62GA9E6bdzCNYTDMsTXphadILS5NeWJr0wtLEGHOvsTQx5qGCKTRmU3SZ34RROc9wOxljjNkJU1cx1dTfCWvB5PVJHiY07RfTbf7W/KLphaVJLyxNemFp0gtLk15Ymhhj7jWWJsY8VGitjrjQvTHGGGPOgym/tNg86wP9oYd8VCfroTBFmdcsuQNYmvTC0qQXlia9sDTphaWJMeZeY2lijDHGGGOMMQ8nlia9sDTphaVJLyxNemFpYoy511iaGGOMMcYYY8zDiaVJLyxNemFp0gtLk168iDTx5s2bN2/evHnz5s2bN2/evHnz5s2bN2/evHl7mDePNDHG3Fs80sQYY4y5+zzyyCO/9JznPOdl8n5zOzx48OAXn/e85/22vN/cDg8ePPiF5z//+b897ze3w4MHD/7zC17wgpfL+83t4JEmvfBIk154pEkvPNKkF56eyxhzr7E0McYYY+4+lia9sDTphaVJLyxNemFp0gtLk15YmvTC0qQXlibGmHuNpYkxxhhz97E06YWlSS8sTXphadILS5NeWJr0wtKkF5YmvbA0McbcayxNjDHGmLuPpUkvLE16YWnSC0uTXlia9MLSpBeWJr2wNOmFpYkx5l5jaWKMMcbcfSxNemFp0gtLk15YmvTC0qQXlia9sDTphaVJLyxNjDH3GksTY4wx5u5jadILS5NeWJr0wtKkF5YmvbA06YWlSS8sTXphaWKMuddYmhhjjDF3H0uTXlia9MLSpBeWJr2wNOmFpUkvLE16YWnSi+7S5GXHGI/KO40xZi8b0oTnC8+ZNfakuQ1uOy7Kf6sdcfD6K+edCV6v0mzlDXvSZPbGbvZzW+/XR8rlGttzvl/zIbg+jtSRtNX9GanuYY7bk/dWmocVvrzO3rtuE84X5/rGY7M06YWlSS8sTXphadILS5NeWJr0wtKkF5YmveguTb58jPFzY4w3yi/cYajL944xnpFfmHA0vTEmsCJN3mGM8RvLc6Z6HfakuQ0U10fecFx0lj19KZv3jLg9a4zxWik9z68XLM/xN06vCfL81jHGc8cY8cPB2y/lfMVKHfekEUdjr6A+37M8j7fKU9pn7kh7H/jS5Vy/yQ3Xd2+5bzjG+JkxxjtN0nF9fOYY49eL6+OHxhivPTlOkP93L+f7JfKLBUfTX4KtOr5OUUe1G/fwmxavA/l+8xjjx8cYr77s4978tTHGV44xXjKlF283xvjVjTQPKx8a2u+l8ou3DOftp8cYbz65Hq6GpUkvLE16YWnSC0uTXlia9MLSpBeWJr2wNOnFTUmTV1k6xL7t4C8K75s04Ysm9aGtqdsWR9MbYxJ3WJrw3KQTkudm/tJ1G9JEckOSgU5RfqXO8/nzl3iyHJE04ZiqHnAT0oS2/MEidn5pH2On433G24a6bJVH2p/dmfYo1OXHlvZ8+fziLbJXXlyaveWSbtZmtOn3L9cB8oD769HF9TGTBvl8bwkA0iMiSH9TwkBiI9eRe/TzFpFS1VHShFi/fYzxCuE1cRelCSMlfnSpU8dOlLccY3zXGOMDblCq7YXz/Y3LtX6jQsfSpBeWJr2wNOmFpUkvLE16YWnSC0uTXlia9OJhlSbE8GHLlz5iuzZ0THxB+lXnmgQ5mt4YM8HS5GJ82YagePfl9RhvlCZsVbw3IU22Ylc+dKDmtuZ5rI5z1WOWz5G0p2Jp8qLsKVcd/x816YAmD10f1esSAFkaIN4kHOL5ngmAKv1RYcD9Qoc699asvhVfspQ7K++xkzpGacL20UUbWZo8fDAShuviRkebWJr0wtKkF5YmvbA06YWlSS8sTXphadILS5NeXEqa8MWXKR/oLOL/UYzwxZ4v48gPfuHL//mVZZYndDZ9wpIPecClpAl5P2HJn1+Oki/1jdKEL9DERVogHbFwjPYJ/iZtnr8bOI5N9ZMwojymdHmPDQlyNL0xZoUrSpO1516G13gGkbZ6pmT03KQzmOcmQiI+N7M0ic+rtWmmOP7xIY61tBHJjyw2IpIfPK/ecYlLx0mKVMdfW5oQA6MAyP9V84sLioG8FDtIUFAnplHieTwrr0pLJ3WVdg3O89OWc0T94hfu2XVRfSnn/YmOTfLh2nhMEQdp3iZcj3TGU/bWtUH6j1/yJUbyncmLPXEoHbHQjpwP6vXElPZIuRF+JME1kEdRgKQA18erpdeEpADn/p2XPIjzOcu+zxpjPG6RBDNpMkt/VBgon1k5FbGOkhqZqo6gY5F0SJEqj5uSJpTz/ot4+sRiyjSkFNcQ127cz3Hs5znJfur0bku9GHXDuajuo63yBF8yY7ncR09d7qPZMaQnDfcFz/Ncds4zE2Pjfqiu/5zHW+yIC3JslZylDX9qkWh7zt1FsDTphaVJLyxNemFp0gtLk15YmvTC0qQXlia9OFea8OWdjhuO5Rd7bPw/ig4JirhlEfIR4TXlwRf0ryvS8kWRL8ZrWwTxoHyRJFX5wBdDXvukpewcM68LxRv3AbFxLJ0KkjHq/ImdnRw7kyBH0xtjVriCNOHe1lRP+blXrdtBHhptwfpEmnJvba0LjYyIz6CYv+J68uR5Rcd/5pQ4xIcnSTMjC2VJEzp4iakSDteWJqfGDups1ZdeypuJkCNpK7iufmByXWnaMI2IyNdFnlZMdeb17wvnml/Vxw5Qxch1JGkU867W/yBvjZRQjOTL+3WWFzHtWhygWHh/VSxx5EfMS/JhVm6E8/ItKyNzECrkOxuFItQhH9/b8/lekyaz9HuFgThFmpxaR5A0oTyuhypm6nZtaUJajXjhWtKzDAGlY2ejR6g/sbzLUv8vLtZ14dp8s3ANad2OXN5nF7GqHk9Zrt2ct8oFYiQ/rl/OI/Hy/6p88qykRIxN9wL//45Ub9L9yhIX90CO613T9UBsvDfk2H6+GFHCOeczNffVK4b9V8XSpBeWJr2wNOmFpUkvLE16YWnSC0uTXlia9OJcaVLJAzrJ+PIXO/k1eqKankvpeV2/diWNZEcWHJWEyZviUXz84ldU8YHkBBtlK06lj7FX9QZez9Ikc1SCHE1vjAlcQZqoQzqKCcmBnBfPgTzFFs8JSZFKbojqWKG4eDYgPfJ0WPmYKq+9cUBMN2uriihNKJcOxSyXri1NTo294ogIOZIWdF1FUaFRMlEecC7XpueavV7lrxjzdURHOeVmuaH9nCt+qQ6cv6eHjl/Ji7U4KDMLmRjLFy7XiN5zZ+VqUfNYbiZKhkoYSETF0RWnsCVNMnukQsUp0kRTc51SxyhNmLYLOcI9HTv4ry1NKhlCmapXlBJZkFTHzvJce21WHqgeXLtIFU1vRtshN2I+WuA95qF0tIPWCJlJE2J79nIvvF44B9XC8ZImVVyMEiGuKDzIgzKjTFHamK9APnFfZqFyNSxNemFp0gtLk15YmvTC0qQXlia9sDTphaVJL86VJnQQZqkBmqJKrEmTLQGR8+f//Bp4beNL5ZrAIO68fyYnqny2Ys55R2blzDia3hgTuII0oRM+d/xDfu5BJVigkhiZtTSKK3fIzwTEOXEoz6rOW0RpQpyV1JnFvEeIbKWJsefRGKdwRIQcSQtcVxoxEWGqH00rBDMZIahznHJLSDxEeRBjjJ3A5MEv0zkncUqzmfBQ+jji40gcMIsFjpSbUad/NcoiHl9N3XWEa0kTYuQa0OcbpmejPnR4k4f2c29V8XO8RMcpdYzShDijCFAnvMq4ljTJIkTM5MY3LfcH+ziW+KPkmR0rKrEBs2NiPaJYUCy0y2ss5Us05HjyfT6TJrPYVBbnWRJD0qSKi1EiMS6YSRCm9SK2fP9UkuWqWJr0wtKkF5YmvbA06YWlSS8sTXphadILS5NenCtNJA/iyIyKmTTh/5UYETMpswflncuENWlCnTI5vaWJMXeEK0gTCYj4y/wZdIRnGQA8KypREFkTGoorTzk1y/ecOJSmkia8pvU34qa1KLI0gTxd1iyGLSECW2li7FlGnMIREXIkLey9rrakyYxKVijGfB0BIzC4/iRNaMs1QbFnbRGo4gDFgtzI1/Q55SrfLFwg5n2KUIhcS5poZAnXBp8FZtssH+o4kya8prUr4vakNNIgShOQxNCi8CrjWtKEER7KO8cvKRFfU75MO8e1VuU/EyCAPMh5wlZ5WXCA8pKckPSIIz8qqjxVfhQjkSwxJE0+ZhIXz5EoTXT8VmxC+VuaPKRYmvTC0qQXlia9sDTphaVJLyxNemFp0os1acKXMy1yrI2/2S/4Mq81Tdj4P1+iYhqlW5MmM8lQSZO9I010fM57VqaliTH3kCtIE+5trWmi5x4dhPm5x9902JOGzjnmio8b+7MoiFxKmpwbh46vpIlijJ23bBIFlTTRMSqzihm2hAhspYmxd5cmtIvWNGFjgWryyOd+rzThfZDFrlko+quXKX10bs6RJpynOPpEzOTFnjhgS5ocLVdoPY+7Kk2ANtSabdxTmp6LBb61Pz9/BPtn0oRrSetWxPs3xlRJEx3HOUEeqIxrSBPyRhQQI/XOzy/2/0QhODSVVvUazKSJyuPYveVVgkNkaUK5WtNE9zkjAPN9XuWp2PIIkXhMlCT570glTYhNdYyxzZ4za/lfBUuTXlia9MLSpBeWJr2wNOmFpUkvLE16YWnSizVpItERv0jPZABfnLTIOlsWHZeUJuyLMVWbZAbHcbzKZWOhd9JkOWJpYsw95ArSRPDc+4b03KvW6mA/ncX519wS0bMvVJeWJqfGAXvXBcmSJP8touyg3BxzTjMrc0+avbHv4YgIOZI2gvjnulLHZRY+W9KE88055Xg6hVlvhGsVeaBzcRPShPSIkiqOU0aa7C03syZNwGua/CaVIKn2QYxfa51cU5pwjr+meHbp+ZVHRpwrTSjva4uyqvIqwSGyNBFMXfdPlxh1n28tBH9taSJybNVC8LCW/1WwNOmFpUkvLE16YWnSC0uTXlia9MLSpBeWJr1YkyanwBc6pmUhrygOLilNOEa/rJxtMa0WlI8dm8SYsTQx5h5yRWki9NwjXSUrsgzYy6WlyalxQJ5Sa4YkhtLNpAlIZjxuEt8eIbInzd7YSfc9SzyzdEdEyJG0FZy3Jyx5RGGwJU0kAd4zlVtNi3VNaXIkDrgtaaLXqzVPIqTj+sj1EZ2lyd46KiZNuwUzaQISE++1nKNrShPlXbV9RuuuIFm4NmJ9xJY0OVJeJTjETJoIynv8cjyCR+mqPGNsVX5ZYuS/I2vSRMxiE2v5XwVLk15YmvTC0qQXlia9sDTphaVJLyxNemFp0otLSxORZcdMmlRp9762B47/uqVMNk3bVXGKNMlpLU2MacaKNFGHfiUlxN4Od6gWiK/27eVS0gTOiQPUVjnfjBYzVzlr0kSvMb0ZW877UueHfOikn3W6g9otj+rIHBEhR9KuEaUArEmTNcFQyYoj0kT7ZoIivnY0DphJE9hbbn4NlO9MmkgKEOur5RcXqM9siivRWZrEOkpqVCBBch3XpInkBNM46R5W/notLhifyWujzCCuavH0iiw9ZsfOpAnMFmufUQkOsSVNRF6EfZZnThfhNa71U9c0mTErM6+hcnUsTXphadILS5NeWJr0wtKkF5YmvbA06YWlSS/OkSZHRMha2pmA0NRap0oTCQy+yHP81rzfR6TJLK1itjQxpgkr0kQd5dxfTN2UefTS2RVlw5rIqMTETG6QD1Nl8UvonI9YK2uW70yazNLviUNoZAidp1Xad19ej/GuSROQ9OAc5JhVF16vptaqzs+MvbHTgVq9Lo6IkCNp10TIpaSJ2vocaUIeldiQCJF02opD7bJXmsRy4zG53Hyc0tDpn4+NaFQMMeU2Ba4Pyl8TADclTWjbt1zuraq+MzQqRNNpZR67xJPruCZNQOKDe1hTYYFEE+1aTQvG5zGkBeduS05EgRDPIeLj7y3PL8WseN5lSTuTI7P9MBMWsbx4zCw9RGnCvcuaPlWZWUzM8pztJzby5p6Lo1X2ShMdT2yvWKSdSROujbif8/7By3morrOzsDTphaVJLyxNemFp0gtLk15YmvTC0qQXlia9OEeaAB35HMcUWJISmp4rCxKl/YJlzna9JqHCa6w3wmt82eKLNPtOlSbAcXGh+rgRR4xvJkIgSxPFTGzESszkx99aHDVKE+LQXNha+4V02scX28jR9MaYCSvSBNSpzz3GvUbHYbyf2Z87lOmAZ/8zl457PfeyMIAoZp68pKVM7ct5Z9TZ/4XpuTmTIDNpkuMg7iNxQMyD5xEd2cREm2ltF8plcWqxJU0khnRs/nAQzw+/HqfzmjJ5Dmr/kdhpsyp29s9GmRADa3Poeaw8uEbYR+e3yj+SNqNzHa8rTc9FR2bszFcnP9cF7wfxmtNr8TxTdrUA+1FpImGj64iytVYK+6K8UByfvCMOWJMmsVzyo1w6bOnIzeVmOFYjM2bSRJKHeEnL5wDKyNdHHmWCUPjcdL45fna+j6a/JFFi5Dp+/bIf6fE6Rcxr0oT25RrX8XEki0ab6P59j+W+4x7RucsipILYtRj8U5ZnDNeT6qM8ZiIkixShkRlftLS97iOVx2u5PPZlYTETGZBHmqjMzx5jvPZyn2sKrO8Icc/yjLGRF9ckbfr9S1vEUR9HpIn2rcVWyZSch8rk3F58BIqlSS8sTXphadILS5NeWJr0wtKkF5YmvbA06cW50oQvb4gOdS5qy0IC+GItgZFFCB0qUW7wOl+u+VKf0x5Bx5OXpI46RCknip0j0gRIH+tN/NRjlja2T95ymUfTG2MmbEgT4L79weI+4/5mfYsMz4xPDB3F2niuVF+OSM8i2HRoxbyftKODlOeIYuMYjag4Kk302qlxCPKgszrXnY0O/ChMYEuaAJ2VxFTFDFvnZ5Zv5mjsQp35+Rht8RwcSZuZXVfElq8rrosfCJ35UfaQDx3w8TwjYh5TTIt1VJoA50Nlkzfls84H70txmizi0ELwW3HAmjSBtXLJbyZNiAMhUo3Miej6UGd+Pgd0Iuf8NVokp9eWR7ccTX9pqOOHTOqIOKjquCVNQPXK0gT43KUO/Vge54+1UPbWl9iflu4v8vjAkIdG02Q5IpnCMyauU8L+7wv3URzxovLi+crliZnggCxNyPfjlzbN7b93cflZbO+dYjsqTWJs8XyRNnc0zUamcL381BJPHplyNpYmvbA06YWlSS8sTXphadILS5NeWJr0wtKkF+dKkwhfoOIi7KfAF7a1dUeOQGcdX9pmgqGSG6dwqXiNMVdghzSJbE3jlzn63CNth2fGJeKgjS6RzxGOnp8ZtxH7EY5eVxWq47XY+3596Tj2lhthpAGiII8UmdH9+rgEt1HH17zQ/Us+xL3nXF6Ca5XHl1Pa45x8yePc9qzYik1ypJI6V8PSpBeWJr2wNOmFpUkvLE16YWnSC0uTXlia9OKS0qQbayNH4FLSxBjTmIPSxBhz/9AUXYyoyaMEjDHHYVQW99SeheQvhqVJLyxNemFp0gtLk15YmvTC0qQXlia9sDTpxX2WJnHdkbgGCL/IYw0W6uvF1Y2551iaGGOW6ca2pugyxmzD52jW5GHKtpfKL14TS5NeWJr0wtKkF5YmvbA06YWlSS8sTXphadKL+yxNIK+VEud+ZuFmY8w9x9LEGBPW5ninm/xlvDH3EH6I9NPXWLNkC0uTXlia9MLSpBeWJr2wNOmFpUkvLE16YWnSi/suTYTm7r7p+buNMbeMpYkxxhhz97E06YWlSS8sTXphadILS5NeWJr0wtKkF5YmvXhYpIkx5iHF0sQYY4y5+1ia9MLSpBeWJr2wNOmFpUkvLE16YWnSC0uTXryINPHmzZs3b968efPmzZs3b968efPmzZs3b968eXuYN480McbcWzzSxBhjjDHGGGOMMcZ0xiNNeuHpuYwx9xpLE2OMMcYYY4wxxhjTGUuTXliaGGPuNZYmxhhjjDHGGGOMMaYzlia9sDQxxtxrLE2MMcYYY4wxxhhjTGcsTXphaWKMuddYmhhjjDHGGGOMMcaYzlia9MLSxBhzr7E0McYYY4wxxhhjjDGdsTTphaWJMeZeY2lijDHGGGOMMcYYYzpjadILSxNjzL3mgDR55THGo/LOnbzsgWOPpO0KbfUwcolzx/Hkc1e4zXN9qbIvcd7uEpdqt1O57fLP4TXHGC+Xd5qrwz1K2+u9+r8J/69evzSUd5eey/eJa91z175mboJz63Du8Zcm39e/Y4nvJcK+S3JO/uccK/7gcm13af8tLlHnS0Ac+Vo5Fc7By2/ktSfNpaGOlHtKW+vYl8wvTDia/lqcG8cfuIXzdA6/98Tze9ucEvdtn5vq2rrtmM7C0qQXNy1N3m6M8Y1jjO9dti8YYzw6JzLGmEuxU5q8yhjjx8cYPAffMb+4gy8bY/zcGOON8wsFR9J25MPHGL8xxviKu/pB5Aw4dy8YY7xJfmEnbz/G+PUxxkfekbbjXBMv5/roB+hzuUTZbzjG+IHleuWee9M70u7n8GFLu33lGV9Mz4Hyf+0Wyz8HPqP+6hjjo+9g7HcV7tHvW+7Rnx9jvPlyDXEe/u4Y46WXdB+67HvXM54HM4jhJ6+Ut1nnbccYvzzG+NgxxkvlF8/kQ8YYvzLG+PN3+H7+wjHGz4wx/tiJ1ybfszn+j594/CX54OVcf9UY42XSvr9wpXP0+WOMnx5j/IkT6n/OsfA2Y4xfHGP89THGb8kvNuXzljq/5ZXOx17eeozxvDHGW50ZB/n832OMvz/G+O35xQXS/F9LGjper80fGWP88+X9jPe8x5xQx/9hjPELY4zHhffIij88xvhnoaw/eYXn7BH+x+W99pQ4/uwY4/8cY3ziGOO35Rcb8kHLdfU1V/pRwLWIcSMc9vDfjzH+0xjjySv32bX5m2OM548x/tvlniCm/2OJ6Sbu64tjadKLm5QmX750SLIhTH40/P0RObExxlyCndLkHZZOG55HPKu20meOiJAjaTvCB/zvGWM86YR2uus8bNKEL6y3da4p+7vPKJtf2H7Lcl9/wD37gQaS9zljjG8fY7xCek3tRp1P6eg5F8r/rjPLZ6QKnxGp3+/ML57JWt73RZpQx2dP6nhNYrmvmF8s4B7lh1Q8E//SGOO1lnudDrvvHGN8YDgP15QmXzTG+NadMZvLYmmyzm1LE+7pf7Pc07/7xPdi8RZLBy73us61pUkvzpEmXCv/+xjjO5Zfqp9zrdDJ+Y+WH1+c0wnbTZqQ//+yPJd4Pr3OidfWHmlCWf9zKOt1Tzinl+ZhkiY8c/kO8lfGGL81v9gY3mu+eYzxV0M7M+rrh5bn96sV97alyRWwNOnFtaQJX4T4pRhfhvhyT4ekOiPj8Hc6MZ67bKQzxpiLslOa0BnOc+jrln+PvkkdESFH0ppe3EVpwnsuHY7fMMZ41fxiYG+6S3ATZUksfNuBX0vdFdakyX1gTWycy1relibncVSaHEl/LWmiUSYfc8fP+V3F0mSd+yRNKixNLgudg3So/5Nlqpqj56uLNAE6m//jmaNNukkTOp//5dJGtNepbbRHmlDW/7aUxWfGU8u6JHdNmnA9MPICgcePOtaeA0fSngtlIZ8p67WvXBbchjRRHZGMe+SipYm5KpeSJsiPJ4wxPmF5c9OoEkkT/qaT8I3ygcsoE9IiVowx5qLskCaamovnlEacrE3RxfOOZ91nLp1sMBMhR9JG+DBNZ4J+Hc9zlTzIiw9jMR3PXr7ckf9sTnbS0elEOvIhvwjlxPIE+bE/ps+xVftI/7RJvI9f4kAg5HgVB+ky5MmmY04tc+8wafL9+KW9OI5raCZNiEll5PIjWZoQP19Sq2PW2oIvtLEtIhxHLOTJqCBi5pr+piQo9qSjbL7453Md9xFL1e6RPWVlcjnVvlnZdIS+2xjjZ8cYzxpjvMfSlvnc67xxDjjP3JP5WaEyeU7ofnji8gFer8VfyMd4lJeuQcpZuwZ1nyoe2irHo7rREcaXmFy3HFOE+N8/5M91nNNAziPWiy9o1TEiH1vtI7+nTvLbqp/YW5dIzpsOh5h3liZrcYoYB1/mZ+lm7K0Ha/LoOsyv8wtungfUQ3Wk4yvWUeKQL7/xXPD/tTpeqtzMWvp8vcCaNKEN32+M8bnLOeALdo51BvkSwx9Nx+R2oq5qp5g/6Th/lM3nh1l9Y4ycZ6YKzPUgLzrw+JJMesrn/T13GJ5TX51v3qv4nBPjJV+d06oeuhZoE84Rscb2+YxJ+yjWXB5wzqM0Ic+/s1GvWP+nT9oS1qQJ5dAO3HdVXDOoDx39KvtPTcrWuczts1Yv2vevLc9aYiLmI9KkOn4mTWjD9w3XEL9Cz/m/wSIz6OTkHn2v5RmJqM/3Cr9Kjm2S21vpaJPYybcmTejoIkZdD1WMEdbiiPXnetorPo4em2N7vSIN90qUJnT60mlcpad82obPQ/naoHzuydzuwHHcC3xW/dPL9cI1z8i5LWnCsdx31PmdljrPpAnnDomhc/xnUqc3U05xDv/DGOOHxxh/cblWkPY5hq28BHk+Msb4uDCd21HOlSZ0vH760i7vPKmP4FjqzTn+pDHG66c2pD48i5h2jDZ6n9RGnC9dA/la4v6N18CWNFFZ/35Slogxcy54zuRzgQCjHegs572e//N5duucUB8+S3F90XbcAzNpQhzvHdruDxXPgyxN/rsxxt9aSU/5HEPcuT2pJ+2Z24NjaCuuOa5LngH/ZZHGPMtjPltpeY+krXjeKza1pfYRx6cudarqIGJZSAGuR5WVpcla3WgPPmPmcxyP4f6MMTLFG9fSgzHGv1ieN1xLrxTyz9KEz1OqF8fP6hUhPq7FWEeen0i/LE1I+1HLtfUuy7W4JU3Y/znL38SU26Adlia9uIQ0ecYiPfjlHpKE/2dBkju7IpYmxpirsUOaRFESBUp1jNbz0DOPf/klOyNUsgg5kjajmHhz5xhNZaiNWOlMpAM/7idt7lyMcTA1ImXntKp3Pl7HUp7ag05f9sXREtp3brxVecB7B18CGQWkTvZcpuq4VSYfMnMbZapzx3GcuyxNiENlMDe/2veZxTUkaULM1Icy4lSVfHHVMYoh7gPagiHfsS0EX3qUJ+/H/J94ckfs3nSKlw+n8VznOsT2zfHSQbinrMxa2Z+8UfaXFq/lNU3IC6nCa4zaUPo8eoN0rNHBZxWVqXVW9NosHr4ocg2qHG25DNBaJLzOdaRrKqf9kpCuqptiot3ilwz203m2VV+l3arX7NzpWL4sq3zte8okP770KO2sfm8WyuQL26wuayMrtvKWNFGcOW2ME0hPBxOvxXP22Tu/JMbjYz34kpjrQec+bZhj4HmAfOT5/RordWStENWRTjXqyHOEtLHsLCVmsoJyuZ9V7hcv8cVytUZJda2sped6IcY4+mMWB/X5qSX+71/OAf/nHGx9KVYdeP/II13UTp8S2inG+ueWe1tlaz/njs6EnJfS5fMc05KODmTuHZUZ13XJecX60hlQdZ4JOnCYalHnm+cxx9HmdHCoTdVJH/eJ+BrniFjPbR9JEzpYquuRfOK9RHo63bbaEippQjswfWHVDltiQvlRHm3Pc51j+fXt70ppifOXQr3ytZ5FjuQBr/3YEh/5/sOd0mTr+ChNiI3OJV1DqgedTnFEBMKFey7GTTvFvGK5rB8W2ySPTKFcOvqQE7pWZ9IkxhjzJcaqs5Z8aO9Z/SvxIRA+R45FhjACIsdGB26MTdLkbyzT3dCWyp+yHhueUcRA28R9QGffP16OQ4rF9vy0pe14TflzfhB0W+8/SAvKi3VmnQ3qnKVJTBvrS3qNKEGA6DqI10qWLzGvH0x50Vkb60fd+SU9z+f82l5OlSaUxzOF+5b3OJ4T/J860Z+V25c8EBTUhXpx3fB/JIDKRbBVbaQ1TSRCeG7GZzkx8Wt7zpM6yLekCWXpmo5lRVlBBzpSijipo55RTI0ZfyRBuv+8iDlGh/MM/OpJn574y0u7k5/yJl+uL94TZnHEtqMOUWJJmiC7ed8mjhj3e6bnl2LI+8mTOHj+RxHLZyLuV/Lkmc25otMdCZw/S/DZuEqLuIz1+v8tUkfXgPbR2U8d8vWAmM6j0iiLc71WVoTnEM/O/Dr7ufeYPjfKWa51xNrfW348kAWIjotxUn6UnTqG73tcI7leCLHquS0oi3PF91rqyLWrMvL1zegTrkfyJT3PPerEOeWzQZYmMSal51gEzVpMt46lSS/OlSYSHjzgBbKEL2h0Om7BQ9nTcxljrsaGNImd8Xpj0lRd+Y2KZxsdFLymX7VzvDqgowg5krYirrFC57s6+d897CcPOi5A9cj57pEh1T7aa3YsZZKukiZ74uWYWbw5BrEmTU4pM48UiXDu+CJHWXxBgXzudDxtxBeZOAUUaTWSIgsEYtEXZj4kKuZYpup3VJooPV8QlJ5fc5NvXEx9bzpQvJW4yO2uPOi4VltoMfc9ZWW2yv6sUE5V9tr0XHqNNoy/+pW4iLGpw58y6TTk3KvO8bUYD9eg9nO96Hrm3NG5wbMhChzFkwWG4smSYpYeFFOUJmv1JW1etH1WL9qZDpWqXKFjK2mi/HRszC9KAjo2Z1No6TXqwhferbpk1vKWNCFOOt3X4qzy4fxKWmS5keF4pqbK9ZAcoR7xC+9eaUI+yntWR3X80kkQ60hnBvEoH5jJiixNcrlZQlTM0ivGLWnC8f8uHU9cEjI55oyOp63zF/PYTlwLakdGx2g/nVDcm5Sh9uDejsJBZdCu/PJY7UoHPPWJUkTShLypA8+I+N4b6ytBQLmsyUJ9s2CIqMM/pmEkAZ0MMYY88kNQDh0PPE8pO8aKsInto/20D9cr5el4ntNRAKg80iMYlA+x0fHzE2OM3x+ur3+7tCW/yo1tSd2oR+xwqqRJtU9l5eMjKpu2j4Kkyg8kTdQ+uj5VFh2yyifWVfWivRiZQt5bQofj6cTneH5Bq+sxHi/RQT003ZbKJy3vbVyPWV7E9FmC8NqPFK+tiZA90kT50kbKl45OSRzSxmuT+jPCgfrzC3vqSXpGCJA39c/i49Rjie1fL7H9nhAbvzKnrbn+FZukCdcA4kS/zKYcRhtQJqM92HdUmig9o9zUlsr3qzamLyIdHfyUz3NfdSZGrtkoO6jvvyqm3JL84LOO4iXt2vRcdM7q9ShByIt2Iq/8HEbG8L5UiYo9nCpNkBLEFAWGRr7QuRw786lLnnKL1yWSYh5VWnFJaQKUNZueS6/xLOU7mNpW+UYpImnCdUzfHs+SatST4BnEtcXG52Xypg4Idto0yhvi+F8XScl3brWdpE8UHpImxIE40f1HedSD8qIEOSJNlJa1+NSRrny5LuL78Cwtn4Vi2jVpQh24PnQf6HjkYRQaWpSdsrQuSiwrf7cBCYxYLnXmR39cj1zDcaQb+XFtMSqE9FmaAHHumZ5L9dK1rbypV3UcSIKwhp3qyPsgx3Edxu8a7Oe8ca75gY2uLcQS5wRJkqUJMSFO1NYxD/5fvS+0wNKkF+dIEx6mfHjmgZKFBw/Vaj9wI/HBiQuYzgSmzqim7TLGmLPZkCaSG3FkyWyKrko0AM/CLACOpK1QDHTexth1vD7oRlRmlBmk53mbp92q6q28JUnIjzS5nDVpcm68p0iTc8vMbMmKKE1maSuZAur0zzFDziv/LRRHbItqn2DUBR+w2b83nVgTF1l65Lzz35GqrMypZfPBHNakyUxGkE+WGurwz2XC7DXlQx2jHAGVHaUG6fN0RECHBr+6I//YYXBUmhypb8wjC4hYr1cP+yNr0qTKTx3+5Kfy+ZyYhYSQHJnJA+oSR6Vk1vKWNMnCoopzJjHIfyYsIrPjYz3iKI2t9DN5kWOQDMh1hEpMVPuAcm9bmlT7gHyzTKng/pqtZ6IY8kiPWG/OTyxXIoT81Lbah6zI7SeJIMkiEZHLFFF8zOqbR1sIxEosS2g6Lu0jL8mBmFcULHRASXZk0aB60T65LMUfhcwsn5heomcmKGJbRrlQpZ9Nd5XbIUMZcbotMRMukiZ0YOf2+fqlff7AkpfEQVUv0uZ6ZfYcL2kyS8t5jzIlPotn0oTOKjoB8/Qwkji0Sfwl715pEvfFZxSxZJmi9LR1FBZAfKztQf1n0kSjTPYeO0tPbFmmSJrQyZ4XglY+kiRHpEm1TzClDZ8N8v6IhMesLO4PSRP20fmYz7HEC9e3OlZpgzVpspUX7ZTFxppQ2cOp0oRO+0rWaJqs2G6VYIFKkFT7Yj43JU3i8VkosHg8PxKR2JA02RpdItZkRc57lraSKZImxJFnC6jyqfZBlibklSWK+NvLZxTtz8eupV2TJl+TvpdIapCvhEa1TzD6g7LyfpBUoZ1UhvYhgxGrtImezYgZ7j+NHDlHmnxt+k5CHf6npQ78aCTHuvY6owr5XBP3S7DkUSLk8w+WezZLkxwTzPJphaVJLy4hTdjyQ3RNmmhReDY6n3iY5OONMeYibEiTSm5ohEUlFGayI65TciTtDEmT3LmvvHm+5jfS2TEVlTQB5cEvTni96txfkya57LV4q2NOkSZrZeZO+dkxIp67ajRKXtOEv6vOf/KphIE6/avyNdpEHfCnSJNKEFTSZCudWBMXcZ84p6xMVU7clz98K88taaK4sigQWTBUEkLMXqMMyQXFI2bHVFxCmiiWtfqSPgqVSnwIRlJIHlRUx1b7RMxP5c/EBnVZEyMzoRKZ5Q2SJnkheJUb42QkQI47p40jNiJb9agESbUPqvL2SJM1URCFykxMUO5tSxNEAB1Jv684B4otvxZROblu8bXcTmt5S3pImihtHn0islDR8XmUh1irr0SFRmVkJBDiqJAZ1RRdWWBsjUipYqmOqfaJKCS4PioxIipBsrYvjv44hy1pUtWL9uU8Ik3osFsTIzPJI2jvLEYieU0T/lbZ+RrKMgfWpMmMc6UJMfL+ltfkoGPsny7x6zXty3JDbK1LUokRUR3LPmLTCBGhvIhNr+U1TSJ5VMgp0oTPNllObEkTHRvFSGS2pknmFGkyY02aSHrctDSRCGF6LUmwGQgWPlPkNS/IS7JDr3WQJuSHvOAayGuLQBYqkiasV7U2ggmUdxQjkbymCX/zGSCvWUE+khN6TdKkWgi+GhVyVJpwP0nQiCxCdCxp+f6ylnZNmsR9IosQykKaVGXltBEdF2ULAoHrjqnGkFFMtabyyYvvRJIh50iTvBA8scykSHydOuZ8szRRWq4tiZHI1pomEY02ySNZWmFp0os1acIHKEaD8AFBG3+zX1RyhNdnI1AivFnwxkDn1FZaY4w5iRVpwrNq1qGfp+haSwuVNNmTdsZMgKzlPTsGeN7yZYznOB8StI5GJUU0tVRVBlTiodoHa/FWx3SRJtWxEKUJafmgSX60J+vFxE1tWEmIqvxzpAlUIqJKuzcdbImLXIecd/4bZmVlqnLivvzh+6g0ofwsNCBLh/z3WlpBGadIE+5TfsFKxwX3KV+KuAbyCI1TpEkVS0x/iuSoqI6t9olTpElOL6L0yOWIWd6wV5rob65FzkN17zP0f0uakF+VporjJqSJpui6C9JE5escsKZMPAfs5xxkwRDJeUaqGCDWO+c9kyZV2ir9mjQhL6TBVn2zqBC0tdY04b2fOcx5b8lCGyqRoY5+5V+lAcVJnXMs1THVPlFJkypfqCRFJU1oB61ponZAGFftUEHnER38dJTSQUenDvd7HlFSxSMqaUK9sshQ2j3SZHZ8lCbUkbQ8Ryh/dg0dlSa0CW0c24S8aJOj0oTOLSTILEb2syBxliZRpEQq8SE4NouOSD5W6bdiu7Y0gUqOzNJGttLMpAnnGGFKJzfnmNFonOMoI/ZKkz15CUkPOnlP+UX4qdKEGKkH55TnBAtgc43zfhrrRXqEBu8j3IP5mmA/10RHaRLzi0RJwgipU6QJeWcRAlGa8NmVtDyjaTvWV4ptx36mkrq2NCHvLDxm6WCWVqLiUtJkti+WVUkT0OgRrWsiMcJ3LuKXJOEajOuZQCVAriVNIMsRqI6r9uV8LE3M1ViTJjxgeQBpVAgbf0e5ofVLNNqEjQcBaVnvZA8aebJnDRRjjDnEijTRaIv4jMubRqDwbJt1/kNXaUJ6vvipYx/xzRdXfpFdjTQBS5P6WKikCeeSodbxBwbxhwZxGLk6/avyz5UmOl6SgHR8ucj11fofW+kgSop4rvM+kSVJXmtEZc2Oj1TlxH35A/Ndliakp7NCHaKsn0MHKp26uiYsTf5rXTpJE54FDP3P973u/XxuRMzP0uTF01cx5jhU/tY5yPWP5DwjVQwQ651FSJYga2mr9HukCc+DU+sLdOTS8StpkBeCB85LnKKL5w1/c12o82kmOxQndc5yozqm2ieuIU0EHaXqAFc7zMQEUC86/LheePaynhefuSiDe+bckSbUq5Ie15AmXENMZcJr+RrivYe2js/imTShI4oOONqE+lRtcqo02YpR64Mo/U1Kk63YNL3ZNaWJjqcTE0HBdUC7cs19XFGemOUnsjQhPZ2RnCOOYX0nPp9zjrk3j4w0IS9GeFV5MTJpbaTJTUsTQccrwoLniJ4Tccou0vM69xgd2bNrQqNVLE1eXJpwva21na6la0oTHc/aG3xX5X7i8xdtnMuLafmuo7SUtSVIqn2iEiR5rRPK4rN9LisjiUEarj3al+cD6REqTHNIObzHcq7idF2VALmmNNH6JVr3hDryXZR7MgqPrbwsTcxVWZMme+DCfkbqZKQD6YkpDR+UZuuWZPFijDEXY0WaqFOadZXyBzXeSHkuSSrwbJp1/kNXaSIBwgfrmM9sei7tV/1z+VCJh2ofrMVbHXMXpcksbYU6/avyz5Um7Ndi9fH9+EnF8XvSQZQU8VznfSJLE8qiIy+XxaKG+dhMVU7clz8w32VposXD3yu1yyWn56piielPkRwV1bHVPnGXpcksji3i8ZYmL56+ijHHEcuvhMQecp6RKgZYKzdLkLW0Vfo90mSW11HIj0WkqWM1QiVO0cX9S1xxEfmZ7Ihx5jyrY6p94prSRKgdiKFqB6GF0t8n5XWp6bmoVyU9riFNZmkr1qSJFmZ/31THc6bnonNrTYJkttLzef7S0mSWPnNNacJ+Fm6n7fTZig591gDJZUVm+YksTfibe+jxqXP+lOm5tDD6LK+O0kSwn3ufTvQ4coT9eQquNSxNXlya8Fm2Spu5pjRhnxaq1/1EhzvvIXk9ItI+ZUfaSpBU+0QlTVQW5zqWxWeX3AYRzr1GkLBeF898iRGJGP4mHwkUlVkJkGtKE9JoIfdYR37cGeu4lZelibkq50oTOtywl3xoY+MNILMlRbZeN8aYk5lIE541dI7P5IVej539a7Ijv5b/jqy9JioBAlVcIh+zlraSJjm9BEGOsxIP1T7IeUaqY2YLtcd8rilNIIqRTH4t/72FOv2r8vNra21RSROkAe/HGtFRvR/D3nSgmGbiItchS5MjZWWqcuK+/IF5rzRRWs5btcYHr9HuN7WmyVraS0gTQEzM6ithcxfWNFF65GK1FojqksVCZC3vSlYA5yhLEtY0mcWxh7XjeS3XQ9JkLbZKXlR1rGTA7DWJhZyecm9TmoAWN2dB9tyGe1A515ImMFuAXa9xTo+saTLL61TIM69fAlFm8EykEywKhZnsoH1mcqM6pto3S78mEHiNtqzWL1mTJmItb+o0kw3nShPyWit77TWR1y1Zey3/vcVMmtAJhaygTbKsOEeagGKsREdFlht7X9t6vXot7tu6ptakCa/REarXJE3yKJGZ5EBm0IHIr8i5PunU3PsMzGJk9hqfm6qy4ag0oR7/aMnr0amt16TJuQvBkzdTPNHZO2sjlYGYyR3kmWqBeO17TNGemT3SRLJCXFqaAPKCmGfrjvDsOmVNE8jrlqy9lv9eY02aVK9JmuT0lTRhxBz3E+2k+yk/D8TetJUgqfaJSpqwj7I0+mVWVoXy433wX4V8JVRYFJ7PzHE9E6gEyDWlCbKDNBpJs1bHLEbWXluTJmuvtcHSpBfnSBMubDoj+JU2HXC8obKxv0pHJ2E12oRpvCh773Rexhizm4k0kTTg2RSnT4rkReJnndjKK4qQI2krsgARPE9nEiIfs5ZW8cU1TfIoDz4Q8oU4t1ElHqp9sBZDdUy1D9RuNyFN1s4dHVacO0kSdeLntLQdv2Bh2q7cdqSvYtOoII0smeWtOGIe1JkPvrwfc12tvR8rHXWYpROKYSYuchtGaXK0rExVTtyXP1QfkSbqxM/56BjaVvnM0q69Rh1nIiQfs5ZWi9Kfs6bJbB+QDwKB+kYJovRbkqOiOrbaJ45Kkyg2Yl46RnXJ16bYm3fuKM/SZJaW/On84d7P+UfWjueLLvWIo1Bm6TU6JKbfI03oSMliQ7ImSoSZPNgqN+ddMUtflbl3H5AvnXmcg7U4qAMdNvl4mOXNtXBEmlT7gBiZx5v2Uz5b0mT2OnnRQT2rL6/H6bYiM2miY3h+/uDyWSFLgSoW2ucUaVKN8pAIiYvPVyJCsdKWWezE9LEdmEIpsiYnqNNMmkjMnLqmCXlJHESZABIyfOao4hJrxyMvOF6SRHHltLQN7zNcQ5peSvuPShPFs2dNk737gFi4DnOMlEedspyg/v9hqX8lRQBZceTYmQiJsamdlDaucyKQL1w3GlkiiZKliUakcH9IXEikcF9yXpEQvMZnzVjGDCSBBE08P5IX1HlLmiiPvWuarEkTSYtqNAivcQ3nKbGQBnw+0jRtM1Qu7515BAdwXoiZ7xcqY01sVNJEI1WydCEfPpdyTUjYrOWtfLI04bxwDXENSJqQNo4GqViTJrPjdQzPUpV1VJrMZAUjHKgD15ckSSU7gDj4bEjbqZ2UNq5zIhAZ3MdxVMksb41KIZa4EDz3E+dV9xPXf762JFxIiyRbS1sJkmqfyNKEsvjR2Z6yKrSuCfccsoPvZTqOshhhwndJ2ifGUgmQa0kTvU4duSa26viXlmsxyw6NHOHaytKE64XXY9kIFp45f3F5BpLXBy7PlPzsujUsTXpxjjQBOm/oENFwqrjxSxF1jtCZx4XMxn4+EPFBgS8epOXhxQPdGGMuykSazDrGI3k0hiQCzyzesHmOaW0Q9kURciRtRRYgYk1CVMeoI54Y+DBCnfiylheCnwmSLFKADtBcTrUP1uKtjlEctA9l027ES7upQ/Ta0oQY+JC5du4kTSQGchtTflWOOv3Jh/dOfj2nOpKejgl18CuOPW0BlMsHT/LJ78d00ui80lH4AyvpomCIkiKe67xP5JEmR8rKVOXEffnD9xFpEs8bcXAv0iGpWKtRF1WZs9fWREh1jEZIMESdKR44l/ziky9QxJOlSTyGTk9i1/mt8lc85EV6rt9ZfWMeWUzATUgT7Vf9OF71k8CIdeHeYBFR9q2NMhGSAznvmZiopIn2kQ/TJ+i80c7sy3lk4vHEwSigtXpIMPA84LlCrFwjfOnV8yBKFtWRf6mj7gHJAO5BvgTza1LKJS/OUZYpa+VKMOZyySeXW6G890gTSRri4NpGFkpgUE+m1qCTh3Ogds3CI0P5iAvur9yZVsUAR6VJjJE20XlmwWD2aZRJPL7qaAfy0mLwsb7Kf3YcaFQLawrQ4UTHBNPkSKBlmQISAlwrcWouoA5VrIrxqDShDH79SqcX+5jKh3sxxhbrz/OBUVqk1SLmeURJlA7cjwhETbOV24EY6BDKMkXouE9djuN6pAP13IXgaR+JCfIhf+4brQvCvq31VvYcL2lCG2ox+FgX2pV9WVSApuGizfmcyb1H3Nr/aSEffjmuhb33SJModrhveA4QoxaDj3krboRFlil0AFIm6bWuCkJU9Z9JE4791weOpXNNa+EwPRadrjk2XQeSJlzbLCT+3ss9znXDfcUc/lrrgjj4NTif77hmOIekY9SHnrNRXNCR/l1LmfmzFZ/781RqEZVFnamD6sy9ojrn6bliXemg5nrj+Cw6NAUXMfADIO45xaHX+IU7HcNbeekY3t+iaNGUW9R1zwgUjTahbnwe1HnQaAv2Z+FB2xMraejspe3fbxFbnLcoPLgmtO7JZ4S6cZ2wL4qJNWkiYcE1wHXEeaF9uBZ1DUhkSKRw35A2SsScXyVNiFmLsPMdl+cD1+t3Lve0RpnAUWlCuf/rcm0+dfn+iNhEQur6kjSJcZCWtqbtEF3si8JDEoTzTv5MC8h5pI14rhA73zNVT+LgvqM9EYRqT65znr+0Z1zThHai7vl+4ntyPFek5TPLVtpKkFT7RJYmoLL0Phw3Prfkayiiabi4t3J5CBUEHVLhz6T3qJkAIT7amXL5fBqF5eyYLWkCCA3uy1kd47UrecO1xdTPPGMQ39zf1JP6ZGlCPtwHTMPJ9YIw4T7m+anP8zGtRMqtY2nSi3OlCaNDeGBj7/UrUj4U8UGK/OKUWzPBQlreDI0x5uIU0oRn0trUXEId+LHDn2cVHdN6fpEHHy55FvLBLOZ3JG2mEiCg2CsJUR1DenXIKw4W6+RXK1EISa5oVI2o2oAvc7mcah+sxTs7hv0SFGy8b9AhSYw3IU1g69zF6bgo7+gaIXQMsfZXrGcUGzE9nZNKw4dFvjTRFlFOAGKF/IhTv9aphIzSEcNaOpVPvDNxkeuXpcmRsjJVOXFf/vB9RJoA540P3eQXzxux5usxS4it18j7iDQhvRaCVyyftdyn1fRcQP3UwU7cmnqryh9m9WUdlVm9tiRHRXVstU/MpAlfBulYVv3iNFbU5Wk761Ixy/uINNF+4ogdV+THL9b2xDE7nk6d6njioxMtPg/40q82jPIi11FTWEUZwPMsfvGnUz+PTAGVq2dcLJfOh1wundikpXNkbeos0u6VJsCXXuKI9aEN6WyJbUi5/CIx3zMZjkU48IzIIzRmMeiYvdJExxBjbGti5Mt5zHtLmsAsr636chwdR/E86pznugs6tOmwq0aBVAIEKOcUacJ6AbwnqhOT2Li+cmzkT8dkrn9uS0FHp2Qb4oH32KodqrIilKuF4HUM4uVPXWB6LuC98bvDM4060Sa8hxL/mjSBrePjdFxqw9hJRXp+IZ5jBe5TOpjIOwoYOsS0ELzyoUPqTx+Yngvo/OQ64xzF9UPoXK9irDrJGTEQJQJpyZf6k/dMmsDRY4mtWk+E0Q8xNkkTnltPCFKC9HxeyWKD9OpYJg0dvnSO00/CZ5koTegoJD+ubz4T8hoygWuUuOjYX/vFNHWmkznWmTj5gRD5VgvBq66cczpatSZL7CTlWkE+km+UL0BeWgg+51VNz0UHqUauaKQGSIJwvcQRH2tQX8WlslVvpGmePo1YeY7Hc8bGdyaJrpweCcn1HfPmPMV7YE2aAOeQtlCZyAH9iAZ5FNcg4ZnHOaAdqqnB1qQJzGLmWo3tcVSaAKPPooRQvlxfXONxOi7iyOuJkL5aIwRpwncr8ortxGfkeI3EY5BLei7Snnz3Rsbx2UPShOcKbcl7kGQ6x0oURCGzlZZnCd+BOJdZkByVJsgNyqLOuSzaS2XlegPtykgV7jc+U8brEKHCexDv7bE8mAkQ2pcfm/FMzrJldsweacJnF84la11yPlRHjQahjnF0C9cW3/H13kAsHMsUruSTpQn5c73E64D3pijYqpEqt46lSS/OkSY8xLm4ZtNq8cZCp1U1gkSCxRhjrkohTS4BXzr5wLuHI2mvBTHctWfubbcZHD13tPGR9MAxlLPGVp6asmsmgyQUEGt70mXZdAr8WuymyjoX2nfrHNwEuk+r9rokXep7Cfgi16EudMpUnSB7OVKPqnNgL5UMIPYsbCvOKfcmOOUc8EWbDnSmpzpy3KkcOc9bnFJfIIY9zxlJkywErs2R6/GcttzbDhHKy1MtXRJ95jg1/6PHn3oNRegYI5+qQ+wS0ElWdfpWEMupz6lTjj0SG5B+axqtrRg0ZVeeIkzQwZ4ly4y9db7kOd6bl+RInkbsXDgHtM1sCqAM8mlPvELXxN70FZR5zvFHobyt6/IUdH3trQsi+UjbkX7PeVxrT03XNZNCiD0JFt4T96adlbcXjRShrCxYoJIsdw1kBfKGEUVcKxnECaM5K+Fy9NqCvddLCyxNenGONKHzhWNOkSbGGHMjXEmaGNMJjcDYEhT8WmlPukuIjGqkSOSSZRlj9lFJk4cZOoz5Up5HF5kXX1PEGHP7zNY/EUekSWdYz4Sp3vIaKMZcktnaJyKKEO49RorsSXvuNbs2KgXugzTZWpB9TZrceyxNenGONEGGIEUYbcKXMMGvXJ4RhjEaY8ytYWliHgLi+if8oEHXO+/HmjqM4et8+NqT7hIfTtdiYpqoS5ZljNmHpcmLw3ofTPewNj3TwwLP57dYpi9BmMzWOzHG3A6IXq1/wjo+cZojTRvGVFdVp+5dgbqwrgVrGlQdxsZcCkYraO0T1siRiOQaZL06pohiQXpG4hxJey6UxTpflMUyCLksxCllVdMP3xWoI9O9amppjSijjqzxyNpFX7uso/XQYWnSi3OkCWD/q3VK6CRhrj9jjLlVLE3MQwLvx9Wi67wfx/VV9qa7BGtlMQftJcsyxmxjafLiMJUg01C9qyXu/9Mhy6+7eWbTYcMvPP2cNqYXeU0SbawFwQiNagTKXYL1IJiCbO+aJcacA1OqVYu7Mwoir61CWtZB25P2XFRWXiSdspha9C6LUZHXKIl1ZA2c+1DHk7A06cW50kRoHu5T5nM3xpirYWliHjL2vh/vTXcJbrIsY4wxxpj7jtYH4bPVkbVVjDEvDveT1rzZWlvlSNpzucmybouHoY6HsDTpxaWkiTHGtMTSxBhjjDHGGGOMMcZ0xtKkFy8iTbx58+bNmzdv3rx58+bNmzdv3rx58+bNmzdv3h7mzSNNjDH3Fo80McYYY4wxxhhjbp9HHnnkBc9+9rN/d95vbodHHnnkp5/73OeyOLtpgEea9MLTcxlj7jWWJsYYY4wxxhhjzO1jadILS5NeWJr0wtLEGHOvsTQxxhhjjDHGGGNuH0uTXlia9MLSpBeWJsaYe42liTHGGGOMMcYYc/tYmvTC0qQXlia9sDQxxtxrLE2MMcYYY4wxxpjbx9KkF5YmvbA06YWliTHmXmNpYowxxhhjjDHG3D6WJr2wNOmFpUkvLE2MMfcaSxNjjDHGGGOMMeb2sTTphaVJLyxNenENafKoMcZbLf++bH7RGGNukoPS5LaeX6+cd1yQa+a9l9uMgfPI+exG17geRq55fV4z7710iAGI4yafq2u85hjj5fLOhtBexLr3PazirtRV8KX9nPredW6j/nftGrmr3Pd2/h1LHV8iv/AQ8weXc37T9/TDAtccbXz0muM4nrVHjzMXwtKkF5YmvbA06cWlpAlf6p4xxiCPvD1rjPHofECA175xjPG9y0Y+Xb5UG2PuODukCc+bp48xfmPy/HqtfMCF+fCl7K+4wpeqa+a9l9uOQeW/4y2VP0NxvdOOuHif/IbwPvnMe97xcpN82Bjj15fr89JfnmPeL5lfvCEUw1feYgzwhmOMnx5jvPMV2vkobzfG+NUxxkffcpvs4YvHGD87xnjzHc+JCur6K2OMj7kDdYUPXc7N3x1jvHR+8SHgQ5bzdZP1f9sxxi+PMT52jPFS+UVzMWjnXxpj/LUbPLc3zReMMX5mjPHHGzznO/A2Y4xfHGP89THGb8kvmovwV5Y2fveD99VbjzGet/xQ7i68N947LE16YWnSC0uTXlxCmrzK0rGoDsbHLr+efaPlw9PPLds75AOXfeqcpCPoR5f/P3fJ1xhjzmJDmvCc+cHw/OJDt55fnx+eX3S4nwPl/PgY49uKzu7HjDG+Z4zxpBM7xda4Zt6R26rfHu66NHn7pdOba/T70vvkq+bE5sXg2nzOcm2+fH5x+cL83Ve6PpX3B1y5A0l1/PYxxiuk124qhi2+ZIzxrWOM35lfuAUsTfrylmOM7xxjfOAdiffS3Eb9LU0uB6Pp/s3yLP5d6TVLk7sB5/BfjzG+Y4zxe0587gpLk/OhE/d/X85HNQrvVGnCSJN/tPyg5LfnF831sTTphaVJLyxNenEJafLlSwcO/1bQ+UinYxYh/J99vEYa8REb+RljzG42pMmXhedNlYZn0wuWZ9U5b1xrUuE+0Ll+d1ma0K4/trxPvknYH0fv3NWOiZtiS5rcB9akSQc0yuSjmlyvlibXhdGbHzzG+PoxxquvxL033aWI5b3GDZR3V7A0uRyWJpYmEUuT87mWNAGO/Y8ebXI7WJr0wtKkF5YmvThXmsyESEYihH+FRpnEfcCXGjo3tvI0xphNVqTJXiGiDuqPDB/W+VLFF2BNPUjH1GeOMT6hmI6QchiBR1kazcKxmoYw51Xt4wO98o/ThZHuCcuoGGLIUxvmfIC82Fdt1fFMl0L+lM+okcwp9ROkeXzI/41zgoWcB3V4WtEeFVvSJMaQ8+M1ymLLbQPEk+um/D6vyC+yR5polEm89oAyvuUGRpvQ7nzpV/34FfRWu8f665zO6lex5/gcF+cgxqX0dNa/29LpzLX5HkvaKPaUVzwu78v1jukUK+cqC8OcD5BXvu+0Vcdz/6ktuP9yW6iOdFT9UFHHKgZBW79/yB8xl9NAziO2x2tPjokwRRjn4M2KtFXeTy3yJp1i5fNjbivgyx7TG6k+f7IoD2bShPYgFu73eFxsp0/cUWfyoA48U2axVjDK8eOW2DmOTsc1abInrixNiO1zV9ITA2n4/J1fe4ulbXJ9OIY4Pn5pc0YV/doY45uTDNmTjnOYr9e8jzh0jbxOEadYK29NmtCu7xfaaa0MID5kTLzuZh3G8drgPSmLXPJi2pjqfoU9sSkPPtfomuZzwqxTkOdFlCYc+3dW8oc9cYiYlvZ505X2gdieTJ36p4r0uk6pYy5X12luW6ButD95V+0vjtRPvMHyLP7J5Vn8Xsv9pzJo5yhNiPMzduSfY3ndlbQZjn3f5VjakmdwbssIv77fm561S6gL7wW0JdfXmjSJeaseOU1G1zLPKtL+iTHGpxfHk468uW75TMWPB6o2It1fDfX70+m+4Bz+hTHG88cYPzzGeO/lHFb5qT6USV48o/M9xjUapUmM//VW6k/e77Pk/Ukbaf/skifX9FrdK7bK4RzH9o/H/ffLZ5IoWmlfRITa989siNhYPun/aGrDP7Kcj/+wnI+/uJwPRqyqjlGasJ825v6v2iHXh/wfWd53f2tKa66MpUkvLE16YWnSi3OlSSVDKiRXkCF8gAONUKmm7Vp7zRhjdrMiTSoZUiG5EkdR8Gzi2Ccv+3leadoktjidF6NZ8nopPA8lCJRXjKPKP27kT+coccX9eaRHzpvnL1Pk5PxyTKD24TWmT+T1qoyt+tGZnOun/Yo/tl3OX2lje+TyZkIE1qRJjCHWkTVDlJb6kSaO9BD5tZgfU2lV+Yk90uRLV9KsvSY433QurW1rSNrQ7lw3ud1z2aSngzefU351O+uciuw9XnF9coiLkRaKT3GpjWLMnBM67RQ3edGRGkdBaF/MP+bBuhzcf4o1xhlHeuS8OR902Ob8qri0FgmvcS3puspl0BGsdFVeOQbBfjq3SB/bLuevtFvtsXYNUmfu25wvSGA8ZZL3uyxtrVi1EWec6ov2IsaqvfKUYJU0Ic5vWo6Lcoe0jJLJ+X520UGG2CGNrkeuYf7P+aiEUQQ5pvh1Pvhl7ddNpMlaXLGTStKE9kW0cq3E8/2u6brQmiJ5P+3D+oOMKIzCgQ5o4iZP2o/8f76Id2+6LHnivk8JdYjXQo4VZuXRKbd2Hijrp5b2+f6lXfl/bleBpKO9iCOm59y9UkjHtcE0lWp/XRuKSfFT/mzUxyy2z0m/sJYE4fpWe62tkaL0sX3jNfLn0rVOesTAVhw5bcwzt4/Qmi5b7al0f74Qn4wk4jr9/eFc0/5MU1i1/x9L18+R+kW+MFwL2mL+kiafurSz7ndtuS6QY+FZwP//5o6RCxxL5z/pGbGq++afFaNg9qSP9w1Si2uG15WWdP9wIk1i3j9woB5Ih/8yxvi05X0ktxkd6nSWK2/tJ5Y8SgRZQvvzeowhpkVm6vqL55CO+Fgf4mKEQtVWsVxJk7+xxJ+vD35wlO9zjkES5Lb6W6ljn2v6ny9tQgxc03rOIeTytZSZlfO3QzmU8a+W++/3hnohKjgvtL3i177cvsRYjRDRmiK5DWN65Iuus3g+4siQPNKEY3hOVqNH8muaoovPJ9Q1x2iuiKVJLyxNemFp0otzpcleuaGpuDR6hA+1vEHlqbnEXhljjDGrrEgTTc21tV6Jpp6KI1IkIzieDmV18s9Gr6xNX5XFRtxH/nHRb74UaD/PTzozQTIki48q70wlhWbxzgTELD1U0iS2aRyxMFs0Xnnk9qhiz6zFzBe1eCztKAmkjnd10Oc2JC0dHxxPh37MTx38VX5iS5oo/zw1l9gj/SppkLdZ+aC653ZndANfiKPMUP05p/yKTxAneWxNJXbk+BgXHfmKgbjosCGPV1v2bU3PVUkF7SP/zwrHcf9pP+eF+4u2kxjgWtwSMhnFHGXFbLotiZQsKWbpoYqB9HSw0E7xF84SD3nR+Fl7aNqtqlyhsjh/uQMDJDCUt/KhMym2NfevxFOWG3R2UEYWJKoP4iW2fyVNGNFB28Z9Vb6UL1GV85X4iPvVRrRp7hwTSsP50K/IKYdfcJMf9Y9ygbieXcSlOkSJIOFAOyJO1L6USecRZUYJckSaKC2/xo71Jd9YX6XjV8Jr6WBNmlAH5IXqrDxoh1cMecTylEcsb9bxTbv+u5Qf9f6i5TzkNqnSg0QKskHpq338qp0O8RjTTJrEsiQPYmwxX0kQ2otrgmfS7P0RYnrEidpX8f1EEBDE8W834oj3D2m5xl4/XGMSHlUdc94xfcz7qDSp0lM/OtsRSuq4jzFILJCnhEguL8PxW9Nz0c7IAl0zioOO6XhMldfeWHQsbf+Hw7Uh2ZGnCNtK/1VjjJdZ9hEvwoDrQmnpfGa0A21Mp3aUJuT9I0s96CDlnJCeUSnUA/Exq4ekidqM64LjOUb7KY9rg2uJfP/p8vkkig5iqKbckkhhhJCuxVlaoddpK0YqqAzlFafikjQhTqSH5BPHIQyyZCHvLCmok2ROlCyURxvEfcqX8/Xbln0Vs3IYrZLLkQzRvupY9mkKrZlcidcbHbOkpw15NqsNJUAYHajrTWn3Ts+FjPm/Ux4QBUnMJ4sUc0NYmvTC0qQXlia9OEea8MFtTXxEclr9LYmSmU3dZYwxh5hIE55BlWSoqNJKRlRrocROerEmFSqxoX1ZHigWnp057qoTvco7UtVN+/mCn6fUkqTIca3Vr5ImM5Exi0d55HJje8ymqZqVNduf5Uf+W9AWfDFXvWYSZHb8LL2gbmtTcM1kToQvo5zHta16DxYqIwuPKjbJjVwfpeW6mU3/BEeOn8UFEgvK5xxpkvMnFuQI9Y5yBFRulc9Mmii/LFvYn6coAgmWLCCOShPJhCxfZvEojyxTlJ57n+mVKiQEZm0ggVHljRwh7zxKQ/EjOMhzrb0kLGLeWZpIduQO/EqCAB1EWaaAptLK8TLlWJ7yKzIrR23A+YjSZJaeuLJMkXDIdYNKkFT7gFiiNMl/x7rRDjzzjqTT/jVpkkdLxLx/35JHtU/QsU95eb+Y1Z12reQIZVVTaVUyhLK5NuKoEtBUUto3kyZRHMxik2iQBMntNSOmz7/6z8Ii/y2IIwuPWVrajV/e88yP989ae2a5UUkQII9KmiAaeHbmUSW5/Wf5xvplGRKRfKjSSZrQoR3bOcb8B0LMEhZVLLMyxOzYWdsrfRYYdDQTG9euRMhaWgmLKE1m6SuZkpE0oc3iKAuVxf2cR7VU8oL0TGOVp5ni2mK0Rcx/S5pUogUog1FEtC3PCY6TNPl7Rfz/ZImfKaNURiVCoBIVCA7e3/KoEk1PFfdlsggRVTnE+o+Xz1DsI0buR97XVIam68rti8T590v942LrWXQI8kHc0v8jQXZUmszSayquWSyMaN3zvDQXwtKkF5YmvbA06YWliTHmXnNlaVJ1WFfCY00qVHlV+0Cx8OzMb6TVMdW+yNbrmUtIk6o9I5XMyHlEGMkxEwtQ5Qez44gvCwHSUr+YNkuPKg1U+UE+PjM7TuyRJueiMujwzmUwikX1VawzMTITIuLo8TGu+AUdslA5R5rk/IlT0kQjWUR1TLUvsvV65hLSRHXIYkRUQkV5SFJEGHWxJk10bBY0IgqM3NaSJnmR8NkxmT3ShOcC/88CBOjUr8qfxSaZwWiIfB5mKK84ciZSrWmiuLKEiHHptUpCiGq0x0wckHclTbivokiASppspVM9qnirfSKLkLXyctrM7PVY9/xaRSVNNNKEKZ7ydRaZSZO12L4hxSYJkvOYsZZedZGwQD4QRxQSEOPgNf3NtZtFxVEuIU2UnvbP10VkrX6V2MisCQ1JkzzKY5a3YsnlzdLn17O8mLGVPkoPnmuVGBHVmibs4/3pD6ZYJT6oR35NSJrkNovSJB+b1xFZ46g0keyg/llWVMximUkTRAhtxdSpuVzEBen1mgRLHMGylyPlAPX4hWWaNO5F2iuKhxmVNNGID66TKF5mzCSIyNIEqtEjMzmCqP2/iv3mylia9MLSpBeWJr1YkyZ8iGLBPoaEauNv9ut1SxNjTGtuQZpILMRRKGtSocqr2geK5RLSZC0mwZdHfonG8/+rwzoTl5AmVR2q9LN9YiY/RCVNFAP7qRPrmcSN/TFPdcSr057jo9DQ33vzi3FtiYR8nNgjTS410mSvNNmKtcoHjhxPR0z+OxLFAq91lSZrokNw//FrVjo4uP8YRcA1kyXAWl45BtVBHf6ZSpBU+8SWNKkkTGQmQIizEhNrx/Blb0976fivXZ7VnM9chsrnOqNtq3ua6WnicZwvrWnCc5LFoHnu5GdiJNYzSxDI0mRvXNeWJuRdSY9z0kEVb7VPVDKh2hfLy+Ihvq525TzGdmU/7Vody3VHhzIddVx3jPzgPMSRHlwbWtOEa4NFjXn252dSJU2IDQGxN7Y1CVKxlj5KE2TDnjiiNKG9s4DYIrbn30/teao0of21ponan2dSbH8dy/NqrX6VqBCXkiYxFq7lI7FU+a2xlZ64JS4QfmuiI0sTyY1ZPdj/YJIXXFqacG1xzbDwuK4t2jKOBNkjTbLsmDGLpcpH+3j+rrWVZAZxak0Trul/sTy3+QywFpfEyN5yBO+rPCeq1wTty8iy/3FpX0Zn0b78P0sTymY0e/5MkTlFmlRTdPE84fM5I9limZImpPVi8DeIpUkvLE16YWnSizVpwpdwvkiyX1uWHF7TxBjTmok0gUusaVJ1WN8VaaK1Nqr6Uw6iRBLg6csXZzpALzXSpKpDlX62T5wjTXgP+pr044D4IwHVhfrxBU/11tRc+pv8tP7InvxiXFvShDxve02TSnZYmrwo1THVPqF1MSqZQDl0UKhzkvuPzlQ6tHXdWZq86PRcdIiovZ4R2otr4Rxpwuuky/ez7unc3kBHGR166qDlHq5GkUCs5xFpsjeuNeFwrjTJa4qQho4nzncsb5aOcnJcVbzVPlEJkiPlCdVvq13zdFJ0vqqTneuOe4U21Ain/MvlfG3sWQiecjRqY09saxKkYi19JU0UBx3kszgUc5YXa3AMna2cJ9qTdbRie54jTQQdpHRMq6M5LtSuY6nfP5jUj2fx2kiVS0uTU2Kp8ltjK/0lpMlWPTQVU+ZS0oT0jMjgmuEY1s/i8zHXEdf30ZEm15QmtN//tNJWeVQJ044hIbhvdE2vjYKRNDlazpo0IU/WnOF16sRoSz5z076MTKlGmlxTmpDuX4ZjOKf8XY2QsTS5JSxNemFp0gtLk16sSZM97JUbdDDxpZFOCz6cAR2KW9JkS8YYY8wqK9JkT6czVIuNr8mIuyBNtD/LDyGh8rj0+iWn56rqUKWf7RPnSJO14zJx+i3aj06v2ciTPWxJE0BMaMqqzJ7jiYsvt2vbGmuyw9LkRamOqfbF/bkzX0iovFdqr0tOzzUTHZUgqfaJDtJE7RUXJIdzpudaK38v5PH4Jf84+iOnOUWazNJn1oTDudKEfVqsXhKWDru/VHRkP3VHOqjirfaJSpocKU/E+lWjSSq0+HlccB6q6bkylPf+S73iKJE1abI3tjUJUrGWvpImxFEJiUiMeSutYDoq2vN9ivY8d3qujNqfesfRMXuOXePS0iTu28vRY7fSX0KazNJvcSlpggjgenm/dI2fOj3XNaUJ+7KU2APHv+9SXiU2YrpqCq41NM0WkoX3VOoTF1nnRwvcS7zfxfO0Nj3XNaUJxCm6eK7OpuCyNLklLE16YWnSC0uTXpwrTSRD6ECII1AyGpES5cpMuPDhbW0UijHG7GZFmkgAzDrvhUak7JERs9fWpEKVvtoHPB9nwqE6ptpXjZyJrJVxCWkCtCn5VFOjxREwSl/lEdPPOtuhkiagGCohUaGOeiRFtX7J0fz2SI+Z2OMcrY1CuRRrsiNKE/2t+ldpt+p65Pg1aZJf6yZNFE+VB6gM2ja/fglpAkgG2rpa06QaAXOONNGx15ImnNNZuj3ShP2zheBnC7sfZSuftdezNJntm7EmHKrXJE1yes5HlibE8XVhZAGdjVU8e9NBFVO1T1TShH2Up1Ema+VF4mLtW+lje2SRsUeaiLxAfCVNqnRrrEmQirX0+TUtqL4njtni66Bff6vdaM+ZZFmTJjnmKAByPhU5xvz3US4lTeCcWLK8iOS2h7X0vMYzQQu5b6XNr1X79nIJaVIJCnFUmgACplqAHXLb5ljELKbZ4u5HUB5r64XsSSOyZFH9dWx8HQkS26uSJiChUZWf2/BUaRKn6OJzSjU1F8zWOjFXxtKkF5YmvbA06cW50gQkRPiXD34Z3oR4PYuVavTJ2n5jjDnMijQBCRGeX7mzH3h+0VmbBYJkRCUJqmmv1qRCJTaqfbAmNKpjqn1VfJG1MtSJf640qfZBFDpRSMzSw5Y0mR07208MzEvPNFuxLuznSyFTsBBjbgN11u/Nb5Y+omnAcof/bP+liQIix5ilySyt2m3tHMGR45WWjqlc/yxYukmTSkpE1qQJozY4NkuAo9JE+7KoIB86FqhflCCz9LAlTSQucluKa0oTjXLJ7ZWlicriunmXEEdOJ+jQoROIe1qjU9hH2+URK7AmRUDSJpejkSB8Jo6CZC0uOv9iXBIO1UgX4uJ6iqNKZoJCsXBtkI+kwbOWemnkWn7+700nqvKrfSJLk6PlRWblxHbVdEhr0kSLvmtNE45n7QSuDaYhimQZMpMms/3kTTkxtiw6tlB6jbiIddHoD9YpoE1mecc4VEeljbJDaVnrILbHmjSRIIn5SEDkOCRYYl1ieVlkZDExy7eqX8UlpcksPWXwTFuLRcdy3cYRAbP44miSXBbpue8VmxaGz2lp+/+4PK+iIFnLm89R1CNPBSWuLU1YTJ122rumCSj/eAxUx+VYxCwm0rPg+scV9wzfU2gr8ubvf7WU9XtTjHuESCwnXx+xHPJFKnAOWN+QeyKXzfU7kyY6Nq5pAhIaeX8lSKp9kWr9EiAtU3Jxrf/gcv/mqbmAGLlu46LxnJ+/vHyGmF2b5kwsTXphadILS5NeXEKa8GZJZwTH84WRNxg+IPHmyhcK9s9GjUi48OWG9BxLWvbR2WeMMWexIU0kCLaeX3lEhGSEnl/8wonj+EUd+yp5IFnBl3TSSgpXYqPaB2tCozom79NIkRhz3PjCA4r1ycs+juPXZbOF4OMx1I8OHtWvkhOx3UlP+3IMX2zYl0eFVHmILWkiwcB5RProvCiGXE/tm5Wl855HTZCfFoPfk98srowkAItKc860rkwVw6WZiQzI0iTWP59T9m3FOjv+B4rjFRdtQLsgN7l+uUZJm2WK2lDXZpZXM6mQO/qJ8RxpopEiMea48StI6iix8snLPq4VOkJmC5uDjqETNtYxxwCqB3mRntE9sa2z0DlHmkjE5NExIgqA3NYzGZKPUd2fsrO94vHaT0cQccb1RxRDzpu2Y1+WFpIQzOdOWjrrn7CURYdPlimCshUr5RCf1mPRe1CUJltxVcJB9wpTLnKt0T6cU+KK6yIoFsrkmcXxpOVZpRFScU2TuPB93GgL1XdvOqjERbVPZGkCKk/PiLXyIrSrFoP/lDHGay/tqram/Dz6gzaMafkFdbUQvNJ+zpKWa4OpbKgX50Cd3zM5QmxahD2Wp3hjes5vlccMpad9WCD9PZd91EXXSJYbe+KIablH+TzCZyudG4kYIUHzqSFf1oypFoKXCOG9kPuQdiNe7hldp1G+KG/a/3VC+1PvfxYEAjEjMHIc1I99e9qUsrjnVWe9F9GmlQRRmVma5FiIm2ubNmVfzicSj1Uc7xYWkZ9Na6b0PAOJV+k1ygQkUjgnn7a8PyC2kKrsYyq8KE0kOMib9EfqcQlpApqeK5bP+jlaqDwLEKXnswOfR+Pi6hIexK7XadvvWfbxf10jVSwxjyxNtJ/r52+MMV53iZW6si/KFJ7LxMhaLa+3XNNMP0Z5LBCfZUpEo0PWykFAZEGi/CRD+ExKXTU916eHvP72cp3QvlmOaIouyuJzNZ/vaLfvXtowjxpR/krLM1yxMJrlkeU9i+skro+jUSQ822YjSaoF4jVl19px5kwsTXphadILS5NeXEKaAB+2ovCIG52I6ojLcBy/2o3pyYM3KGOMOZsNaQJ6fqkjOj+/+CCdiTKCKQZjZxDHVB3gdB5KCkQRk8XGbB8Q6znSJMqealM6ylEHtF5jUdbHTKbngln9ZsKDMlhsMpbBcXkdFZjlAVvSBOi4JG7yj9NZzWJ4UlEOqLN+Vt7R/GZxRWZ5Vu10aY5IEyBWFgLOsdIJl4+v2Ht8jIv7L3aO0mGVR5RwbUoIkF+clqqSCtU+IL5zpIn+Vqx5UzrK0ULweo2Fa7n/qum5gDp+f1HHHINQW8cyOI51VLIYOUeaqM0QyXkUDGQBIjhurzQhrRaCj+31J3dOzyU0KkYjbfQszOt20E4fWLQFafm1q2SHNjrMq7pH6PCKYoEyWKMFoUp+eSqutbhyXelYI68nLvVT+plA4BjSKRZkCx1hnGs6+SRNJHbIm8/51IFOwixk9qZT2VmQVPtEJU20cDjlSV7NysvQrnvXQyGtFoJXWjrl/1RYK0adbaSlI5J2iM83zkGMZSZNQLFx7a7Fdqo0YS0RrhF1flfxwSyODyrKI+1nFGnzOjBKq4Xgc3tqXZXY8Uzc7FesCJ/XD9dElCZq/3hds3FNV/WrYq7qV0FHM52/PI/iQvNHpYleIxaJT8XCr+C3Ypkdy3mujqUje296OvpVR6VjPQ2eV1w/eSou8qZDPedNPdY6pC8lTUivheBVPn//6WJ6LuAcfudybxPnnyjqg2yQbFR9kBYxzioWHV9JE71W5f0/FG1Au8R7gI3PxHREb33mUjlck7EcREMWMxplImgfRn/wXskzne88WgheeSFN/sxkei6gfCRWLp+1hvI1QUcuclPnI44KAa5RziPvgfE1CRVGnlVTc2k0Cu8J1EltFkVMLstcCEuTXlia9MLSpBeXkiYRPqTxBYU3nyOccowxxqyyQ5pE9j6/sowAjuP4+4Ta49rQ3rfddnvO+xEunR9cI89rce45XTs+ShN9Cb7P99/e59eprLX1JUBKr01PdSmoQ+6AuiTkHTtW1uCL5ynnjjrsLUMciQtIX4n9TDUVitB0XVk8CTrb6RDkV8F0VG+ly1OHnYriqgQLVJJlxt52PXrdnXptRPbGdip7r5EjcVDvPc+ZU9pzb1o40v5H6ndtzollb9sL0nP+t8qi4/to+yM5kPxHjrkUxEs75s7zc9jbVqewt62I4Zx67S1ni1Pb91ptKPlRSZv4OkLVi8DfMJYmvbA06YWlSS+uIU2MMaYNB6XJXippYoy5GSppYvqiKbp8vu4Pa6M/QDKEkS/8Yn8r3aWkyVZcR6SJMcaYu4um9crTfQlG1TBFWzUKxVwZS5NeWJr0wtKkF5Ymxph7jaWJMfcOS5O7B9PgMLVgNR2UuXvwi3etfcJoEt2H/Jpd01sxnRLTnO1Jl6f/ORXiYg0MymNtnll5VQeaMcaYuw2jXZhOjenBECas71KNhtK6KkyjWI1CMVfG0qQXlia9sDTphaWJMeZeY2lizL3D0uTuofVCYke2udswxVG1wHteZ4N0LCi9le5SqLy4xs01yzPGGNMDOn1Zb4Xn/79YPntUnzlY7P15XrPk9rA06YWlSS8sTXphaWKMuddcSZoYY4wx5jfXoNCaS7P3273pLsVNl2eMMcaYHVia9MLSpBeWJr2wNDHG3GssTYwxxhhjjDHGmNvH0qQXlia9sDTpxYtIE2/evHnz5s2bN2/evHnz5s2bN2/evHnz5s2bt4d580gTY8y9xSNNjDHGGGPMfebBgwe/8PznP9+LWjfhwYMH//kFL3jBy+X95nZ45JFH/tODBw9+Z95vbgePNOmFR5r0wiNNeuHpuYwx9xpLE2OMMcYYc5+xNOmFpUkvLE16YWnSC0uTXlia9MLSxBhzr7E0McYYY4wx9xlLk15YmvTC0qQXlia9sDTphaVJLyxNjDH3GksTY4wxxhhzn7E06YWlSS8sTXphadILS5NeWJr0wtLEGHOvsTQxxhhjjDH3GUuTXlia9MLSpBeWJr2wNOmFpUkvLE2MMfcaSxNjjDHGGHOfsTTphaVJLyxNemFp0gtLk15YmvTC0sQYc6+xNDHGGGOMMfcZS5NeWJr0wtKkF5YmvbA06YWlSS/OkSavvGwzXnaM8ajl3xlbr89Q3lv7jDEPORvShGfG2nbK8+kU9pbV4TlXxVDtq1h7zzAmc9evl9fcUYetz1Jb6N6bPePMf4VzcZc6rzivxJzPK19o8767Rpc63LVr4lrMrjVzx7A06YWlSS8sTXphadILS5NeWJr04lRpwgfsbxtj/NwY443yi+F18vzy/OLCRyyv8+9RdOw7bOwzxjzkrEgTnl0vWJ4bs43nV3XsJeGZ9RtjjI/cUdaHL2nfMb9wg8QYFG+1L6M0X7GSxhjB9fLry/XyEvnFO8AbjjF+Zozx7WOMV8gvLvBZ6ZvHGD8+xni1/OJOPmxpp3f2fTXl7cYYvzrG+OgxxkvmF5vyxWOMnx1jvHk4rx86xvi1McZXjjFeKqW/K1AHzsXfveU6cE38yhjjY+7QNXEtPmRpiz/ntrjbWJr0wtKkF5YmvbA06YWlSS8sTXpxqjSBNelBZyRChdeRJ9UvqOmMnEmXLSpBUu0zxjzk7JAmzxpjvPsY422L7ZTn01EeFmnymDHG94wxnrSS5q7xKmOMH1ve514+v3hlbrPsm+CtxhjffYevF0uT82D0zY8u7XduJ8d9kSZvOcb4rjHGB9xRkQjU4TvHGB94wrngmvh3yzXxivnFg1ia/CaWJvcES5NeWJr0wtKkF5YmvbA06YWlSS/OkSZ09OmX2BleQ4h870SM0Nnz3GXj/0epBEm1zxjzkLNDmtDpfJtfah4WaXIfuU1xcZtl32UQFfza/RvGGK+aX7wglibnYWny4tLkWnAdfvAY4+vHGK9+A+WdiqXJdbA0uSdYmvTC0qQXlia9sDTphaVJLyxNenGONFkTH4gU9j9xIjI0EiULF74Q0QHw+WOMz1x+aVpRCZJqnzHmIedC0oRnEyNPHr38zbOJZ9QnhH2Zvc+zLE3ozOEY8n6tlHZLmtD59fiV49cgXjqTFS8jQyoqQVLty+Q2rPbRRk8rYied6vX2xejFnA//r/LJxPaizm+cE4S8+Zf0/J/3Nq6fxxajlaprqWrb3E65Dvwie1aHI2WTD+2aX6McjabKsVTH7K3D2yyfCWJbkU6v7akf5PTVvq08gPU+OMekIeYvW67Vbyqkia4bXWe5zY5wrjTRtfl5oX65vaGSJmonHRPvh9ee5HNO3Yn1/ZdYuTbeZFIGEBudtEr7J4u0tN27Le33Q2OM95hc33vLzdKE6+apG+2R2VuWOJKea/TjlnS8HzCKpJImfJmN57Xa9xY76kZ5xPbxS/t/yXINcS3OpMneckinelOXLHRzPhH2kyfXYD5W18RPL9fE45ZrosofARSvr2pUzkyacN7eenn+xePY/35jjM8dY3ziGON1ivgja3VZ42g5ub5/qqgvaagTX77Jn9ieEOodpQlxcm6pfxUz187s/JlbxtKkF5YmvbA06YWlSS8sTXphadKLc6QJVFNs8YGcTkhek1jJckSjVOLUXpIebBqhMpveqxIk1T5jzEPOhaSJxMaTw3pNccsSQxKhep7lsqq8+YV1lfeaNCEfrdESy3zmjs6NI/FWgqTal6EjNo+o0b61dqXDNK89Q0d0jCvnw/9zG+a4OEb5xrTkHTuLSEeHInX81iVv1tngfU1tpo12o3M0Etv2+0LbzsqhDion5v1OoQ5fWrxela201DN32iqPHIdGsMS1RKgDse2tA+/Hsa3IR6998o76xbw+Kl0vR/KgE5H0zxljfOOSntjfNKWjzt+/vE5arodZ2r2cI02oJ8eqvXWdflbRIVpJE45n7YvYTtRL7RXTnlv3GGsso6o3sRJXrlceTaJO/HhuiefNQjx0es/KzZ0ikiZPmVw371K0a4Tj6azPZX1HUdbR9FqnJKYl3dcV0iTLn7iPun1L0W7vmupGRz7lURbikPS07daIFkmGtXJ4VlPv2L7UJY4KqWQFIo33nXwN/nyI64tCO2mLr4PWS+E1rmmuL7VnHplSxcH9yHOC4/5oavefWvKK+X5OsS4LdWEaSj13Yl3Ic+s6m5Xz0jlxkB1VfV8ppEMu/fJy3fC8ITbWlFGeeaTJFy73VhXv2mvmlrE06YWlSS8sTXphadILS5NeWJr04lxpUokKjSLhNQmULD6ybJFcyemq/Gf7q33GmIecC0sTnjFICKWv8uB5RidozncmPGLedJjnvHk26k1zlkdVJs9S/ao+p49Ux8JMhFT7q32ZNWmS25WRE9rPewXpOIY60enJvjgqJOaT25COR9owjiqQGGA/v5IWqkdcrF4d9eRNhxHl6n1qa4qs2esqJ3byx3LyNUYdch6zvDPKN7Y78dPxSQy5bejspzyln5UjkTKrQ26rXD/lpfJmAqaSJuSBQFjLQzLhPcPxEhl5cflKPMzS7uVUaUJ709kajyMdkivHCFXskia0E+IkthMxcc4ZUaDjSTur+9p0PcRKpzD5vW44XnnSSau2U9osNZQ2iws6n6v08bU95YLEAu3x2aFdqSed/FUZYlaWZEee8ov0z15JHxdxV/kxLeeaET+kzTJjTZpUdaMDPtZNUuG9Q/so3dbi8pIMuRxGvKl8xADPA/KOAiLXIcsKxRUFT4xLnfu07Wx6rtlrVd5QxSExk4VOzpe6KS2iIeaLgKC8uP8Nxhg/meqSieVIeKyVU6WHLEBA0oRzxAgm5GN8r8/HKP3HpmuCeJjWkPeCWKZpgqVJLyxNemFp0gtLk15YmvTC0qQX50qTapotOgCjEEFmxL8rkcK/cVoSUeUPlSCp9hljHnJ2SBOeMUyhkTd+pa4vOxIbPItiXurEj2Jj7XlGeTkP5R076kWWJPnvWToxEyKRrXhzXJUgqfZl1qRJLiO2a54yS2XtySem3xOvyuWa0KgNddRXec+EgiC/PMUUSIRUciZ30pMHgiPLja2yhYRCzFf7mP6FcxzFB20TR6bM6lDlO6vD2muz+q1Jk7U8kA/57wjyIY/s0GicPLJC05Tl874HiQc+lzCqgl/SVxvX4U+EeCoJApVMmaWXNKGTNkuPLEkY1XFq3XNegvZnRAPXkq5NXUd5Wh+JgxzrmjSZiRbK+IxULkgsZDFAekZbcD3MpqWS7Nhb1lp6yqKtNWJmT9osHGbSZK1ur1H8HetKRzrPkrw/IsnACIVcDnKEfPNoFQmLKCEqWVFNRQaaJkptUwkMQRxMQVVdX1m+QI5DscYRGDCTLrNYkBzUJY/EyHXJVLIFZnJkVt9K0EiC5LqJLE0o898WZSpv8vktYb9pgqVJLyxNemFp0gtLk15YmvTC0qQX50qTaoSI1jPhNaBDMMqMmQipmKWtBEm1zxjzkLNDmvDcqLYoQiQ2qsXaGc0R087YkiZV3vmYmRyZxcBzOUudvdykNMl1j3HndSeqY6p9Ob3qobyjGImoLhIJ6qiv8t4rLjJr0qQqRx39p0gT6pulBGWRH/Unj1gmZW3lCWvSJIoOsfZaVb8qfdyXOx+jDFGdq3pU0kTiIY5eOZcoTba2KE2QGDk+oE55VAqsSZOqnbJQkYA4WnfFEyXAKRyVJpV82KKSDRBFQiVNjpa1lT5KEtp6LW0lEqp6VPtElCGKjXsiC4cj0qRaA0TSJB9fHVPtk5hgBMtah9ZMVKyxR5rwvsX/q2m8kCC0ze9LdYv1jq9JfjCl1lpdMmvlMLojlzNjTZrkkSMiSxOopuGq0plGWJr0wtKkF5YmvbA06YWlSS8sTXqxJk34oM4vrfMvr9kfiVNt8RpfyKLkkFjRvixRInwhYqg/ZX11mGfe0sQYcxI7pMnaKAyxJjZmwmL2PMsSYi3vPdJEEoC8KSP/kp39VXyZvfFWgqTal6nERrUPVKdLSJMsKNbyhiwv8t+RveKCtmURYxbrnbXtWjmVVNhbNuTRI1GMxP8rzzySA3IdmIJIdegmTaq/gXNfjUCh3lrXgzqx0DT35dZzYQ1JkzwyJCLxEGUPfxMHo0ryvcz+KFjgqDRRXJw3Oj5PrXuMXVN97aG6jij7qDSZiY6KmVjYymvr9UxMnwUCxDgkTWZpLy1NyCP/DbHzv4pDVLID1o6vjqn2ca51fXMN/vAirfNzbY804Qv/X1gWUo/XVx5loTj+QZjCMUsJ1Y37i/sxjxhjP/djPI4YtabJWl0ilIMYOVKOyPWlfXJ9T5Em1TGIFK6f31/EYRpgadILS5NeWJr0wtKkF5YmvbA06cWaNJHsYL+2OIJERFmhkSHsExIpGo2S1zNRmi8InX7IGT6w0xngkSbGmJO5BWnC8wzxQPr8PLvGSBPK08gJOk3yNGN5qrHMVryWJnOZsSUucts+femsq9p2rZxKKmyVHYl5cx0gDlQO5055q63idF3UgQ7utTp0lCZRWtA+1OMTVo4HrvuvD5233FN52qq9nCNNaNevKe5j3cvxfJ8rTf7/7L0H2H3NWZc7F6AUqRaEQ1EhkAAWukpJ0HOUGorSQ0tCAtI7Ki0JPRASUFroPYDhiIXeA6lYQIQQCN9HNFICx3NQkO657ov10+d7eGbWWru98+73d1/Xuv7/d+1ZM8/MmrX23nPvmSX21j3GvkWakJ6BXQ0MP27pR8wyoM9ZmtyXc0gTzbqQdCDeTyye41FRyQ4gj2OliWD5tn8VhEN+0PtImhDHFy11Uf/iOqB/aSbTodKE6/FbimtR12M1CFfVJS/ZJSgHaUIcW8vhmC8M9eU5Ub36VgIkUkmTvEQX7zf8Tb5emmtSLE3mwtJkLixN5sLSZC4sTebC0mQuRtJkK3EJLQb/shABPdeE9XyjQBEcS/nvHvZBzDtSCZJqnzHmjnMD0kQPX3+PlC4LEDHKOx8zkiZbZpNUxHhj+Srb0qQvM9bEhdo2PowcckwwKqeSCmtlR+IMEp4RE8WIltnib95HczmUXdVh5uW5gPPMQKMGLSUCHlmUn+HYhy/H5lkpWzlGmsR6rHEqaSKI4WHL8fy6vSdEYqy9NBGWHSPOh6SYDl2ea6vIgJ5YWMtr7fVMTJ8FAty0NCE+PWQ+XhMfWByb6ckO8jyVNBHqg9QrzrAYSRM9MP29U77HLM8V65aFylbI46FL/r3ZIqTZswQX9Op7quW5IC7RxT2FPHIaMxGWJnNhaTIXliZzYWkyF5Ymc2FpMhenkCZ82JcIeXJnNgqDguTPrzx5PUoQHV8dZ2lijDmKC0sT7mc9gZEFiBjlnV+rpAkQA/fK/ND0NbbEe9ulSfUa7aXlqjISHcc+04Q65GeJiEtLE1Aej0h5KZ9HLX0z5jeqw+zShL/5TKJZJgy47oU86CejGRc9DpEm0Hswe4+90kSvMcieX4tsiUNpqmdy0N5q81jPLB/2ShOgXPpeVS5f+Dg27u+JBeJakyKSF1vLGqXnNc6VHvy+lvbU0oS/uSZoT10TudwePdkRxcKppInQQ9XVBj1pMpIbW6QJcfQeBB8f7L61rSp6D4jf+npkJFlOKU3icdwLvTTX5FiazIWlyVxYmsyFpclcWJrMhaXJXJxCmoCW3OILbhYckJf6imJjJE0kQnKekjBxGbBqnzHmjjORNJFYyBJCeVfHaABfkqQXR28/91SW7GKpn6qOh8RbSYhqX6ZKU+2DQ6UJg2m5nrENc/pcrgRCLHckM0biYiQcqrYdlVNJhVHZFXquCe/T+RjyZ+1/3sdj+Wt1IN4ZpYnifuYixu63bOzP0I4sb5PbBLI04XgGGBEVOW3mUGnSEx7E+U3LtRzzq9JrX1W2ZnwgWbjmJSaqdGvSROVk4UGsMd+RNNGD6HMeI2kiUbD1mJ5Y2CJNYllxwHlvWaTnGuNaklzQg+FzWg30cz2eSpqorlwTSBpdE/l+2SNLBnGsNFG7ZBECp5AmPRmS41AeXBvvFK6lnE4Qyzcs16NiifGxpFVkTYpQTiU2yJPYYznE2pMmEiB7nmnSe52yWZKLe+Mzlnt9XJqLOD50uYbzNWpuAEuTubA0mQtLk7mwNJkLS5O5sDSZi1NJEwmLnrTggzUfunm9kiNanutTli9xDGbyjBO+kFbSRDNQ2PiwTv7VPmPMHWeDNOGekdcP1/b+S9qelIDe8lz8cl/3M/LS/SxLCOXNawxovdsyiME9kP1R6sSYGbTWfu53ehg85b7Gklb7qrhFjFfHjeKtYqj2ZSpRUe0D1acarK+O0b7chtSjkinKn9dYgoQZOgxaMTBEHvGZHiOZAWo/8iGPWE6vbeND1LeUU0kF7e+VndHMkKo/SOJw/vSweKEyRnWYTZoA9X166Bdxo72yNCLd41trr7lct1qeKwoFSQLyiDM7Kg6VJtpHPI9e4qHNkUDsy3VXOZw7Pn9RrxgnD3Zn6VNdD7lOkii57j3pEomxMihMue8a2j22kcp5TKgTz8rpPQg+HqO84/0OAdArVzM5RE8sKJ+RNFGaGAdlPa1TVk7P9UTbV+klDNhPuxAng/ycT87dKaUJedBXeMh4dU2QdjSY1JMHkg2HShOgbPrbE1pr91/6oJbnyktmaVkqjuFc6DrW/k9d8qB/8Qyd6sHoUMUh6UG7a2aJ6sf5jHnrHHN8FA2K4/NTXSiLumSZIihHD4OvyslCY099e1JEaHYK9eb+Eq95SRj6SG8mSvWauQEsTebC0mQuLE3mwtJkLixN5sLSZC5OJU2isOD/FZo1wgBgFhr8rQfBa+MhjjwDhTyzNAEGM3OZ1T5jzB1mgzTJg0dx01Jae6QJ9zMN1isfHtLK/Wy0PBfPFOEeFmNicDd/4WJAU4IiLsdFuTykO5ZLGpZjyjFHevE+cCknSxOoYqj2RUayI7erpMZeacI+3mtiXao2hF575We7jGQG8CMABmt1fFzya9S2xy7PBSqb/HPZGWLRwHuUQiChUrU3x+lB8L06zChN+PEE8fEsFmQPg5c8nDmKtLgMGcuHSirFvhPlShQUoxkYcKg00f7e81hyvYFBWWJXXNxTNPuE6yHmw2BrjKdX95yuRy/W/OwS0ulB8EqHqHlQZ3kuYBBbg/zkGZexIj+ez7FWLvTEAnmsSRNQWRJRo7L2pqdfRpFBuvdaRCb955TSREKG/OM1wfVNrFlQRCrJANT1WGlCHjyQntjifaYSOfSJH1vOe3xQPHnoQfA6HglD/9qyPJfgukUgcC/ULA7y/uyUN2VXz4Ih7SdsrEtG5XA+t5SjB8ErLaLmLQ5Yngt47opmN8XZMBIqPI8lL80VZUtvBo25IJYmc2FpMheWJnNhaTIXliZzYWkyF6eSJqeCLwF8iTPGmJMwkCbn5pj7WW8poa1wPINLezgm3pumEil72pC22pr2EG5z24rbVAcJi0quQBYsEfoC9byJe0bFqx9wLXM9SJqo/uSz1sePrfuW60j96NAyKviSt1buqdhb1tb0pKH9TtkuES35VckVyILlpqC9jukftCN9/dDj19D1uCX/Y+qytZxz11dihJkrcWkuMyGWJnNhaTIXliZzYWkyF5Ymc2FpMhezSRNjjDkpNyhNzOWopIm5u4xmpMBImlwDlTQxd5vezAoxizQxc8FsO+4lXn7rFmBpMheWJnNhaTIXliZzYWkyF5Ymc2FpYoy5aixN7gSWJiaih7uzbAxLValP8KtsLSUVlxW7NixNTEbPT+GaYHk+9QuuCS0llh92b+4m9Ik3XZbT07JtvWexmImwNJkLS5O5sDSZC0uTubA0mQtLk7mwNDHGXDWWJncCSxOTYVmc6kHwejbINfcTSxNTkZ+fEq+J6rkZ5m6CYPvppZ/8eGvtda78fnk1WJrMhaXJXFiazIWlyVxYmsyFpclcWJoYY64aSxNj7jR6hsYhz/kx5hrRczB0Tfj90ZgrwNJkLixN5sLSZC4sTebC0mQuLE3mwtLEGHPVWJoYY4wxxphrxtJkLixN5sLSZC4sTebC0mQuLE3m4j7SxJs3b968efPmzZs3b968efPmzZs3b968efPm7S5vnmlijLlaPNPEGGOMMcYYY4wxxsyMZ5rMhZfnMsZcNZYmxhhjjDHGGGOMMWZmLE3mwtLEGHPVWJoYY4wxxhhjjDHGmJmxNJkLSxNjzFVjaWKMMcYYY4wxxhhjZsbSZC4sTYwxV42liTHGGGOMMcYYY4yZGUuTubA0McZcNZYmxhhjjDHGGGOMMWZmLE3mwtLEGHPVWJoYY4wxxhhjjDHGmJmxNJmLU0qTl2yt3S/vnBhiJWZjzBXTkSavsNwDRhtp9tK7D/b2Xzu5De9qO5jr49X9GWIT+R5wDLQ37Z7v59fIn5+onnep3QX1fam88wBua9vN0v+II99nT3VuMrf1XJ2LP7W0xwvlF66QV1v61Azn/tBYDj3O3Bfa8aWvvB3/0hXU8RR14B7H+X7h/MLkvPwduS+fAs4xnyNuXXtZmszFKaTJ67XWntla4/hfW/6enbdb4v3o/IIx5roopAlfjL93uQeMtu874Iv5R7XW/rC19uCN+68Z1flrw4fa2A7HfNA15iZ529ba77fWPvY2fhC/IB+5tNPXHfml9HVba09b7h18znyjK79/fERotxfJL14Q2v2pS7v/emvtja+83cXbtNZ+t7X28Uf027/WWvux1tofLG3312/RveLDl/p/fWvtT+YXLwht+PzW2t8L5+GtW2u/3Vr7h2e4NlTvv3/Eeb8mPqy19juttXe+8vZ4q9bab7XW/vEN93cglt9srX3CzlgOPc7cl7dsrf231tonttZeLL94JVDH32itfdItruPfba39f621T26tvXh+cQN/pbX2A62132ut/T+ttbc4w/vJufgHSx/95kUamTF/p7X23Nba/9la+xP5xZmxNJmLY6UJg48MLHLs+x/wC+JXXDoyeeRfEp0TSxNj7ggdacJg3pcu25OWgTg2/q/9pNl7X+rJkd7+a+aBrbUfba094galCe8xP3egADNjYtve1Ad3YnjODcRgabKNN2+t/Uhr7ZFHtBP34O9a7hsf0Fp7jQvdO84NM3Ce3Vr7/tbay6bX3uwE7XYstPt3LoP+H9hae80rafctHCtNYtsxwDFb29H3fnrpe386v7j0vx9arrdD6n8qvmz5gUuM0dLkcpxCmtDXfmrpa392sutAWJoYcSlpwi/f//0ycM81csnr4q5LE2YefNtyr+cHKq91xP3tXNA/fry19oOttVdK/eNvtta+u7X2IQfU/S7C+f7W5UcgL5NfnBlLk7k4VpocKz2OPf5Q7oI00cAwX9xoZ2PuJIU0yXB9/PxyLzr2zaknR3r77xp3QZpw7+WD+HecoD/NjKXJ9UkT+i4Dh/TdV84v3hAMKPxsRy7cZkbSZAZifC+XX7xyjpUmtN3PDKTETbMmTWZAs0w4B1GOWJpcDkuTy3Oo/Dj0OHNfLE1uB8dIE9r+3yxCgu9ol2z7rYykidkPP/y597bNNrE0mYtjpAnLcL3r8utslufi/3yYjfKDLx6fs/xqm//H17YcD7yZ6Ffh5MUvF0dw/MND+mq5sJ404VhiWCtD8ItH0ldrdpMHW64PjNolsqfuxEK9eRMk3dcsdaykSWwj0nOsMVfJCaXJluumJ0d6+yso52Hhun/9nCCwNS33Eu5Vipl7BOmpB7+CjelURwaG870p58P/q3yqtDCSJrEuVX5C+fIvx3APZaZjzk/vMS9Y3mPebTmukidb27GC+nEsMTO75quXOvLr+NyfVM6XDOqY241f/T52kF5szZsv1/R5vd/ltiMN0kdtQZ1y27JsD237qyttuyWmEeRJ3dUfY/45hnfvxKD6EEOvPpEYs/pCTt+TJhxL+3J95WMEM3J1DjKca47NdRi1Q4b6Mvi3pb7EEvvuVy2/jqfvZmlC3R665MsX1fsP8hXqb/GX9nkfdf7sJYacJ+f4XVprv9Jae1bnHMe4qO8bdOLiS2ju+9zrOH96bS0m0qksPkf2zgPp4jl4UKdev7zU6z1SvXI8mS11znm8aadOFb34opjcE4PanP/T5msDsMr7izf0NcpgcDe29Uhkkvf7LXmT/g2LvLM0iW33gCJ9hMF+2u6XlrZ7z9B2uvargRrK4NpXG1MvBrfi+fusDTFU9YvtMYpP5LIja/lDPn5r7BGuH/rf30j5E2uUJsqbfjLKO8bdS1tJk1wX/r+lPKWjX/J5pyf1iSuf+4j6TD4XHPe+S30+d1myMJ8HnkfS629vMihTjKQJ7fKhoXyWt8lp6Gsci/xiAPAhy7XFr31jPPwSWHWhXfnld66LzgN14T7J/7mXrA2AKe8vGrQTbRSlCW3zmYNYRMybtK+9kvZ9QhwsdZjbC3ryg+MZKOZ9estxsQ7HxMWv2ukn+ZzRtzgHfD7K8fSOAc4j9eCeTkyk/YwiTtIprndYfligvFQ2g8m5XqOyqet7h7qyZGKOPUuTGN/rFOX1YEkg2p/rP8f/V5d7zPOW64J6cl3ENIJnV3xwiPlvD2Sx6veFoX5V2p404Xjipo9Vx4lYzqe01v5y0Y4R6vBBoQ6jgWvyfq9QB+7/VSxZmpDu05e/R/GwLBdtzwA64oTrl7bnhyH0K/Lls28+z+RPv4rniHrRXrwPUN6WGFS/f7rUj/6V66cY71li5H1LMVJ2LjdC/txnR/lDzoPYP22JnfJzvhGeAdNrJ/pcbifBead9uCbeafnBRk4DsQ6P2hDPlnw5H/zAjv5K/rcCS5O5OEaaaFA+bnqmCV+Q9JwTfiHIFl9fO14gNfQaawPzOv/vzUzhS6zSqMwqfSVNeJ10OYYRio/8IsqLQdg4MLKlXcSeuj8u5Ikk6eUJsY1ivuRhzNVxImnCdcPge75uPi+9OffkSG9/JpaT72F5gG5vWsrnAwivK6024mJAUvn18mLANucTy44yRGk/JuzrSRPSbmlfpSUP8mLpDv4fn5siJC9ifciXwb1ILDvWhV9GjgYUgA+llKF7L/+vyoBYDs8J6NWRdAxc08aqX6zD2xd15Rjkwda8c9vpgy/7eT3nk9uCwfUcl+odz38vpvxBO8M1+fTQtvG9UmX0YoiDoPzoINZH7Z/rI2LMfMBW/qSP07oracL7MlPmKaMaiBWKiS/SMY2O514kYUE76FkexEM7qI9VZYzqm6elI2FIS75a/qqXL/VFXOR8H7/yZUbt9HGhnfjyxzrSj+n073cMab8y1CeeYz3ThLwUVz5fefaGyuV+9D1LWj0zJMeUyyQm7o8qSxu/Es3l6Hkkua1i2q8oysj1Ih7aLbcvrzGYnOucY9HAP3Wivrk8vlz2rsMqvvhME8WgfhljiLNSFAPXiWJgiYTqS7zgGAb0yZO+T/vx/ycUx9HWtBNlx7Q5DhHz3hL3p3bajmds9Nruy8P5j23HYALXJ/Hm47n2md3Ftf8XQhszYL0nhlH9NKNkFJ/yQ0xQdp7Nwf7/spJ/PJ5BmF7suV9H1B58xsgzYSRNenlXs0Ri3LGffH4avKukSS6Ptot1z+UhhZ8S7q26Z9PGWQAJliHj3lK9Xr0W68NsT7UBv0r+M+FYSY8cI+37r5f+xsOU8/1e9KSJ9lMm79O8ZxIL5cfZJE8M12fsawzkxbogVTg+5vUFrbUXDWUiBf7H0id5v+I8fMPKL+U55j932unPhTglTRh44z04Xx9IxnzviXnHuP9JijunjXGwBF6MQ2mzNGGQ718s/QDBlvs36DgG+KlDbnd+YFLV4T914mJQlbgYiORezw8JYrnspw/EtED//4nl3LxESC8YsP/vi1DgPOY4+QEOm+LSfspBpFAOyxJxvkgXr1/a6duXuvCjo3gtUS6Soqqr8lU6pEkvPj4H9Ab8gbz0rAyuL65/+hP9XsILeaDrR1t8XSBLOKe8/ozl/BP/Dy/tHPsNcf/i8jrlqg+Tls+ROW2WJrTd/72ca354kPuKYLAc4UA5MSbqVA1GI0s431Udclwx71yHLH4lTfgxA9+9uG/H9uTHANWMKwbiuY/EtHqmCfc1YmXAPgtLlvPifh4lKjH8v8tnaWLI5zTnQ3pECH0v1o+lWONsEu4hVYx/azkvyA7KRQDEa4z9v7Ahf6X9r4PYETv5PiZYcpT+k9PQTv9saacoGLkmeO/kHMVrgjohAeP1pOePUAfGS+mP/J/7TR7XIF/udeTLMeSrZ9RkMUdsLNHFZ4pXGbznTYWlyVwcI02AG161vFYlExjA50shskT0jh+9VuUNSs8Wf9ms9FGQVNJEEifPPhnRi6UnTar0e9qlOl77eCMXVZ5Q5cu/qnuuhzG3nhNIE70eBQLXDYPyXDdRhPTkSG9/JMYRf5GvY6N8WEubJYKkCfEyaK168KVD+7lnMMgJ1I/BQ/bFWRcSFqRnUF/5cM9hICK24VZpMmrfnBZiDAwoEF9+/xDkPVqeS68TN+0gy+QAAOETSURBVL98E712jCgNv8JWGtqBL8/5uBiHButjHaMIkdjI50p5xzygl7ekQi/v3HZVPiCRkmVNL33vtV5MFVWZ/PpdbasP45TTW56r91pPWig9fSH+gljpoyCppInqlmefZHrl0z5ZmlRpaQe+eNIO8Qu24s+CpMpDD2jnS51iHeXLl5GYL7FKaOR6REbShD6IdFGelM8XpCw8GBxQ+dV+zhdfZHPd8sPnY7kMHCPfdG3F1xicV0wMNGk/90L6I/Wg/gyocM+LD6UnpmrJLYmUKIR6aaEnTXQMdeZXuSq3enC8Bv5znWhnBtbXlt2K8cV0oxiIOUqRGAMiBiFX3YcFeWtZK5VJW3Ms9Yuip0oLiiNLIaXvxR2X4sptp/ND2zFYncvMxNjioD+D8nulCTEwuK8Y+PU+MWRREevHgIXqJxEQBQhpR8tzVdJEx/Tyjw+N1/GKXW2lJbdy7BmVRX/OA1+SGKO8oziIddV+2pv3P85FFAojaUJ5iJN4HiiPQaooHqo8lDa2UURl/KM00EOcyA3ewxQ79fmPy3ng17MqVyKDwWoNZJ1Dmqh82jMKkiqt0veW56peY3BLsoW81P8kTTgPvNcicHlf78WuvGknftmv643ZMbR1XIpL0oS8GbDUL5U5bwze06ei3CDv/5D2EzczQTn3UbIoLXGQ3ygOqKQJA4bkm2efRHSc6kB/IS7qzmA6oijLjZ9c4uK+prgQErTzNy6/4I/xqF9J4nCOGASOzxlTedSrGnSVNCFOBrB13umjih+BwLnnWpAI4bMJv2Cnb+2VJgyushQWdeVzdKwr+TCrRLFKmhAHsx10fqkXA/q0I23X63eIDvKMcoVjaSfaVGJBMfWW5+L1f1e8LpHC9w7lr7TUL878Udo8o6SSJtSV/pjTRijn3y4x8blQ/R5hwrHEFPtnlR4kUqLYUFrqwGcz1UFp8zJckiacJ8pX32ZWAnkgw7JoEZRVLc+lsrLsWJMmikHyjRi4txKDZIXKJDY+B6l+eqh7FiCk7y3PVUkTpSd/PpPm/PND4yVNiJ0ZfjF2rh9i53tI1X57pQlLY+X0KofnyOqzKTEw+5U6q2zy5H7GNcXsplie8o37NaMk5isQ8bwPZ6EyLZYmc3EuacIgPF8w80wHLVklescDf/NBMi+B0xMClVAA8mEKeXyoc5YmOjbnucaoTOpE3aij2NouW+veKwdIk/f34h2dB2NuNSeQJj3hoePigHwvbW9/pJeGa5Jfg3APWyuHtJXskDTJg/lKrw/bkUrWSFjkfGJ6SY6t0qTaB3HgvZrtUsWQ6eUhemXTLvwyhnasZo3oddqND7QRRAj9Iu5XOVkWxPj0gVZiI8oB6JV5iryB/PmCnN93KlkBVf6ikh4wOibCoAgD0nnJHy1fpX3kV4kRiPWJeUQ5EOtTyQUgH37NFq+/LE10bBYOFaNysjRBTFQzV3I7gOqbl3HJMiSWwy+uIpSX90tC5Hhp+yxTMiNpkqUGcSEiVL7KYsCgkiaKK4oIUD5ZaMRy868oe6/FmGJeIFERxcboHCCEYv7Ua680qeQLxDrH2SAMtFV14peF1OlVU5yRGN8WKaF8qxjWZpeIXt7EkgUJ5TH4U7U1Uoh6xy/GvbzJh18Vc89SP45x50FstZ3kRkWM91hpUsWQ04IG6/Msjqp+xLdXmozyJx7eIzRbRcdnSRBj/4uD9us9zwQkGLbmXUkMiG0gIVGlVXnIiDxgXaWvZoaAluDK77tALBIRUfhUsmVNhHAeNJNjLe0h0oRBrLi8kiBWZlMQaxzYqsSIqPKPxzDYqmMkTdZmlwhJiTxLhPiZUcL1oOVuJE0Y1M7LFf3L5TMLS/co9l7elUzppSVvJFyMA7I04fgoMXrouJxOgoM6sNSbypEcyTNQlJ4+zOcMxh2QILS78pUYIX76Z6wb+bIvz0wRkibflAaJo/DIx2a5sVeaKH2eJUJ6ZvIxNiLJJGlCfBIcSvvPl7x5z6muY2DwnPefPGtEy4apndakCeVVSzBVAqYSKcDrzDSN9YMsTXQ8A83cG3ogFVTOFjlC+f9XUQcGzJHNtLHKq0QKkMejlzrE+4ekCTHH73akrwRH5NTSBCGRY3hySi95UeXNDxCpXxSze6WJ8q9EBrHw+VMzVZQH0iTLFNJX4iOyV5pIVuSl5bSUl9qjkiAQZUr8btCTIDlf0ct/WixN5uJc0kSD8yz5NLoB944fkcUBcCx5VEKiIkoT/X9PDKInIRRPT1qstUuPXHeVU8VeSZNqH/TiNebWcwJpwiB49RrXjYSDXuvJjN5+obyy7KhYS1uVJWkSBQZUdRCV9Kj25fSSGVXaSlJsad8oCap8e4ykSWzHSoz0ZARwLAKjGqyvpEm1D5RPrKPERlU/ZELOp9oHe/PucYg02RNThaQLM21y3pGRNOlRSRPFVQmKiihN6Mv8fyQPInukidIyI2Nr/TI9aUKb5XgraVLtgxhvfk2MpEncJ2JZaptKmlB2JUZEJVR6ImL0msrJMY2OqTiFNIl1lpSISKhICmjgv3qYOTM3uHb3ShNiyGIkksXEKIYKxZWFhMrNoqCikiYxbr5Qj46HXtxb4zilNMlLZAEzpWI76fgoLkbslSZr+Wehko+PIBWIfSRNdHwWNHqtehB8bMOYd6880ksc6LVKgvTKi69FoaI84iyYLVSyJUsPxRzFSCSnz3+LWPe90qTHIdKEGSW8f7NGftzP4Nu/Ws6bXpM0YQbD2q+EdTztxLM9cjtlJE3yrA/yqaQJM0qIO+6r0vOZk79Hy2plojThsyf/z0tgVWTZIogpSxPtkxjJcUWhwntTPp6ykHzUCUnEDCmdc361zmepXrySJnHmChBTJTziMYdIE+2LM1VG5GeaCPLZIk000yTOUqlYkyY9sjRRXNQvi5oeUZrwOZT/V8tlZagTn8WQILH+xMDSXrRNfq0iSxMdv7Y0WCQ/00SQVyU4IqeWJsiLLDSZRcXnJ9JzH6jExYg90oT4RvlXQkXSJM9wAWZ2EPuppIlkBfeGUV9HgvC5KZe7li8z8Ub5CurM0l2WJuYgRtKEGxkzNPhwoI2/2S960oP9enYHG//nC0BMo3TV8REuBN64KR+jrLXNK2myddBfooT8GDDrHbfWBnulydZ2EVvqXomQqnzt43jy4bkBcWN/zseYW8+R0oTrhoH1tevmVNKkiiGzlrYSJNU+GOVVyYlqn9ASXXukydb2Pac0yfmLNcFQiRDyzFJA+4i5qiP7Y/pRuVlGnDJvwfsOvxzkgyjvO3x45jxslSZ7Y6ogbz3ThLL5lRF9OJ/DLdKkqg/5VtKEuPID0CskA/iVlpal23Ic7JEm1E/PNBm1Q6RX3zizoxIhsXzt1z6Op52rc8mX35uSJjmtqMqoRESVPg8u9srpHQN84eUc8CUxn4NjpQmxVLJDx2igvzfwD8dKk1EMscz89wjlzbVBX+N5MLGvsZ++lmUFbc2gbm7rOEMjxp2Pr+jFvTWfm5ImUQCMOFSa9PLP6fPfkZ7EiGQJE+lJjCpG9iEH1vrUodKkmglC2+qZJtyzGfjiXt97fxIqJy7RpbaS2FB9qGMlO3Ie55QmXHfkyy/rGfykv1PnuDwY9KQJA2GIDd4fqGM+N+xncPgYaRKly4g90kT71uKO0iQev4bkhwZB6Z9xhkiPQ6RJ3BeJeUlSxNkjfLaQGIn/51yPnmcCNyVN2DeSHeJYacJ1oWeacP0zA4PrhPf42M5bpQntyn2QQXiuM+7b9DHe64gpxpVnf/WQNEEE8AMD+tjasZSD2OD+yH0j93vqy/JllTShDvyQQnVAuKkO3IuUN/fo6viK2yhN8vEjDpEm5M/Sozn/SpBU+8SppQl14R5B3+GaYCk5xjbjA9t1LO83fJ/ie0/sXxxL/8r56pkmvXwjkibM7KG86bE0mYuRNJHQYL+2PKi+Jj340K8Hk7PlmSCj4/mbX6FoMA1ZwQdCBhx6M01yfD22SpO1NtgrTcRau+ypu2afqA3ZuAlyrJYfU56kIS31jiKoEkLGXAUnkiZr183aslm9/ULlVDFk1tJWgqTaB6O8KjlR7RPHSJOt7QtVvj3OKU3yM0bIjw/wOTb284GROjLInuuX6zgqtydNTpE3eZGe+Hnf4SH3vFfxvqPzGj9Ar0kTjhnFtDaIBLzvMRBGTHqvjEt2jaQJcfCFXgP+qg+/hs8zZxTzVvlxKWkiaAcGuWI75Bkxqq8GCKv6auBLs080O4Zj+dUhx0bRoJgOPZd3TZqQnsF7nQNmFdMGnAPa29Kkj/Kmr31L0c/U12IfYMCW/pXbWrN6LE1q7po04f7HQ2D5XpX7FPdJ9e9TSBPBwKQG17lnjx4ED5yTuESX/o7PdVF9erLjEtKEwSYGBOnHnEdmg/L5krZjAHbrTBPy0WyQ0bnRANhs0mQtbs4h7ZyPX2NGaRL/5nxwLPdGCQzudUgKPlewbBcDl71zdO3SRDBAS3oN6OYHva9JE8rjeVpcz1yn/J+ZR1yTPGcnzzS5lDShT9I3e/0+zjDiGGZJc91SB2bfxTrkmSaWJv+ba5ImgmW0iJM+zTURHwSvY+lftHWvf1XXSpVvXrILLE3MUYykyRZG0iPCa+9fSIfR8Xo4eXzAOeQlqoBjR5Iic1PLc2V67bK37nxZJL020pBvZGtMxlwVJ5Im1WsVPTnS2y/2lLOWthIk1T4Y5VXJiWqfOEaaVOX3qPLtcU5pwvF8iNNAtu69jyjaOM8+GTEqtydNTpU3dWFN4fja3uW59sa0BfJ8+BI7+caZGD1pMqpPb3mumPcIyYBzL8+VIc3DlvL4ohvT6cHs8eHukJfnAvJhAFq/hlbffWQ6NsbUm00y4q5JE2QEbcqXyXwOTrU8F7H0hMU1SBPyHgkJgTigb7HUQsx7tDzX1rx7cW/Nx9KkH/tNSJNe3JlTShNBDA9d2iM/ND4Tl+ji3km5MZZYnyqfS0gTPaT9fVN77F2ei0ErxAYxbBUbM0mTLSJkT1pxyeW5tkoTziEPjWcGCX0TMaLnmOj5JvzNZxsJlJynuCvSRHDc+yzxMwNJx65JEz1cnbGceD57y3MdIk32LM9FOXuW4AI9XJ7vRPFc95bnsjT531yjNBGk41jOn2aP0EZbjh2hfGkb8uWh8DEfSxNzFJeSJiI/CL13PP/vDfBX4gBy3hHekNhElCYg+ZHzXEPHxRkdMIq/IsY+OraqO//nZslxbLGemVEbGXOVHClNgGWYuG6q54dkenKktz8yKiffw0ZpeS2XdQlpkl/Lf0OWJkC8yJaqLhVVvj1G0gRUdvVME7Vj9UwTvc69l3zX7r2jcjJrYoO+GmVEfGj6Gr28ib8nOvZKE+g9yP1Ycr49aRLrkwVEJU1AeecZHJCvvyhNyOOQB8HrWEHMa9JE5AfEj46tpAnH03c1y2TUd3NZeziXNFFa+mX1TBMJpEs+0ySmzULhFNIEkB3UuXqeiITNlueJHCpNYC0GzveWGCpGeUdo6568qKQJIBr0TI6cNwMUceCqF/eo3Ah5jaQJ+fYG/A+RJtrXe+ZIrh//3yNNQAP6Vf68xnmf9Zkm+VkhPfZKk9FrmS1xROnB+xHtlKUG0oJ8qmeaSGjkZ5rEJb+AtjpEmjDQJNGRj9srTWBUl8weaQL8Mpl7bvVMk3w97JEmoLy3PKdklDbHAVl+7H0Q/BZpAsxKJa7qmSa8xnUQHxLPPt6HeWYH9w7lRfwsyfXpS5/VUl29PnVKaaK/1/Jg9ifvCdUzTbSsmNKeWpqI/ID4kTQZiZAsTSDnHcn1gyhN9jwIHgnyXzY+d0QipJIsWZrAKO+qDueUJlvz3CpNSM/f1K965khVvz3SBBAdCPwqf17jHnLqZ5ogH+KxW6WJiA+I556e/z6U3gPi/SB4cxTnkCbVPpEH7Xtp+X9PHPQEh0RI3l+VkaWJymNfnjUyIucjJDdi/FUcYqs0yXVXWp6NwrF8iGHL+YtevJTD0htsvWONuZWcQJr0hAPH8SGT60YD8r20vf0RpdFMDaH44sB/L79eXXrpud4PkSaVhIiyhvSj49f2QdW+o/QVcWA/xwu9vHRcJRGAduPLIfdeZM/avbcnK6o69tJCJU166WPeEgq9tKpPVV89lD1Lhti2WZqoHMRAjokvSjGmzCjfU0iTKDhifTTAn/fHMjSTJEsTytOzP/IMkkw+VkhuKGaVW81gySJD5VfSRPXVM02Ulr7L8Vv6bhYfQHx8cedc5vhEdeyppEkvH6WnHWM+PRExeo02OYU00UPaj5Umvf3Kizqr7N7APxwjTXr57o2hopeevPmVM32NWGjrnrzQw+jjM01Aeef95C3BoXr24hiVG4l5RikhEZKlCQPODKjQdodKE6Wv6pcFSbUvUkmPah8oL2KXrOilhS3SRDM4cjtBT1Rwbipp0ktP3LQVfUptUKXVPgavWHIpQl2ipCDPuMRWTrsmTXQ87zXPSEtziTybROhYzoOERi+tBMfazBeOZ7BNx4+kiQTL1meaQM4/HsP7MOeGduSYvdJEIoT3qDj4Td48vJzBaj2oe6806aWPcauue+KALD8kPehnUWJk8nGiJ03ybBJBXMwqoR/F9HquCZ9JiDmKEaQE9wA+k9AmowHJU0iT/LdAKPALc/p1zEPp+ewZB3mjuOD/1OcYaTISIVlsjNKOpEkUHJImkiBxH1AGz3mgDD6vqYwsTSQ4eM97j+KeI5AEOi5KAsrhsxv9XnUZSRPJiShpJEGyuCFvnguTBcc5pIkkSM4TycP1QL86VJoobf7u05Mjvf1QSZOeBFE+xB9nofTSw5o00bFZmtBOnG/aScdSPs9ipB58N4n1yJKkNxOEPPjMQ9upLWK++bP5SJpwf4j7KecDlu9JI9l7I1iazMU5pAloeSmWjdIXci1D1UvLL074AKXXtJ8LmuORAqThy3AlRzhO4kN58QFDD16PMqSSB6rLnpkY8RguOMqkbP7Wl3bSiK3tsqfuvBYfLh83joltHdso5q19WaYYc+s5gTThutHDynkz13WjfXEAmv18ceAewGCzBsJ7+yOxHL5g6x7Gl2f2xZkjOS0D9wyaVGnh1NKEMrjvMD2eOPk1XZYp1fFVO+T25cuO2jcf38t3hGQO7UQbxbZX2Xo9t2NvlgkQo9LljbxyOQziU85aHXtiAyppcsq8cx6cVz48U6csE+IxuW1jTI8O+WlflikZ5ct66RzLNafluRh8iV86ejFofyxf9WF/rk+MWXlx/emB9FGGVOJDkoO+PZqVEdPxnks5xMV1oc8NEh+aMcG60HxRVztUy4EpLfUlLfXl16Gqb3wQPIImPmA+bnw5ifnSLhJCMW/ty9Iick5pQlxICmIgZkQa9yLVK84ygVhuHsDvvaYycky9YzTb4zGDcxAHvZSe+Gkr9d0qb1A8HMOx9LNenXsD/3CMNCEGxEEvBs0ygVEMFTHvT10GjGhD1Tnmo+W5YjoG75AVxJHlQY6b9ub6Jm72bYlbeRwqTbSfa597B+UQM4Pp3BOOkSbEhjRQ/XjPp348sJd9edaG2k9p4z2V85nLjvlznTLDi3RV/tXxYos0oZ0YhB1Jg5y34svShP16GPynhb7CeaT+MR/JGs4P1x73G84D5XFvZPCJ5R513rhGs0yRSGH9fgYLuWezpCLtkdNWSD5QXl5WC1QfYo/nQQ+2j8dIpPDeQn3o87m/ZfkRkVyJ7aH6MbOA+vFewq/EOV+Un6UJaAYM78l8NuX9hTIlYahLzI/zyL4oU/ZKEwkP8lG5LCH1o8s+LS8FPQnSkyYx789YBkaJW+cl5qO0sf4xjixCKvkhkcF5rGasQHUc9KSJ9hMXn5GZQUY/ekonLi3Dxb01Cw+ECueG53ZUM1cip5AmDJgyu4X2oI9w/6IPIiXUr2Meypu6Mn7C53rOwY8sdWUpdPWpY6QJIEe4fomHgWPa/P2W+FkCKwoSpSUmPl/Gh8Vrea7PWga76V8MZseHqGtgWbHxnqW8VD/qjAiJ10yWJiDBQptWsz1AIoRyPnupH3HRj9iXZYOW54ppGdBGoqoO3M+UN7KDfPhsrjrQZtSB+27s1+eQJtpPG9A/6VeawcF5p18dKk2Ii9ndnG/qx2c16sfSe9QvLwkGmiHC+yDp+RxGrJU0ifmTnhl23BOoI22al9I6RppIWNBOXCfc03I7xWM559xfee/hPsI1wZJ1nD/6qGQKddDD4Fk+mOW16DP0OfZlmaJ8+Ywd86VtyDd/Zic9n7/isl0SNbzfTjcDxdJkLs4lTfg/FyIftOKX8TyID+ShQf8oLEhH+ng8soHplaTL0kTHVM/3yM8GqaQJUDbps+wYQV6xntSFN2viy/lsbZc9dacOqqNEjOQNx1Xnpmqj/AwUY66CE0gT4LrpPb8iw7UkMRCXnGKws9of6ZXDh95chz1pTy1N2Me9J5adRUF1PFTt0KtLfj4I9PLtwfmV3CDPvIxVr+yqHSNIH+pBunjvlUDKg/u9cnId18RGliZwirzJQ7ErD6QFv4yrlucC2lZSQW2rfMmPD745Jp6bkcvOcCxfhmhfHas+lmef5Bji7As9CF7HIx9G9VHMtFGMOT8XpZImkGeL9OB40qkMvoAwYKTzq2OJhy+2xBvbgQHP3A6qb4xd9c3Lc/EjD/Lki5qkFF+wOP8cn4VMr134hVZuw8g5pQkQ12OLuPJzXaAnIkavkf8eaUJ6PQhe8fAAVwYh8vJcQN0YdFbf1VJjVd5CdaZdY53zc1R6A/9wjDSBKgYGzPbE0IO8GWTJefMrwXxu9CD43NbV8lw6psqbuGPevbg5/hhpAuRNfLovMRDPoJjOyaHSBFQ/+k6sX37uCxAjA7f0VdLEZbd60mNr/r3jYYs0oRwGzvn+kttvrzTRaww+5rhZZiTHxwAn54drKj5bhPL4zEO/UB7cr6prgwE3rvf43kPaXJcKiZvRLBDVJ8ZCfRgwyvWhvcgv9jcGjdSHemUI2oNZULQHy2jxvqMHwatsBqPeorM8F9DXGMRSX4vLcTEI9plFXfg1erx+90oTUN6SUMo7P49lrzTRawiTnDczAXJ8vbS0bU7bkx8MCj5v8GD43nGUXUkTvUZckoKKi2fw5LiUD+e9J1Q0wyPHFjmFNNE+2kP9msFurh0+w/B5IedB/oi5XFeEZmyvY6UJ6XjfiNccG+M2+ZfsDD4zC4Q2JZa4vBb56EHwygMJwa/k+bV8XJ5L6ZHCXCOxfnzfyoPxlTQBLZs1ejA85fBDhVwOsjfmpbR6ELzS8p5NHVhiLC7PpfTkzbWY65DvKeeQJkC+xKbPcMxy4Xsqn+uiBFHardIEiI0f1HCdqn4M2Odnvgji5Ps590bSaemtSprAKP98bo6RJsDx9BO1E8KN716c33wscfGdk+s1fjbmM1qcAaW0/DiL6z3Wge8suY17+fIelPOlLRmfzTNTeC/Uj9jyzJQbx9JkLo6VJlvgwxJv1IfCDfWQ4yk33ozPDeXtYUu7rNVdkifLH1GJmwh5743bmFvFBmmyl0tdN3vuYXvSHkMlLGiPU5Z9qfat2NqO3HsZdK7kA/DLvUpuiHPW8di81953DuGYmLa8V444tD5b+8Ix7GkTtUPV3yKqby+dxE4WPiKKiwoGj/bEfSn4UnTu87UV4siDbOdghjqfMwb1tVE7HtrW54x7C5S/N+Y9nLt+586f54sgHkbLWR3Clj4VqSQNeVSzhTO00eheXLHl4fKRrefh1P2NASva4ZTnhoe258GuU0H9OWfnyHtP3OeM4xhmjWsNRMTePsgxl6gr5Rx7jXCd0b+y9B5xqfohXOn3a/WbuQ49DulXezh3/c6dv9jbTromtvSFrf0L1vKVHEESRdk4NZYmc3EJaWLOR2/GjFiTJsZcPWeQJneZSprcRUYzNmBNmhhzU1SzPyJr0sQYY84NYoMln6rnmlySSpqck/ycFGOMMcYcDjOVeYZUXJpreixN5sLS5Haj5dGYbcJUfsGvjrQEV7WMmTF3BkuTk2Jp8kdw72WaPvde2kRtwb1Xy2SxHNJdbiMzJ/Rdlq+g77IWcey7WoIrPv/EGGNuAgQCy5NsWdbqXFxCmnDv5VkVLG2CMNny7BNjjDHGjGFmybcuszfjssPTY2kyF5Ymtx/W7aweBM+AiJ9TYu48liYnxdLkf8O9t3oQPPfe/CwRY2aCJWOqB8FveU6JMcZcAi1VlR9if0kuIU2YVcMDnrkf65kj/vxgjDHGHAfPX+EH5tM9s2QNS5O5sDS5HrSO+TFrxxtzdViamDPje6+5rbjvGmOMMcYYY8wkWJrMhaWJMeaqsTQxxhhjjDHGGGOMMTNjaTIX95Em3rx58+bNmzdv3rx58+bNmzdv3rx58+bNmzdvd3nzTBNjzNXimSbGGGOMMcYYY8zNc++9977g2c9+9p/N+83NcO+99/7yc5/73D+f95ubwTNN5sLLcxljrhpLE2OMMcYYY4wx5uaxNJkLS5O5sDSZC0sTY8xVY2lijDHGGGOMMcbcPJYmc2FpMheWJnNhaWKMuWosTYwxxhhjjDHGmJvH0mQuLE3mwtJkLixNjDFXjaWJMcYYY4wxxhhz81iazIWlyVxYmsyFpYkx5qqxNDHGGGOMMcYYY24eS5O5sDSZC0uTubA0McZcNZYmxhhjjDHGGGPMzWNpMheWJnNhaTIXp5Am90vbK+QEK5D+zVtrr9dae8n84vJ6LiNvscz894g9aY0xt5AVaTK6l5wD7nGUI85dnjk/fg+ryX391Mxa79tI1ZY6f7175ymoyp2BVy+u0bi9VD7gTPDl9ZztD5xn6nvucsx2LnHez80p+1XOa6b2IZY3W97/832B1/K9I2/cA1UX6hj/HrEn7bXxaktb38W67+VPLX3lhfILZjO0IX3ObXhiLE3mwtJkLixN5uJYacKHxF9rrXFs3tj/uM4gErx759hnttZeY0nDsd9XpMkbaUgb43m7VF7ma9KxmbdprX1na+3Hlu2JIa7MnrTGmAsykCbcL15Q3E/YdP/KX4IPhbKeEfJ+/dbaR7fW/rC19rX+8ncrebdO/+E97P5LGt5bvmc5zzld3L6/tfbSSz/51WXf26/0i69a8tWxmbdurX1Hel96zZxoYU/arRAf7fMGK/U4hI9srf3Bcu34i+xx0Ja/31r7utbaCxf73+EM5w965d40r9ta++XiGo0bMb9IPvDEfERon3OWRTm/11p7J19LU/DhrbXfba19fWvtT+QXLwjvXZ/ZWvtbS79ggP8ft9YesPF+8GWttV9prf2NI/rVX2ut/ehyr//1JS/uG2qfP5kPuCDv0lr7L8V7+4+31l5n+ez4r5drON8/4vaDrbU/s9x3nr/k9/dX7om8P3PN6tjMW7bW/uXSdryff3lr7bUH54H0/2JH+pvkrVpr/2Ppizd5fczOX22t/fDS/7h2EHujPmX6fFFr7ZeWH0e5DU+IpclcWJrMhaXJXJxKmrB9adieFOQF/5IugtDQa3wA5sM4afggyP7nttZecfnQzus5Xzb+r/2kydKkJ0NgLZ2EChsfIH82/M1Ap8hSZ5TWGHMDbJAma/cvBMcxcJ/43iW/Ryz3O3jg8iWVfVV8Zl7edhnIoX981CLJ6U/0HwY9eA97peXcMygZ+5b63Den9zAGWaI06ckQWEsnocLrT03vSx8T+luWOjntxx7RN88pTfjy+hRfOydBbfnINEh2rDThMxx9if75MvnFpdwfKcq9aSRNntVae49FKOaN94RD2mQPDHJdon1uQprwC/lnL33j5fKLCdL+zMa0MxHj/tM7XuO8M9j5ATc8QEeMP730C+Kg33PO/uLGvn+sNOG9CZHP++wHLRKfcmmfH2qtfeCZZeII2uK3l8Hoj1t+JMF9g8FVrqVfaK395dbah7XWvnh5j/+mpT147//W5fsu+/me+LJJmvRkCCCS/vMgnYQK799PW84Zbcjf/yiJBto4ip219MdAf/qppc8zSDrqQ0r7A0XaS0oT4vgPSxx/biXmmWBmBBKMfvChi+g85Bo0f4SlyZmwNJkLS5O5sDSZi1NJk0o88PenLB+8JEGEpEQ1G4QPkLxWCQfyIK+cn8gzX6r8IUqRHLuEDmnifgbFctmK9ckpreLoxWmMuRAbpAn3gDyjhOv5k8MA+DFvWtwDfr5TjrmdfPXSN6rZIEgUXotyQtAXfi5IlUyUIWxV/hClSJYmEjrMwoj7eQ/LZSvWb0tpGcAhjl6cWzinNDknEl0M2B1a92vg3NJkViRNiJvBzGvH0uQ8jMTI6LVzwr2NgXwGyl915bpmcJ4B47++9AtmwCDYt8Z7rDSRtLl0G22BunHNVDNCNFPoHyapQ33+4/Ke+peKtqe9JU14X6/yhihFsjSRzPmG1GYsz1SVTV/4ndbaP1/y0X6JGeRPFeshWJpcDuL+ySXul79Fcc+KpcmZsDSZC0uTubA0mYtzShMhQSEJotkZ1QwU0K913z+/sEOa8Ktu0lRxKY1+TZ7TEG8vNkkSyZhR2pEYMsZciAOliWBwnOu4GgDnvvHw5X71SZ0l+SjjXZdyWLaJJZ34YsuxfLHh//G4vI8P6Z+z5N9bLom8Hhbi6KXrQZmaDUFZlLmFKtbHFjGQTvExoJ/vyUoTY2AWzohYZ9JXs4EUH/+Snv/zvlKdx7W8IqRn8Ih7P0Igwzn/kk5ZW6VJfA/Ls0iUhpkq6r8xzUhWSJJIxozSSsz0xE2EPvCJS/txjqu8ScM5qN67+fUw/Sdeh5w3Bkg06zSeP72Wrx3tIw15xv7YqwMzvzj/pKPfSYh9V+ccCfUbzrX6Ta8M2JJedYi/qq7qoGuKvGjvfP/K+dB2yodfRcdyc1oxkiYcw+Cg6kK7xTSIB5avYdCUGRssx0oM1fnN5QJt9dCQf9U/+WKX2+qzO3XcwyHShD70CUusfObTckbEF+usffTpHF++BnL9aJOcJqK8Y3uSRzxPDyoGsNekSTwX/JCgatsc65sOzoX6Rp7Nk+9ze9IS4/stv+qnnm9YxFiR4+b/ijsvQ6X25Qtszpv6cl4UF4POxM1AG3G/Z4hbdapeA2JiuaR8XeT9lPlZnVgFMXPuuDdz7r9yuaa/e4M0IaY4s2QkTbR0l/o/A4sjaRLPF30qxz9qP+4buX16bVPlHVmLo4JjkE68B1d1I/YvXGaIHSJNuO/wIxv+zbNIJDOYqULbMige0yBU2P83i7gkSKKMGaWXnHnnlYFi2p7ZDLTh57bW3qJIT9zkQ/1Yvuwhy7LWyPSqHUZpuQajNHmTZRk5zt9rFfUQzL5432UAfC0tKA7amzjeaxBzzJs2eOOiDWinv7vcDymX/6uP7lkKjbLeZ1AWy3LFuN+7Ezf50Hbct/JrgGjjmlK8OmZUdjyOz045T/pZLk/tQnre1/g/n21GS+/lOBC7OY4I6WmHLemJ/+OXz0t89qWPjaSJ8uaa54fCLM239VzeeSxN5sLSZC4sTebiEtKkSnOoUNgqTci/N2OF1zieDxE5LuBNka2qT5QmvM6gAl8S1tIaY26II6VJLw3XtZ5nwbJ8muH2eemLggZgeU0baRkwJY88I0H7HrWUGY9je3DIW+m3xNFDg+j5+FzfCgZr12JlsFTxact592Jg0KCKgXKVZ1xKKqdXfOSPhOD/+fkxo7zywFxkNNNkxFZpQpx65k0WdsgIBlWInbRZmowGVqM04XUGTHkP66VlxspaHZUutiHtxwzMKE16+fH+yWBcbhPNmKEd4vnjC6leY/kwfUHVvkeH9LHf5XKBunPMc5bnknEM/W9t0FVtT74cq7J6syq2picdg5q9OiAwuKYY6Ir7t+QTy40iRGlZZiZ+2e9JE+0nH5Zz0/UTY2BwVn1CG+36RiEvPoMxKJfLZb/ql9sqSgwd/5hOW73jgYMXe6WJnj0S42UwU/0/1llpc2xcA0g6rmsNZsf20UDNVyz9iMGq3D/za5Ih+TwRW5yxMZImxEBbUCeW7iEP/v+ENCBMOn5dz7ngWs7nPuZNnPk5DyxzVNWJZyuspaVsBrRyH8/1rFDcnxrijnnEuNVOf684d9w7OHd/YYmrFzeDdb36a0YHMTG4nWcqaH+MNeaR42JAlnipD32L9LGcNbI0QYLw/SkPZmpmBTHE/s/sxUoskK+eBRL71OeHmQOUVbUReXG/YjZFbB/yZN+nddqmmrWxJY4eo5kmPbZKE57Vwvsa5zovj0W5fH7g/kHaLE2yvItkaUK/RXYwOFxdJ0o/kiZKQxs/fTnftCEzYOIMkTg7Jp7PkazJaRngJ62kyacv8i/3E2RbXraNY7SkWYzzn7TWXjSlFfyIRv26ikPEvDk36nu0QZydQrrfaq19xhI3dYzp+XFVjjtDHv+pKIvl6jSjBLldxV0904S03N+3vLalbPiQ5fzwA7HYd5EL374cyw9b1IYIlv++SDDuo7QLS9m9RDg2QvrndeJgsDdfV3vSf/ByjnidtPQt0nEvoy2yNCHvX1zy5pmVfG7h/wiUXvwmYGkyF5Ymc2FpMheXkCbs5/U4IyM+04QBgN6xmT3SROXGtCqXQZgtsUfWys4cKoaMMSfkSGnCvYEBOYkO4PrPy22RTrNSstio0sNImpAP4kPpq1irfBUHeeQ4MtXxoIF1jq/aTUhK5Fj5sqT9tBvpyGdrW0Ivhigd4myWakmsGB+DDZQZ7/UxLz24HZRXFiwRDdBTF3793Os/mT3ShDyzTFC51JP6VNKkx1rZmS0zTeIyXmpD2hgZwbG0z7HSpDp/I2lC+seHNiFGvsxmEaaHyfMrZsWjtKMHzNOODA4Sb/xlsvKLMW1JHx+ELoGR68A1pf20qa4L2oMBGO4NUfTEfBAnuS2I5VVS2iwvKmlCXaolt/akFZU0YWCRY4iPXwLHtiL/2FY6Xm2lMvZKj8ye45U2xss5YSCSeLMoOlaaVPvi8dwLiJm21/JXsQ6VIKn2AeciL6FFORr0j+klHzgXCBWVSfsgNGIeUOXdg7S95bn0Gu3Pr7VjO1OntYepx7iREbEPMaBOvhIhe6QJxLjz7IzRa2vShFgZ2FcbM9hOrAygKy+JDH6NrX6idGttUgmLvOkh7MqTZZz4hbX6v4SNREe8vvOSW6SXZKJtFW+VFiRIKmmitlE/kYjIciHmrf3EsVWGqDzqRxtX97fMHmlCfZnNQp9SWpWJSOFez0B9rlePtbIr1maakGe13FZPtvTSVyjtaHkuzvUXLG3F67Qfg/r5mJiXJAYD+NSPa6SSLIJjR8tz6XXalRke6ufIKM7VN7bWXmzZJ2lC3IgTxc1xDOpzDTFjK5chKIsltyiLusayaA/KevGUdm15LmL6zWWWZJRHeiYK7yccH8vm3qiyJUii5DhUmtAufHdB6vJ5pYqZwdyfWOLgs3KMg7ZlRl2sB+n//SB9jJvzcO9yHpSWmBGx1IdrPUoT5U0b0z7qV8y4ov8ztjW6zxpLk+mwNJkLS5O5uClpAiyzwT59CGfpGr4U9PKBNXERpQlESaI4dOyW2Hkj5IMqA0CkJcZYhx5rcRpjLsQZpEkc0I/0BEBv/0ia5AF7xcE9RW+ge+PIkCf3t7ysmNolx5CRlMjpYqx5qassN/bG0JMp5MNApR6oDr34xCiv0fJbgqXZ4iwa3h8oc9Tma+IiShO+tEVJkiWK0o6kCe9hfDGmbYiVGKuljjJrcYo1EXKKmSaVwBhJk5w+5v/Kg31CM3nyfiHZkWdgkCdL+/B6JWeq9Fl4SGBEORDTEleeBVPJml4+Sh8Fxx5pQhx5CSiQPKDtVd4h0kRl9qRCnLmh43MdlZa2Qgyt9fWM6sL1zyAqvziOG58HVZ81CXLqmSZcz5UMkZxQWvLLSxjFdLSZBgp70qS3P8agwWnJBwZ84wAkcUgoxOWgqjx6kLYnTXoxqlzav5rBImLceYAr5z2LNMmxUj7PX1L58e/80HbkBPf1vD/C8SxRgxzjuxSil/ca4uXh6/QpvcdJzkTZoTyIIc806aWnPbIgqfbBSJpI5gjikHyIdVYcWY7EMtdkBMt6aYYT7/8shcS9cvRePBIXUZpQhyhJuNajROE6XpMmWrIMgaXl7bbOMlqLFRggjstNCS0hRj3iADZ5nlKa8NwWCQkgnn+19O9XC8dIYGQ5QhkjIbIlTS9vYvmXyw8UmP1DH5M0iSJFKJ/RbBPJkZxGgiOWRdxbpEkvHQKBGRS0MSJGImRUtmakHCpNRrNLhGRHlTfSm7Eeyai19MRC3BIhSptlB2l55k9MC5qVktNXMsV0sDSZC0uTubA0mYtLSBPozbrgGL4kR3nC/6vnmcCajMjShPwlSshTAiWmHcUu6aK4WK+yl1aozKq+xpgLc6Q0gTyDhL+jvBBc+1lsQE9ijKRJXpIJcrn5b9GLYys9YZGRlMixjsrvHZOpYlC+UWCNGJUV86rESFzGKh8bIR8G06I8Ic9HdI5bkxFZmpC/BvfJUwKFvLdIE4kExcVSaqO+Dipzrf5KF8VIJD/T5FBpggzIeY+kSZ7pAVmEqMyq7XLaCMdl0TFiLX0WKhIYuQ7Kp4qrOqbal9NLNuyRJj1OIU2oYyUaRBYq+fgIy4MdK010PeeNX6KS71q8Wi7rlNIEyDdLiF6+mT3ShHK4V+VnXxBrFiGSD6wFnyVdlc8ppIni6ImRXr0io7izUJlFmuT9IBkSpQn3tpz3Fmki4nJckgm0pdpJ5dDHq8H46pkmWl4ql6+8otw4RJpUbVOVWe0D4qgkSw/SM5gd5Qm/SP8HRRxrIiJLkxgL+cXluiQmRtIkzr4hJgaV1641YJCYcrmf5NkiW7iUNMkPgu9JE0Q3Mz3jPqVHbJAeSVjFM5ImOp7+L1kRyUJF0oS48xJ3mvERZ4tEKjESyUKlJ0Mq8jJcECUJwi6LkUiWJPlvsSZN8iyRTCU6Rqylj5KEOo7SVs80YR+fb5DI8d4nyUI982smYWkyF5Ymc2FpMhcjacIHNn5Rl39hx36xRTywn9dJN5qlwZv844JAyc8igb3SBKL4iHFuiV0QG2+spO+VDeSTH3xvjLlBjpQmXNNxoF5/c43zgZlncMSN/VkWnEOaHBJHD+5vfDniHv+k8FyKS0qTLTHEfCvhkOmVBWt5aQC+OrYHdeAhkxIo1bF7pQlE8cGAgwb5t0gTQWx8idVSWlXZQLtoWa5KVkRIW8kOMbM06e0jFuQEsWQ5seX1jNLnckSWG/lvMcqnOqbaJ+ISZIdKE/oTg0EMuHC9MgBOn4mzPg6VJj3ZkdPnvyOnkCbEPVqeay3ec0kT7Vce1bGCL78MfLJkSD5PI2lCnogAricGHHkmSnx/YT/yaAZpkmWFGMUkRmm0RBdtdZukCeVXcoQ4s5joobTcPyiLgXAGj6McWcsvSxOlX+tT55YmxCEpsCWOrXCtaVYH11iOhfrskSYQxQfPyJAg2SJNBHFxr9YyalXZggFfLVGWn6fSg/yZscMgMrMF6Ne0IbMUblqaSGxwrtmfzzX77zlSmvSkS5Yk+e+IlujSzI6MpAllVUt4xWW2JDm3SpNqiS7e17k2KIvvLGtlIz10/LmlST6+R0xfyQvK/W9LuVxDo7RZmkiMcJ1w/8v9iv30qyovE7A0mQtLk7mwNJmLkTSRoJBw0CBcFAZbxAP7t0gToTxzWXCINFH5xB9nfmyJPSMBE/MXsRwLE2Mm4UzShL8ZhMpLt0guH7s8VzXgXkmTPXFkyIN0lMfgJun5ks5gaZ7lUdGTEoptizTJMSAdejHEfKtB+kwuK7KW1yHSREhmVHkfIk2ItZr5sUeaCNUrL2EFsZxKVGSUvleX2aWJ5IFEFHF80iAPIM1dlibEwQC8Bj65XhnMZUBZ/dbS5I84lzSRcKCtGZStZo+QHwM9GhjmB0mcZ8rn3G+VJly/31K8t+j9Red1JB8sTf64GBm91pMjvf2QpUl+zgkxMqhJ/NXxguMYIJU8YIYCA4KSbXqoPDN7+GxxiDThmqBP8UyJqk/pHJ9bmhDHt3bi4L621i97SH5kQXGINFGsXMdxKbE90kSojbLMELGsLcKEgeN/uvQp2pfn2vH5laXPuB/NMNNEYmPtXMclnSJ3QZrktPqb80csW8q+q9KE+9uTB/0q9xmTsDSZC0uTubA0mYuRNNnCFvGQ07Dx4Y03nwpe70mWQ6QJkCcfBCI5LqUjtlyuqI4BxWxhYsxkHClNchqu9Z4Q6HFOabInjoweGM+DzGNZqvMlpMmeGGK+1SB9JpcVWctrJE04li+KvIfl1/Q6EoD3irz01yHSBHrvYVmaKDZeq2JjIDAfA4p5qzABHdOry+zShHIZpOMY/TCEc/bIojzBMXdZmiAjaK+HpLSnXJ6rJyFy+vx35JqlCcQlujh/pIt58jrn6b2K85QFy0iaxHhGjOSDpckfFyOj13pypLcfsjQhJp6vRLy6t2nZqFzPCMcxmEhdGeDn/kG5iNKnt9bec/mOJMl8iDTppc+cW5psjSOjNuL9P9939LqkTFya7BBpAuTHsTF9JU0UFz/uqeKqjhGKeaswAT0o/n1Tm8+0PFcUG3l5ri3cBWkCcYkurnfy0lJfW8q+q9Kkl95sxNJkLixN5sLSZC4uIU3yclVrx7Dv1NKkooqj2hepXicOHq5LHVnCyxgzEUdKEz3PJA6es4/7wJbnasA5pIn+3hNHhPtXT2xUwqKiJyVGecdjaIteul4M1Jn9VZ35ohjFQi8+obyy2NBreWaHqGRFhPqfWppUVHFU+yKVNCEmBsSoL4Niub4jshgZvSZpkiWI2iu3ybmlCfv4laAGALOU6qF6Vc8oyX0QGMDvpZeEuIlnmkg25L9FliYxBiRB5BTSBGiPLBqE2upSzzRZkyZQiZHRa5ImWYTQtnukiV6jLdS3dVyVl9gqTUDxV88LyYzkw7mkCSALejHyGm2d6xUZxZ1fUzvxdxwkpr1nkyb8zb2N9tK9LbfPiLwcF7MHuEfnWCVG9jzTJO/rQcznkCbatzWOjORGJR+A9j6lNKmoBEi1L9J7nbiestxbswDpIUFBn88yYiZpAvzqn/v5mxxwromjJ01AeVfPGeE17h97nmki6VEhsVGVxWuUdcgzTSCWz3unlubScdVzTwRClftSfqZJXO4LetJjqzQBysrPFhGaJRPP8Si94taD3EdpszSJ+x5YpDcbsTSZC0uTubA0mYtzShP+ZkkA8o2v8y9/5+WyxCjPc0sTxVYJG0D8RAHEGz+xkL6qizHmhjlQmnAvYHo1A8n59Z7Y4J7EUlnffIHluUZpe3FEqF9PWOgh6FlYZHpSYpT3VmnSi0HH5/2SEbGNe/GJ3utrYoP6VctliZG4WMv7WGmi2CRscmxqV9WZ9zDiIX1VlzV6IkRyJsbRkyBKm9uklz6/pnaq9oksTdRO/OCB+BggYMufOSokGfI54twy2JAlQU9gKD31Vly9tMR1iDTJsUBP1GT5kPfHGLI0kWA55pkmvX3AYAh50VYSIb20UEkT4mfwl1jzdRnZI016EoS+RLz0/yhNeiJEZVK/LdJE0oElcbh+tVQXUM+eNNHAf5QmWQ6I3n7K5hfRvL+ofXpp4ZzSpFeujqE9q1koQsczuJjzztIllpV/Wc+MlFzWSIyMXuvJkd5+qB4Ez70NmaR7W++zQAUSgvMj0YBk0EPhI1xPtEmOSQKA/h/FAflWdaA9GGSnT6k92HcuadJLX8WRoX2rJbNET6qQ9zmlieLivfRvFvfED0sPkwdmSBATn4OruvQYSROVk5cBkwi5tDTpyQrK4L7Juc5lxDQjaTLKm+M415qForQ/VOSVpUdFT6xQFoKEsiQ6tG+rNFF6zs0zlveHOOMllp3P6U8sZfNZknIkQXJaZtP84rJs3aHSRGl5ds5LhP0M8hIH9eX/qm8vb9L8+yVuzRTRg+FJ+2IhLXHfu9zLojSJM1VievLm8yb9SrHQNz9o+ezB9bp2Pu4MliZzYWkyF5Ymc3EqacIW13LkV1eaEs4H9yw49GwQNqb48kGBD7H8n7x6QuXc0gQoV3UiHuIiPtVJZUuYqI55PUttvEluGYgxxpyBDdJk7f6V37AkBXj9UcsXFfLSvmoQ/hzSJMfBPWkUR0azKeKx1L96CHtFTzpslSYcszcG5c0xDIYwkMT9mS96pH9wSJ/LyuS8mL1CfsprJBE0QE86juVXdrxXEDt9qnf8uaUJEJuERWwjBtKoq8qWMCHWZ3XWZdZ7WG/ATfVRH6QsPY+GfVGaKC37+OFBbC8NiF9KmgAD1Zpho+tdG+3WG1iXPOA4BivVvsorPzg9p6c9OKZKXwmQmEeuA1THaJ/OLb+mVHvTRlFkZDkitIyXzhftIeHy6GWwgT7IgE/1IHhQeupNObEfRSmgcjXgH9uKuJ+27ItLUFXHi0qaKD1tkpfHikhg6PrJ1wPbI5bjGTSi7xLbY5Yy9NwQ9f8oTUhPW7Gf+xLpaT+uV10DW6QJaAmuqj56jZh0nvglLQP1Ok8anNPsE8WkfsG50MPgYz6cH/ZFURGFQo61kibaT7/jX/pG73oDCYycNsbIa8zmor/wHA72jWaZgOKmDX98WSaS4zknlBdlikQH7cS1pnPHuZb8zIImxs17e6xj77WeHOnthzzThEF1PZck39soLwuiTJ5ZwnVAnXO5Ehv0qU9dzg39Xw9DZ0mwKE0kdIjr01pr91/6lM5hrNs5pUkUHzkO9lX5RFQe7cm9hn7D+eEaoz9Q9ywhzi1NgLgkq9SvmOmgh6HH56xImBArfb93r+PejxzN8Wp5rk9vrT1guY984XLOOJdZmsRjeD/msxr3mpyv6KXdK020jBb1j7Hq/GfhkaENuEfkOCDmzetISs4BM3fYp1kmIGlCn/k3y9KJ9BlmLJB/JVMiWiaLNuFzM7O7YllRuOyVJqAZIsSX5U2v7B9ZyubzbywbgcHnOq4j7gn0C95jdJ88VJpotori4DM2baw26C0JpvTcizgPiluzTEAihb77mcu5RgByneleFqWJlugi789qrb320q/oD5zPKFMkWGjbWOadx9JkLixN5sLSZC5OJU3yh3I2PrDz5tATBhyrZa3ixj5eq7iENNFrVWx8iOPNPh6f0+Styt8YcyE2SJN8zbJx/+KLcO/aZb9mougY7gcMpmXOJU1gFEc+PsOxfCGMx/LLZaabV0tjZXpSQjIixwr5mENi6NU5Pxcll1WxNa8K+o8ES9x476iWD4NLSBPoCQEGRhj8VBqOz/HnjUGrnH+E98RYFu3HMl8MtuSluyR0lDcD+gxYSWpcUpogd4iFWKkD8pMv1OqPvRkSQL+pnofSW95sa/pKgOj4Q6QJ+zgPsVwGWKuZMJV8eFgQJwxIc//Sg+CV3+Nbaw9Kz0kR9HcJD/LozbrIdX1s0Vb5OSq946GSJlGGVMtpCaWL10DeonSg3zBIH/s/+feWGiPumD/XwGuFmLdKE73OQGgWErShHgSvcp6wnKe8PBc8NLRNXOpK5yLmw+DRB26clQI9acLgGu+ztBt5VktsCaWlT+S0xMjzO3KMDErmWDIxbq4TSTU24s4zjUhP++lcM9jMYJnqmKUJcf9oiDsuY9V7rSdHevshSxOkB+fzvZf7ve5tXLu0E4OpvZkUEKUJ7YvoqKQJkLfqobanXGYhEkNeAov8GGSMba3nrcT8zylNYGscPRAXsd7a6BPVcmWXkCZ6rYqL+wt9VXEpj/wZIW8/2Pl1PIPGehC80n5Ba+1vdZbnAtqAAWv1+WpGjMhptbzWXmmi1xgI5/pRrOT5wRsGsInjh5frJsYhyPszirzfL+UdZ6Vwr5F0Y+PzSW+2S2RrWYdIkzgTpHp2CWUjnWLclM17R25DJAHPaFHfQhLR3/hsxY8DDpUmMIqjum566flsk9MjEunvei9ROj4r0qfz0l3kjXSVbNIxH1rMsrlneX/1cl4BS5O5sDSZC0uTuThWmpwKTR+fkZljM8asMJAmp4L7A19SbppD42Dw4KbvcYfGQH059hQck9fM7xOXio2229r/tqY7F5pFkeWEqCRLj739Zm/6Q6hECgMCpypX1+s576twibY6Fer/ahMG0itpIuIyIueCmKqHFB8C+cT6zQhtuqe/VLKHevZm1olLnLtD0XJheRkxIcGSJcKx5P6/hVn61LFxcPwl7od7uURcDBxTTvU+OiMIFWT+OdqE+wL3jirvaikvYumlX2NU1iFImvQeRh/ZWva575MIoS1xiK3p6dPEvqdPq1/tOebOY2kyF5Ymc2FpMhezSBNjjDkLF5AmxpjbRSUVInukyYys1c+cnzVpYm6eSprcdph10ZuRAueSJsaYPpU0mYktz1Ux5qRYmsyFpclcWJrMhaWJMeaqsTQxxiT4RSDra7NcAkvi6f7Ar6W1jNaWJdJmxdLk5rE0mZ9rlCbMmGBZK+5tPC9J1z/3NpYxYzkllk7KS+oYY87HjNKEGRUsN8YzRxCtPFdl63JexhyNpclcWJrMhaXJXFiaGGOuGksTY0wBy5ZUz31hsPGRt3zgwNLk5rE0mZ9rlCbAva16ELye2XFNdTXmNjCjNNGzT7hP6Lkj/rxgLoalyVxYmsyFpclcWJoYY64aSxNjzAA9n+PQZwIZY8yM6Jk2urf5c5AxxpgpsDSZC0uTubA0mQtLE2PMVWNpYowxxhhjjDHG3DyWJnNhaTIXliZzcR9p4s2bN2/evHnz5s2bN2/evHnz5s2bN2/evHnzdpc3zzQxxlwtnmlijDHG3H7uvffe337Oc57zonm/uRnuueee33re85734nm/uRnuueee33z+85//Enm/uRnuueee33jBC17wUnm/uRnuvffe/3rPPfe8bN5vbgbPNJkLzzSZC880mQsvz2WMuWosTYwxxpjbj6XJXFiazIWlyVxYmsyFpclcWJrMhaXJXFiazIWliTHmqrE0McYYY24/liZzYWkyF5Ymc2FpMheWJnNhaTIXliZzYWkyF5YmxpirxtLEGGOMuf1YmsyFpclcWJrMhaXJXFiazIWlyVxYmsyFpclcWJoYY64aSxNjjDHm9mNpMheWJnNhaTIXliZzYWkyF5Ymc2FpMheWJnNhaWKMuWosTYwxxpjbj6XJXFiazIWlyVxYmsyFpclcWJrMhaXJXFiazIWliTHmqrE0McYYY24/liZzYWkyF5Ymc2FpMheWJnNhaTIXliZzYWkyF6eQJvdL2yvkBCuQ/s1ba6/XWnvJ/OLyei4jb7HM/PeIPWlPRY49b8aYE7IiTfL1d+77Afe4eJ2fuzxzfvwedt/tEuTr6NRcuk2vmdyWOne9e/Ip4EvfOfM3N4SlyVxYmsyFpclcWJrMhaXJXFiazIWlyVxYmszFsdKEQaJfa61xbN7Y/7jOIBK8e+fYZ7bWXmNJw7HfV6TJG2lIG+N5u1Re5mvSsZm3aa19Z2vtx5btiSGuzNa0o/bSNoqbOL95KYu8jDErDKQJ19ALimuQTfevU33ZoaxnhLxfv7X20a21P2ytfa0H+G4l79bpP7yH3X9Jwz37e5bznNPF7ftbay+99JNfXfa9/Uq/+KolXx2beevW2nek96XXzIkWtqZ93RBfbxvFTXt80/Ie9gaDdGtQd9r+mDx6fGRr7Q+W6/KF8otmF7Tl77fWvq619sJp3zueqX2rMs2VYGkyF5Ymc2FpMheWJnNhaTIXliZzYWkyF5Ymc3EqacL2pWF7UpAD/JsH+BEDeo0vuPzqkDQM1LD/ua21V1wGWHg958vG/7WfNFma9GQIrKWTUGFjAOlnw98MdIosdUZpQeUyqPauy0BV3vKvMiPk12tTY0zBBmmydv9CcBwD94nvXfJ7RPiF/ANbaz+67KviM/PytsvAOv3joxZJTn+i/yAyeA97peXcf0TqW+pzCPD4HsYX6yhNejIE1tJJqPD6U9P70seE/palTk77salvSprwHoY0yu9fbLx396Ct1G7HCI9zShNmDT3F1+VJoC1/pLX2yCBITiFN+JxEP6Xv5wGQqkxzJViazIWlyVxYmsyFpclcWJrMhaXJXFiazIWlyVycSppU4oG/P2UZeJEEEZIS1awKiYEsHIA8yCvnJ6IM6eUPUYrk2CV0SBP3MyiWy1asT05pFUeOc9Rea8S6WZoYs5EN0oTrMX+p4fr85DAAfsybFveAn++UY24nX730jWpWBWKA16KcEPSFnwtSJRNlCFuVP0QpkqWJhA4zJeJ+3sNy2Yr121JayZEcp/bnMrcQZ6nMLE3OCfeVD19m9bxyfvGOcG5pYq4YS5O5sDSZC0uTubA0mQtLk7mwNJkLS5O5sDSZi3NKEyFBIQmi2Rm9gX/9Wvf98ws7pAm/6iZNFZfS6NfkOQ3x9mKTJJGMGaWtxNCW9qpQm1En6tYr0xiTOFCaCAbHuY6rAXCuy4cv96tPGizJx6wyyom/zudYBv74fzwu7+NX05+z5F8tlwTk9bAQRy9dD8rUbAjKoswtVLE+toiBdIqPAf3q3pdjYBbOiFhn0lezgRQf/5Ke//O+Up3HtbwipGd2hgb+M5zzL+mUtVWaxPewLCeUhpkq6r8xzUgoSJJIxozSSsxEcXOoNFGb6T2sV2YF/esTl3ND/6niJk1vlsubLX0zXuP0ibcKM1pj39Br9GHFl/eRZ+zrvXowq4y+RTr6NHEjtL5rRZqoT9KP1Cd7ZUBOX7XtqA4sJxfrqrxo73xvzPnQdlU+VVpYkyYcg1hSXR6U8qQPvktr7Vdaa89alnolBsXJF75cZoS2euhKW+U8aKvP7tTRXBBLk7mwNJkLS5O5sDSZC0uTubA0mQtLk7mwNJmLS0iTKk0lFLawVZqQf2/GCq9xPM8hyXEBgytsVX2iNOF1vvzzpXstrajaYgvkJVEyEjXGmMSR0qSXhutaz7NgWT6uSf7/eWlATTMSNHNAv7JnEJQ88owE7XvUUmY8ju3BIW+l3xJHDw2i5+NzfSsYUF2LlQFNxact592LgYH5KgbKVZ5xKamcXvGRPwP1/D8/P2aU10gKjGaajNgqTYhTz7zJwo6Bd2YuETtpszSpJIGI0oTXEVW8h/XSMsB/CmlCXpIctN1WaaIY4vmhbGZ3xjz0HJJ8PqKsiZKCtmPgnjaOfYNBfL3G0mQa1Ne+R4f0sU+/Q1EX2pWYnrNIEo6hb79hkTZCWQgB8uVYlUW9XyYn3pF+Sx24XpVXvBbW8onlxrZQ2o/buDyXXiMflorTtRlnlHxl6BPaaNc3Wsrls93vpTIFr/1yp63iQIryeMxSx1xeFbu5AJYmc2FpMheWJnNhaTIXliZzYWkyF5Ymc2FpMheXkCbs5/U40B+facKX9N6xmT3SROXGtCqXgZItsUfWys5UYmhvmaBjJH8sTYzZwZHShOtUs7s0A6Fabot0mpWSxUaVHkbShHwQH0pfxVrlqzjII8eRqY4HDaxzfNVuQlIix8psGu2n3TQ7YGtbQi+GKB3ibJZqSawY35ctZcb7bsxLD24H5ZUFS4S89WyO9xj0n8weaUKeGvBXWpVLPalPJU16rJWdOdVMEx2jc5NnifSIS4Tp/HD+JCNo+2OlSewbOocjaUL6x4e6EyOSIYsFxfOQ1Hak5dz2HlDOOWIwn3gfEI5VfjGmLenjw9B7dWAmnPbTprrmaLvvXs5VFD0xH8RJbAuEBLG8Skq7RZoww6RacqtK30sLPWmiY4jvtUJ9EIfkT1u9SMqDOj4hnFvVsSrXXABLk7mwNJkLS5O5sDSZC0uTubA0mQtLk7mwNJmLm5ImwFIY7KNcNpau4YtqLx9YExdRmkCUJFmibIldy7swSENaYtwiK3pxqky2+ODp+DDgPKhHHjFGSxNjdnAGaRIH9CM9AdDbP5ImecBecXA/0Bvo3jgy5JmXBwO1S44hIymR08VY81JXWW7sjaEnU8iHJYL0QHXoxSdGeY2W3xIszRZn0fD+QJmjNl8TF1GaaNaDJEmWKEo7kiZaHom2IVZiXJMV0ItTIoO2eWLnPSz3ffKJMW6VJtVMF9D5OcVME7VzZCRNcnryRyzE/LWPazAvwcUsiWq/UD3yzBXyZHkoXo/nepQ+Cw/VIYqUmJa48iwYCYsoIHr5xPSKZ480IY5qWS2JiljeIdJkVC4zgWirPFslipSYlrZCDI36rzkDliZzYWkyF5Ymc2FpMheWJnNhaTIXliZzYWkyF5eQJlDNugCO4YtslCf8v3qeCfRkhMjShPwlSshTAiWmHcUu6aK4eLB9L61QmVV9VabyzFuOpRIk1T5jTIcjpQnkGST8HeWF4NrNYgN6EmMkTfKSTJDLzX+LXhxb6QmLjKREjnVUfu+YTBWD8o0Ca8SorJhXJUbiMlb52Aj58Ev1KE/I8xGd43oyQmRpQv4a9CdPCRTy3iJNJF0UF0upjfo6qMyq/vFh7tWWZ6BUgqTal1EMvXQ5j0OlSZ650Xut2ie0XFqWJpyXvJzWSJrouCg6Rqylz0KlEhigfCQCItUx1b6cXoKjStuTFz1OIU2oYxYjEc02UUwxjyyGvsLS5OawNJkLS5O5sDSZC0uTubA0mQtLk7mwNJkLS5O5GEkTvmQywyL+ijQ/v2OLeGA/r68N9PMl+HFBKuRnkcBeaQJRfMQ4t8QuiI1lxEjfKxvIR4Koin9PmXGWTMTSxJgdHClNuE7jQL3+5tpk0I5ncMSN/VkWnEOaHBJHD+5vLNHDPf5J4dkRl5QmW2KI+VbCIdMrC9bykmyoju1BHT43CJTq2L3SBKL4iFJiizQRxMayaVruqiobaBcty4UgyPHvWZ5Lced8svCoII68NFkk5zGTNIFKjhBLbwbKltcza+lzzJXAgJjPsdJEgkNLkFVp16QJfZUHvfOgdu4Fz1764ymkSU92ZEmS/45YmtwgliZzYWkyF5Ymc2FpMheWJnNhaTIXliZzYWkyFyNpIkEh4aBBuCgMtkgA9m+RJkJ55rLgEGmi8on/2OeLSGTE/EUsJ4sOsbVM1bNKZ2lizA7OJE34mwG9vDyR5HJeouhc0mRPHBnyIB3lMQBJepbKYlAzz/Ko6EkJxbZFmuQYkA69GGK+1UB6JpcVWcvrEGkiJDOqvA+RJsRazfzYI02E6pWXmYJYThYdYqs0UT2r2LLwqFAsvXbKecwmTfKzTojjk4JEynkAaUYSJLOWPsdcCQyI+dykNCGOL17aiOe08CMa5AWzQGhLSxNjaTIZliZzYWkyF5Ymc2FpMheWJnNhaTIXliZzMZImW9giAXIaNgbF3jwnXOD1nmQ5RJoAefIlO5LjUjpiy+WK6hhQzCNhAr3jM+RBXt9ZDITqF9gMlDLImZ8FYIwJHClNchqu254Q6HFOabInjoweGM+DzGNZqvMlpMmeGGK+1UB6JpcVWctrJE04lmcv8B6WX9PrvWeiHCJNoPcelqWJYuO1KjZJjywzFPNImMBWaaLnkTBQnd/DmDnAe9g3L+9hPMMio3h67TS7NKFcPbBePzqhPzyyOF5wzEiCZNbS55grgQExn5uUJszOob0ekvafcnmunuzIkiT/HbE0uUEsTebC0mQuLE3mwtJkLixN5sLSZC4sTebC0mQuLiFN8nJVa8ew79TSpKKKo9oXqV4nDh6uSx1ZwmtEdXyFpMnaVrWRMSZwpDTR80zi4Dn7uPa2PFcDziFN9PeeOCLcf3pioxIWFT0pMco7HkNb9NL1YqDO7K/qzEBqFAu9+ITyymJDr+WZHaKSFREN1J9SmlRUcVT7IpU0IaanL/V9z6K+kb3SJL9n5U1tVJWZxcjoNUmTLDVuSpogAJ4cZplk4dWD46hX9YyS3L9hlF4S4iaeaaLX8t9QSZOR1DiFNAHag75bPdMEEUJb+Zkmk2NpMheWJnNhaTIXliZzYWkyF5Ymc2FpMheWJnNxTmnC3yyvQL7xdUkR9ucHpcMoz3NLE8XWkxGSGRJAzPIgFtJXdclUZe7Fy3MZs4MDpQnXJ0tFMZCcX++JDe5JzADjF/TnXp5rlLYXR2QkNvQQ9CwsMj0pMcp7qzTpxaDj8/64HJTq3ItP9F5fExsaiD9Eqqzlfaw0UWw9GaF2VZ15DyMe0ld1yWyVJiOy8Ogh8ZJnviiGWEfOZSVNtEzWJaWJJAQ/piC++y3blvd8lRMFAdBvWLJKy33l9DkupY/1rgQGKN690iTHAltETSU1iKEnTSRZjpUmPRGivGgrld1LC5U0If4PX2I99LowG7A0mQtLk7mwNJkLS5O5sDSZC0uTubA0mQtLk7k4lTRhi8tvsKyUfknKwEEWHHo2CNsTlwcAsywW/yevnlA5tzQBylWdiIe4iE91UtkSJqpjXoJEG1+ilX+vzD1Ymhizgw3SZO3+ld+wJAV4/VHLgCh5aV81CH8OaZLj4J40iiOj2RTxWOpfPYS9oicdtkoTjtkbg/LmmC9bBje5Pz9jSf/gkD6Xlcl5MXuF/JTXSCJokJ50HMtD1nmvIHb6VO/4c0sTIDZJhdhG37HUVWVLmBDrs5b3u/z+pfcw9dtLShO1FfE9OjzfgvLZF6WJJAH7+FEDaXUuNCB+KWkCtJNm7+heou3LB20ngcFxpNO5U16SEb30tAfHVOkrgRHz2CtN1G+YYUvf58HtXBNRplTHa+aIzpXaQsLlMcuSbfRv8qweBB/TU2/KUR/tSROJmdhWxP20ZV+c+bJXmig9bZKXHTMnxNJkLixN5sLSZC4sTebC0mQuLE3mwtJkLixN5uJU0iQPCrD92PJluicHOFbLWsWNfT0hcAlpoteq2BhU0jNERnWPW8x/VOZWLE2M2cEGaZKvWTbuXzxno3edsl8zUXQM1+UjcsIzShMYxZGPz3AsA8vx2M9rrT2wszRWpicl9kiTQ2Lo1Tk/FyWXVbE1rwr6jwRL3HjvqJYPg0tIE+gN2iNR9AwRCZAcf96iILmkNAHeb2M9ODcsIcZgO3HEPCSLFDcD+vfvSI2RBKleq/aJKn9EE7EQK3VArPKsGfp6FgsZ+mT1PJTe0mm99PnZIJXA0PGHSBP2cR4kUNiQEdVMmFzmw5YZQMSp5bKIQw+CV36Pb609qFieC5gh8tSlb8R8etIEKOOxKeaqrfZKkyiCquW/zImwNJkLS5O5sDSZC0uTubA0mQtLk7mwNJkLS5O5OFaanAotXzEjM8dmjFlhIE1OBfeH/KyBm+DQOBhIvOl73KExUN+e2NrLMXnN/D4xc2xb4bxs7dtb050LLQlWCRZghkSWLD329sm96Q+hEiGvfsJydS845z0b+GJ4qpjNhbA0mQtLk7mwNJkLS5O5sDSZC0uTubA0mQtLk7mYRZoYY8xZuIA0McYYMZqVAnukyYxU0sSYi2BpMheWJnNhaTIXliZzYWkyF5Ymc2FpMheWJnNhaWKMuWosTYwxFyQ+XyU+Yycuo5WXmrpNWJqYG8PSZC4sTebC0mQuLE3mwtJkLixN5sLSZC4sTebC0sQYc9VYmhhjLgzLS+kB43p2hp6f8chbLhssTcyNYWkyF5Ymc2FpMheWJnNhaTIXliZzYWkyF5Ymc2FpYoy5aixNjDE3hJ7PcejzhowxAUuTubA0mQtLk7mwNJkLS5O5sDSZC0uTubA0mQtLE2PMVWNpYowxxtx+LE3mwtJkLixN5sLSZC4sTebC0mQuLE3mwtJkLu4jTbx58+bNmzdv3rx58+bNmzdv3rx58+bNmzdv3u7y5pkmxpirxTNNjDHGmNuPZ5rMhWeazIVnmsyFZ5rMhWeazIVnmsyFZ5rMhWeazIWX5zLGXDWWJsYYY8ztx9JkLixN5sLSZC4sTebC0mQuLE3mwtJkLixN5sLSxBhz1ViaGGOMMbcfS5O5sDSZC0uTubA0mQtLk7mwNJkLS5O5sDSZC0sTY8xVY2lijDHG3H4sTebC0mQuLE3mwtJkLixN5sLSZC4sTebC0mQuLE2MMVeNpYkxxhhz+7E0mQtLk7mwNJkLS5O5sDSZC0uTubA0mQtLk7mwNDHGXDWWJsYYY8ztx9JkLixN5sLSZC4sTebC0mQuLE3mwtJkLixN5sLSxBhz1ViaGGOMMbcfS5O5sDSZC0uTubA0mQtLk7mwNJkLS5O5sDSZi1NIk/ul7RVyghVI/+attddrrb1kfnF5PZeRt1hm/nvEnrSnIseet9sAcXLO+Lc6Z5Fcv7zF4/PfFVvSGPO/WJEmuT+e+35A36Ucce7yzPnxe9h9t9vAq+94DyNtrmPc8vGkz/syW9Ici+41vXvfsVy6310zfEmN54lzRx8517mDXOatwNJkLixN5sLSZC4sTebC0mQuLE3mwtJkLixN5uJYacIg0a+11jg2b+x/3GBg4N07xz6ztfYaSxqO/b4iTd5IQ9oYz9ul8jJfk47NvE1r7Ttbaz+2bE8McWW2ph21l7ZR3MT5zUtZ5NWD14iD9t/ClvSUzes5XrZ4ziJb6st5AOod/67YksaY+zCQJvTPFxR9kk33r1N92aGsZ4S8X7+19tGttT9srX3tbRy8Mu3dOv2H++H9lzTcN79nOc85Xdy+v7X20ks/+dVl39uv9IuvWvLVsZm3bq19R3pfes2caGFr2tcN8fW2Udy0xzct72FvMEgHlPWU1trntdZeKL+Y2JKWsj+ntfYHRczPWs5Zjod8f6VIHzeuX5X5tq2131/2vXDKSyjN1w3SnIKvXPrnGxb1OpaPvFAd7gIfEdryRdK+dxz052Mg/99LZd4KLE3mwtJkLixN5sLSZC4sTebC0mQuLE3mwtJkLk4lTdi+NGxPCoPl/JsH+DX4zWt8+ebXkKRhoIb9z22tveIyyMHrOV82/q/9pMnSpCdDYC2dhAobA0g/G/5moFNkqTNKCyqXQbV3XQaq8jb69Sb59dpUIHBUty1yYUt6zgUxk4Z/OYZzxi91dc6qmLbUV8dsESJb0hhzHzZIk7X7F4LjGLhPfO+S3yPCr/Ef2Fr70WVfFZ+ZFwa+GXynf3zUIo3pT/QfRAbvYa+0nHsGKGPfUp9DgMf3ML5YR2nSkyGwlk5Chdefmt6XPib0tyx1ctqPTX1T0oR7OtIo38/ZeL/oQVup3UbShHxUvyglKrakJaanL/VEkPBewjnjPUznjJiyYJA0ob780CPXVe9hOuauSBPa7Udaa4/stLfZTtWWp5AmfJZ89nJ/yINEb7aU+QFn7oMnx9JkLixN5sLSZC4sTebC0mQuLE3mwtJkLixN5uJU0qQSD/z9KctAhiSIkJSoZlVIDGThAORBXjk/EWVIL3+IUiTHHgfm434GWHLZivXJKa3iyHGO2muNWLdKUBCfBIa2kVzYk17t1XtdbZbrtae+W4TIljTG3IcN0oT+mb/U0F8/OQyAH/OmxT3g5zvlmNvJVy99o5pVgRjgtSgnBH3h54JUyUQZwlblD1GKZGkiocPAfdzPPT+XrVi/LaWVHMlxan8ucwtxlkpPmhCjJIbaoCdCSPslG9OqvXqvS2RQr5cJ+yVN8v4ed0WanBPuvR++zHx65VsW+6k4tzS5tViazIWlyVxYmsyFpclcWJrMhaXJXFiazIWlyVycU5oIDbhLgmh2RjXwD/q17vvnF3ZIE37VTZoqLqXRr8lzGuLtxSZJIhkzSluJoS3tVaE2o07ULZepdqE8lhTiF7EjubAnfU8ARRTfMfXdIkSqNAyc8WvfvDwY5bGfX3GaO8yB0kQwOE6fqwbA6WMPX+5Xn1T0QaAMZllRTvx1PscyqJX7bt5H/2VJIfKvlksC8npYiKOXrgdlajYEZW29ZqpYH1vEQDrFx4BxdS/IMTALZ0SsM+mr2UCKj391P+B9pTqPa3lFSM/sDA38ZzjnDOZXZW2VJvE9LMsJpWGmivpvTIMgYH8lJSRJJGNGaSUaorg5VJqozfQeVpWptuF6Y5mt9wjyJw8ck/Y5S9rHr6SV+KBsBuErFB/1fYdU33NLE2aevdVyzcT2ICb2c13lc5Mhj09Y+i/5kz5LE5VTvY8z84By4n2Q60bp4/VD++q1GHPeR56fvdwPqqXPBHFx/X3ict3T7ziX37UiTYjpocu1Rr1zf8psSc+XxS11IJ3y4nNJfv/I+fD/Kp8qLaxJE45BLKkuD0rp6Lfv0lr75WVmFdcH50/XbFVm5JC2etNBHU+GpclcWJrMhaXJXFiazIWlyVxYmsyFpclcWJrMxSWkSZWmEgpb2CpNyL83Y4XXOF7LUuXYGThgq+oTpQmvs6QKXyjX0oqqLbZAXhIllajRgIbyrORCZE/6XjtmJC/i8mJ76juKQVRp1CdyGVX7mzvIkdKkl4Z+pedZsCwf/VyDvbEszUjgNW2kZWCePPKMBO17VBCRcXtwyFvpt8TRQ4Po+fhc3woGZ9diRcgqPm05714MDFRXMVCu8oxLSeX0io/8GajXTIPYLqO8RlJgNNNkxFZpQpzcw3L/AAaVmblE7KTN0qQaABdRmvA6g7O8h/XSMnh9CmlCXhIltF0lTbh/MwirWOKMmTxwvCct79O8xlJj+bVIJRUuIU0kgHIZijtKnAqlo9+SD+eXvJgBG6VJLz/a8ruXPvUqYb/ipP/p+lHMeu3jQptq32NC+njd53IByUpMxI0k4Riu/zcq0kb4/KZnzajOum6rAZGt6UnHsz5Uh/z8GyQG97T8nJsf2JBPLDfKEKWlLdVnRtJEr5EPy+np/hVj+Ioidtr1jZd2pczfba19fNFPeQ3ZQqwxZvJ/uZSOPKgjwjGX905F7EdjaTIXliZzYWkyF5Ymc2FpMheWJnNhaTIXliZzcQlpwn5ejwP9GvxmH19Ae8dm9kgTlRvTqlwGo7bEHlkrO1OJob1lgo6RtKikSaaSCyNG6at6bGVPfUcxiF6aLEh6IsXcQY6UJvQfze7SDAT6V15ui3SalZLFRpUeRtKEfBAfSl/FWuWrOMgjx5GpjgcNrHN81W5CUiLHymwa7afd9Mv3rW0JvRiidIizWaolsWJ8X7aUGe8HMS89uB2UVxYsEQ3SUxd+xd3rP5k90oQ8NTtDaVUu9aQ+lTTpsVZ25lQzTXSMzs1odktkJEIyo7RVPbZyCWkCWWj0REomzqJ5QLjO9MB7+uex0oTr58uX8xUlVU+akJ7ZP4qbGBmEz3XRw+QfEvJQ2tHSZfwwA8FJnV8r1EX5xZhG6asHsEtgUIcnhHiZLaj9tCl9iTJoO2QP/TmKnpgPUiG3BbG86pJ+jzTpLblVpe+lhZ400THE99qprfKD45VHbivq+EtLuVGynARLk7mwNJkLS5O5sDSZC0uTubA0mQtLk7mwNJmLm5ImwDIP7KNcNj1gvJcPrImLKE0gSpIsUbbEruVdGIAgLTGOZIXoxaky2fQA4LjpgfY5nxjjJaVJ79xtZa2+cZZOL4ZIL43iVDvFmTnmjnMGaRIH9CM9AdDbP5ImecBecXA/0Bvo3jgy5JmXBwO1S44hIymR08VY81JXWW7sjaEnU8iHX63rgerQi0+M8hotvyVYmi3OouH9gTJHbb4mLqI0YfAzSpIsUZR2JE20ZBJtQ6zEuCYroBenBAhtwzOx8j09tn/MJ8Z4SWmicxlnXOxBUqJXX97D8vNkDpEmxIm4oJ0YfKYdaee1mNdEyClmmlQCYyRNcvqcv657ZEPcJ1hWrNovJEeyUCDPz1qu63hORumz8JDAiHIgpiWuPAtGwiJKj14+Mb3i2SNNiOMti2W1JCpieYdIE8mRPEuEcr9zaas8W+Xri7YiLW0lMXQyLE3mwtJkLixN5sLSZC4sTebC0mQuLE3mwtJkLi4hTaA3W4Fj+EIb5Qn/r55nAj0ZIbI0IX+JEvKUQIlpR7FrkF5x8WD7XlqhMqv6qkzlmbccSyVIqn2Znlzo0UuvuqyV12OtvvE89mKIjNLoNdbTjn3A3HGOlCaQZ5Dwd5QXgusliw3oSYyRNMlLMkEuN/8tenFspScsMpISOdZR+b1jMlUMyjcKrBGjsmJelRiJy1jlYyPkw0BjlCfk+YjOcT0ZIbI0IX+JEvKUQCHvLdJEMkFxsZTaqK+DyqzqL2mS7+Xa8gyUSpBU+yp6IqSil1Z1OVaa5Hpq+4X0nJRDpUncz+cM9YFeHkDdshiJ5GeaHCpN8syN3mvVPpFFCGUiIei7eQAjp43ouCg6Rqylz3KiEhigfKq4qmOqfTm9BEeVNse1ximkCXXMYiSShUqVh2B5MO5zliZXjqXJXFiazIWlyVxYmsyFpclcWJrMhaXJXIykCV+g+BVl/lUl+8UW8cD+LQPvfMHjoeQaZK+eobFXmkAUHzHOLbELYmMZMdL3ygbykSCq4t9TpuLO+dxGabKnvjmGyFoatf3oHJk7xpHShH4bB+r1N/2MJV94Bkfc1P/OLU0OiaMH9zeWn+Ee/6TwbI9LSpMtMcR8K+GQ6ZUFa3lpEL46tgd1+NwgUKpj90oTiOIjSokt0kQQG8umkb5XNtAuWs6KZ4Dk+Pcsz6W4cz63UZrkpaV6HCNNAGFAPbKMqaBukh1V2pmlSW8fsfTkxJbXM2vps7DIf4tRPtUx1T4RlyA7VJrwpfadW2tfvNwvkSNcs6eQJr0ZIvmY/HfE0uSOYGkyF5Ymc2FpMheWJnNhaTIXliZzYWkyFyNpIkHBfm15MHrLoDj79wy8K89cFhwiTVQ+8ceZH1tiz4wG7WM5WXSIrWWqnlW6S0oTkIiIbbeVrfWFUQxiLY2lifljnEma8DeDVXm5HsnlvETRuaTJnjgy5EE6ykNSkJ6lshhczbM8KnpSQrFtkSY5BqRDL4aYb2/QP5LLiqzldYg0EZIZVd6HSBNirWZ+7JEmoicXIJaTRYfYKk1Uzyq2S0oTuA3PNBF3SZrEZ50wiEEczBTt5QGk6cmLirX0WVjkv8Uon+qYap84RpoQxxctr/HMG35oRLuTnn5qaWIuiqXJXFiazIWlyVxYmsyFpclcWJrMhaXJXIykyRa2DIrnNGwMir15TrjA6z3Jcog0AfLkC2Qkx6V0xJbLFdUxoJhHwgR6x2f0YHO+wOaBUP0Cm4FSBjnzswBgTS5kRukVy6hewOv8wp0ZOWJrfWEUgxilUVm0C/+uxWvuCEdKk5yGftwTAj3OKU32xJHRA+N5kHksS3W+hDTZE0PMtxIOmVxWZC2vkTThWJ4TwntYfk2v956Jcog0gd57WJYmio3XqtgkPbLMUMwjYQJbpQnLm9F+DDTn9zAGcrmPf/PyHsbzGSpGIiQzSitZQL3yaxHS/Whr7T1D/S8pTVQW7ULfX4uXc3abpQnl8qwdYqI/sHHNfEBxvOCYnryoWEufhUX+W4zyqY6p9oljpAkygvZ6r7T/lMtzWZqYzViazIWlyVxYmsyFpclcWJrMhaXJXFiazMUlpIl+/b/1WSLsO7U0qajiqPZFqteJg4frUscoDCqq4yskKta2qo1gJBcqRukVc6/NoXfOttYXtqTtCRyVrxi3zMYxd4QjpYmeZxIHz9lH/9ryXA04hzTR33viiHDN9MSG2uXc0oS26KXrxUCd2V/VmUHCKBZ68QnllcWGXuvNTiC2SjwI6n9qaVJRxVHti1TShJievtQ3CoOKvdIkv2flTW1UlTkSIZlRWskI2rySC6BzFiUD7JUmW9JXEofyowDRbJy1JcWyGBm9pnKz1IhlX1KasO/JSzsRQ5aCPTiOPlg9o4Qve+QT94/SS0LcxDNNRqKmkiYxhiwjTiFNgPagrapnmqit/EwT87+wNJkLS5O5sDSZC0uTubA0mQtLk7mwNJmLc0oT/mbpAPKNr2uAm/3Vkk+jPM8tTRRbb8A9D9ozy4NYSF/VJVOVuZctQmAkQSrW0kt88W8VN7Ion2fYU9+1fhHbOtdd50XHqZ9sKddcOQdKE/oNS0UxkJxf74kN+h0znfil+LmX5xql7cURoX49YaGHoGdhkelJiVHeW6VJLwYdn/dLRsQ27sUneq+viQ3qVy2XJUbiYi3vY6WJYuvJCLWr6sx9lXhIX9Uls1WajLj08lygJbp4vYqb571wfJYdWyRIhPZHQFBWntEB91uWVaK9o+jIs0DoJ6RbK7cSMKC4Yzk9qRGl0qWkCe2EAOAHJ8RHu7Bteb+WZMgzdZAEzMTNkiBKiRiX0qvexFUJDFC8e6XJDxTCYouoqfbFGLKMkGQ5Vpr09isv2kpl99JClibE/mFLfx3151UsTebC0mQuLE3mwtJkLixN5sLSZC4sTebC0mQuTiVN2OLyG0zx1y9J+VKcBYcG6dmeuDwAmGWx+D959QbOzy1NgHJVJ+IhLuJTnVS2BvFVx7wEiTa+JCr/Xpl76EkT/s7tz4CA9vEF99D0UWiQhjrldunFVPWPuL1/kZ78yLfqF3mWSU+QZJFi7igbpEnun/n+ld+wJAV4/VHLYB95aV81CH8OaZLj4J40iiOj2RTxWOpfPYS9oicdtkoTjtkbg/LmmC9b7lPcJ56xpH9wSJ/LyuS8mL1CfsprJBE0SE86jmXQnXsVsdOnesefW5oAsbGffh3b6DuWuqpsCRNifdZyn833Zzbu9+q355Ym5P8l4TokXvqCYqNuOqZKi2io0nKuJbpIgzzK7UJ75RkbUT702ucRHQlBuzLIzY8Kct+IkqMnSLJIqdCxxP/opU4MoHOOKCfWSWnZx/sjaRVTlAdiJEGq16p9IksToJ2etsSu+622Lx8MrksecBzpKJfzqNlSeUmrnJ5+x/lQ2TF9JStiHrkOvWO0T9cWyw9SJv2VcxplSnW8Zo5wrrh/6VqTcHnMsqwd9wAeBv8zS12iNInp+Zd2Uj494UE9uZZ0DH0ntpVmmYzygCxNlJb2iHnsxtJkLixN5sLSZC4sTebC0mQuLE3mwtJkLixN5uJU0iR/4WXT8y16coBjtaxV3NiXB9/FJaSJXqtiY9BEzxAZ1T1uMf9RmVvpSZMooqoty4a96YmXQZyqzrFdIlvaKJ8r8qnannyq5c80CybLkbW+Yu4IG6RJ7mts3L8Y6Opdp+zXTJTYRxlAzZxLmsAojnx8hmMZNI3Hfl5r7YGdpbEyPSkhGZFjhXzMITH06pyfi5LLqtiaVwX9R4Ilbty/quXD4BLSBBh01SByjA2JomeISIDk+PMWBcm5pUmUUdUWZcOetMC5jkIhbrTL/Yt4ogDpbdW5QqRWQoC+lZdA08PfsxyR5KCv9JYVg1wWZTxkeQ+nrlEE0WaxPgzoP2A5J5denovPE8RHrLzvUw+exyOxUM2QEJzL6nko5JXL3pO+Ehg6/hBpwj7OA+2icrMQqo6HhwVhp+WyiEMPgld+T2itPSg9J0UwQ+SpS9+I+YyEh9oqlvHrxXNURnlkaRIlULX012YsTebC0mQuLE3mwtJkLixN5sLSZC4sTebC0mQujpUmp0JLM8zIzLHdFHyppk22rkF+KHuW7DCmZCBNTsUlroUtHBqHrueb5NAYqO+p7g/H5DXz+8TMsd0Ul3oPg1e/0PsY+W+tz9Z054JBdAb5s9gSlWTpwRe8PW27N/0hVCKEfnCqwTPiJ7+1tjmWS7TVLixN5sLSZC4sTebC0mQuLE3mwtJkLixN5sLSZC5mkSbGGHMWLiBNjDHGbCdKhWOlyYxU0sScAEuTubA0mQtLk7mwNJkLS5O5sDSZC0uTubA0mQtLE2PMVWNpYowxU6GHsLNcU3wOkZaGYhmt/KD324SlyZmwNJkLS5O5sDSZC0uTubA0mQtLk7mwNJkLS5O5sDQxxlw1libGGDMdLFnWe+7LB3RmoNwWLE3OhKXJXFiazIWlyVxYmsyFpclcWJrMhaXJXFiazIWliTHmqrE0McaYadHzZS71jBlzi7E0mQtLk7mwNJkLS5O5sDSZC0uTubA0mQtLk7mwNDHGXDWWJsYYY8ztx9JkLixN5sLSZC4sTebC0mQuLE3mwtJkLixN5uI+0sSbN2/evHnz5s2bN2/evHnz5s2bN2/evHnz5u0ub5Ym3rx58+bNmzdv3rx58+bNmzdv3rx58+bNmzdvUZrkaSjGGHPb8fJcxhhjjDHGGGOMMcaYrfiZJsaYq8bSxBhjjDHGGGOMMcYYsxVLE2PMVWNpYowxxhhjjDHGGGOM2YqliTHmqrE0McYYY4wxxhhjjDHGbMXSxBhz1ViaGGOMMcYYY4wxxhhjtmJpYoy5aixNjDHGGGOMMcYYY4wxW7E0McZcNZYmxhhjjDHGGGOMMcaYrZxCmtyvtfYKeWeHKm21r0cvLfvjVqUxxtxBdkoT7h9vvvz7kvlFc3JoY9r6mrn2Oub65fff/PpNoTi23gtuI69+4fsW57pX3iXbm3q/VN55Iv58qgP1orw99aqOyfneBe5inc19uWQfqK67at8WOI773d7jKig/f2c9Rb6n5k8tsb5QfuEKuGQ/PHc7njt/c19erbX20hfsP3uhPxDjC+cXzkxV7sunflmluQmIi8+MlziHs9T5rpH73qyof7zI8neOO79+TiiL90b31YJjpcnrtdZ+rbXGsW+XX0x8zZLu+8KX7GOPh5hH3tj/uMGXemPMlbNBmnB/+NzW2h8W95BnttZeMx9gTsZXt9Ze0Fp7/fzCFaE6vkF+4Zbzuq21py/XDe+11O+jWmt/0Fr72vChT/ve/kJfUDI5zje8oTjOzdu21n6/tfaxF/qiQLv+cmvtHVJ7sv9pob3f6Mzt/Tattd9rrX3cGer9EUubfl34wqJ977ijvK9orf1qaIsq32uHOnOevv4O1dnclw9vrf3u0gf+ZH7xDKi8vx8GAap9W3jr1tp/aa39jR3XfcVfa609v/N588dba3/9yPxPyRNba7/SWvubE8V0Cj60tfbbrbVvbK29WH7xDKi8dznTve9LlvfiN93Zp81+3rK19t9aa594ob5zCF/UWvul1toDz9TfMn+ltfaDy/v7r7fWHrSU+0Gttf/eWntSGIfTvve80HtABfE+t7X2HheK4R8sfeYhFyrPtPaBrbXfaK19S2vtZfKLk/CXW2vfu3we+X9aa/9Xa+1DWmv/3xL3yy7pPmDZ9z4XuOcQw8+11v5Oa+1P5BfvOqeUJllmRHrpevszo3R6je1Lw8ZNWsfwL+mMMXeMFWnCvYQ3LQkSBh755R/3C+4jun9c86A+vGJr7eeX++u5frFdYWlyO+G6+Z5l4OeRrbXXWPYzS+sprbVHhIHym5QmVZyXjuFSXFqafOVy74xfSGjv717amw/6l2jvc0oT+vOPLH1HeZ9CmlT5XjucJ+pMv7jUwB6/4P+Z1tr3t9ZeLr84ITHeP51fvAUQ/08P4n+z1toPLX3gEoN5lSCp9m2Be9u/Xn4QcMzAl6TJs5ZBNK6Lh7XW/tVyX+Ez597YIpyD/7icgz+TX9zJbZIm1PunWms/0Fr7syvvO8gF0jGYeYmBIUuTbfAL559Yzs0lZwLtwdLkvvDL9P97uafy2ei1Qh/kvsFnxA8ObTWDNPmny/eC/+NCfczS5PIw6M93Ee69L5FfPAPcrxhDQh6+yoZ+xXWDGOF94WNaa6+9XKv8KOM7W2sfFuK+pDRRXPyw5TZ8Zr4op5QmbL3ZIpolkqXHsceD8sj7gb8/ZTkOq8zAoDHmDrEiTRjQ5v7APaZK8+7LAOClZcKlsTQ5H9coTegv/BqF/sIyBSNuUpoQ53M2xnnbuaQ00SyTXBbt/bPLgN2lft11TmlScQppck743MsXLgZ4t3x5u2YsTS7LmjS5NJUgqfZthWMZjDxmtomkCQPDWWpw3f5Oa+0bjhhcszRZlyaXxtJkG5Ymp+GS0oTz9G+Xc8bnv7VzdtPSRLNMPqm19uL5xTNhaXL97JUmpH/Gkv5VV9JfUpoA5d3j2SZ/nFNJE0wyN6FKXCiNZn5U0uTQ4+PreX9E0uWj8wvGmOtmIE24dzCYzb2HX5xUxJkoDy5ee/gyI4UPYPq1fYYvcyztEH+N/zkrx5A3vz5U3tUSYcpXzxVg8PD9izdfXmegj7wol/IjtMO7Lm3Bm/67LflW99MtcfWgrnzRIAZiJc6RNNlSVm5b/v/YQXrYki/kvPmV7FresY4MYsc6VtJEsfClt5fvIXFAzJt4aGP1DV4jH/pCJckoK5YZYcCc/sIgcOwv5EOsb5WOG0mTLfWP6Pxy7mjfKnZBnAxSKE4EqOKMjNpJqF58KSQ9+XCt9QaSlJ76kFc+Z8qfdCq7Vx9dv4qPL8I5PuhJE+IlFs51PI79D13y/eTW2v07+VZ8ZCEB1N4MsvEr6qq9Y5nUhWuiKrNqb+61VXtnacJxXzyoEzMJlXd+LV8TfLGJ5xHWpAn5f8JSP34IRJosTap88z5i+eylz1T1EJRHm3LfYVkMZgBxvfEru+rLWy6H/4/KUXqdC/7PuYiDc1vOay43ozxG506Q9v2WtJRXLbmn/shgIv2RpTjoR1meqv7cUzhf+fUe1IdBbtWZtu/1B8qoftXKICf9jTIVL4NdxMugUhUvVPXPZRMfA3xqb8r6rOU8PyD1O+XFZ5yqPMj1fYtUJjJgLf4cUyTWieVSqzqJGAtpcyyiEiRxH7HFc5DRuVO8Eh7/8IjByJE06b22pw+987KMWJzJskVg80yMf7S8T9EPaK+eNOHXqO8bzhX3tar9Mzr/XNukf5PW2mcu1zu/UK/yUFkMBPfKot2oN23HEmfvFeqd2wtyHNW+LbFBju+NC3FRSRPam/JeqYiRsjmnVfwcR//jPPGZivx60oTYGGgjNn5Ayq+Ze/Wo+LtLG5A/y3CyXAzxkO9ajLl9oZcf/NXlHP6n5Ry+93IOYxrIdXqdTp14LgDlKQb68Gcs5zMeQzry+8IipoosTXr5RoiZ+lCGYs59JEJMzM5Qn/rbg/sNzzr4+KU/ED+DnD1psjUOymfA9JWXz0L8n8+pL5rSISC4j/5ia+3fLNcB54wfKNCGyof3G5UzkibEx7Wr+Fi+qIpPsJQQbU9/4vOYyh1B+c9b3jOqNo0x0PYI8ipdrhvpPn3pBznuLE0og37D9VP1N84pfTe226HHUCYza6gLx1d10bGc79x/qVcsM/cNzgF9oyegcjv9n6Gd6D+xnUhLfnxuHeVd1SsP7isvys11jsc/aokjp4nk8rj3xfI4339vGUviOuBzLNcBPxzJ56lKTx2Vnvch4uY9RzGNpAmxcS39k6Uu3EdHdeFe8mnLNUMMVYzE9+wlPz6XmYVTSROkBEKiEhO8RsegQ2S5cezxsEWabEljjLlCBtKEwVxmkTA1snpdaACZgTzB4AoD4dyzfizMmPu8Ii/SUg5vQNyDNGtOW5YxW/NWvtRD+bJ0REyjOua84owSBvXz+tqkyyKDQdktcVXEOPglumJ48pFlkS62Lf9X/mrbnH5LvkrL4CN5I85yG2UJUNWRX3tSx0qaxFieOohlbxw6hkHaGIvi0eDQV4W48vFrr+UYiJ209EliZeBex/WkSYwx1z9/cGfAVs8lYeYIdeL/KjfHCL044wBrjIF8lT7PlJCQ4POJzkF8bktG6R/dOWd8uUUqqOx4fmK5yAnaTm2k/pLTQSVN+LzD4DnH5XozGJbzffzKl1RQnlxvMQYN1uf2liiIZea21tq9QiKEe7OWV+P5H1VsSvuY0NYx/yw3etKDen3XMuNOsiEKGZXdOz6+FuvIAKjuAWqLKt9cj9yWVXkM9lMeZRE7x9DmDNxV1wRQDoPGlEPbckxsr3dK5Sg9/Urp43NJeJ0Bu9zu1DvO7lA+DPDk8xjz4Hk4tBX/f0LxBZC0DAitlffl4VxoY711nhlB2/B+znuA6q97SkzTg4F3zhV5xniJIc+wUFq+oOb+9h1Lf/sLi1jrxZvPR6/+sWw+szBr4VPDeYt5Ew/3IOWl/TkfkGgY1ffLOvHHWRmKKUsH9jPQv1Yn2BJLTtuTJuwjbu5L1eyR/BrnjBlc3Puy8NhKT4yMXtMMlDw7RvHQh/7SEq/6ZTwHWXpklD/pmUFKX+EXsN9WSBPOlZ7JorQcR/q1GR4c+z+WQTPeQ3J/YdA81g9RtKUshGdVbwa3qnqT72+11v5xGLjVvl5s1SwRjvnPnfj+XIivkibaxw9Q8sD2v1zyQ5bF9uQY2i+eJ5a703mK0oTYEBDExmcnPmvwfwbX8sBbhnsj+dIGlMO9kbJoU2Q+ZUjU6O8IMi2+xkAgbTLKj2PUB+M5ZMBW+SMsGPCmHvxKW3ViMDMPrJKWwXkkDe+NuX9w7+MHP8pP+6k39e/1Y0kTBHQv3zigSnqkgmLmPPF/BuWrZYOQJb+55BXT/3ARV0zLPYD2JR39gfaP0oQ47t0YBwPoPA+CH3/wHsX9Mj6XRHAsfTifMz3ThHwY7GWAXOenJ01IW8WHAOKaiNCfuAfT9tSb/kTdeS5ET4YA+dA2HFsJaGLgF/b0TbUndaJNc3rS/r+LrGI5pdx346ySLE2A65D3vL9VxNt7rbdfr3Gv1GuIil8o6sISqVnUKj5kURRjtNc/W96TJQTJ978u55T3Hur9zcX3EaH0/NCCvkT6GA8ST2WSlnMY887PJCENY8LUi391/VGv+CMh5cX35th/4vH8sIDrhP9zP6t+OEF64s3lsQy1yvv85b0jnn89oyTLHBil5z2Sa4jvjrreetKE9Iot1oX3w1wXJBL3K65l6sE1Q12qOGkv2p3rZG0WzJ3ilNKEk0sDx2WwGEAhXwYaKnFx7PExj7w/orxJR3pjzB1hIE20NFeWFmtUS1lxj+nlJ7nBawwI6xjNdIn5jPImj5h3zJcvy4iHeA+s8gIN7se8emlHr+e4qjaGOKNHMwk4ll9scGyWJnHpp7WyJE1oAz4cxbblCxVl8gFxb74gWVGdN/ImH30wieXxyzbIdYzSJMaiPGIsUTDsiQOUd4wFsiRUvlkaEgeDbDnfSBU/KM81aVIdT7kSHVmwVHnwq1rqP5IXlNNbnkuv0U7xl9cSFTFfCQnOAYOxnMvqOhExPSJCZfMlXfvpE+pz1D3LDcWXBYniyw9gr6SJREbcR755CS3KV9qcb0bH0z55sKTKO+6nrfkFVWxrYs5CRAJhS3vHtIgAtbWWEKPM+GWqJz1og2OkSSxPdSRPvlSTPgqkKt9YD2SB2o98GdjOcklx8EVXcSjt6AHzkhdqr1wO8ccvSjE9A/v0T50LBnH4RRrH8Cvm2MbUJcuVSpooj7iEFu0miRAlDmlZvqpXXpV3b3kuHRPzpw0YlKD9qi+70MuzJ0d6+6ljlCbUJeadBQDE+jOIofpLBNDeiluCgvPGl3T1HQZutZ8v51zvEgLEwz01ihrKrJbcUpnUS23eSysqaaJjqBO/cMx1qtLm/LMIGe3P+4iJgb8scmiPSpBkkbKXnhihPEmPXI+t0kR9aM/yXMTDwD8DbPziljoxaMKgMO0UpYvy5lwpLcRlxfKv0SOSJvS9Lwi/clUMtIlkCGWx3BZl8evZWBbni7LiAJLSxzx6jKQJsTEAGWNDPpBvFCGU9x+K+CRDYt6nkCaUwQA/54mYdJ74pT1tz3mSNCG2n1xiZrCMPEjLYBrnNJeZ4WHEnKeYjvIZ/KfdGQCnvRj8ZmA9D7T+i+W6YXCbspUfn390f1J+3xgG7UnfW56reo2yGOyk/jFvkDThfCJV1Ce4X2k/bcY54Tjy+ufLtR1FTUbShOORBuoT1IcBd+QQ7c8+4vz3S8zaRzkSRFmwkP7fpfQgOcJsydh+lEd/4PsT8ZI3vyKnrambpEnMl89iigMhQR/MD0SXNKGOjM9x/VczioC8e8tzbZUmyoO2k5wgPkmZLFiqPLTs1jcNPitSDr/sp8/lNHqNPPiMo/OvshAD8RhJE9qIdlSfJA7ux8g3yYlKmuh4ZtREaUW9+ZEN10+WGwzgbzmGvsNsLerCZ07VRXFQl/h96BBpQr35nISY7vUNiOkRJ7GduMfRf2PeDOIrb+5nMW+ORQ5Qrzijr3roeyVNOD4vocVr3O+590eBE9NTHp+JdC+kPPo1YmOU9wjSV8tzITC2SBPu6/l4YuF9lXtFFizKg9lg2s/nLb6X0R/y52O+g/CeTDv2PgvfOU4pTSBKDk42FzCdjRtpJTeOPT7mkfdHlJeliTF3jI404Z7Ar3nzgP0WKukA3KeyWADJjTwLRDFwj9PyYHvy7uUryJ8vqXmJJUmM+ByXKv9IjCuWtXYc9I7tnYNe+jjQrrIkTao2yPnkv0WVL0gA5LyJG6nAeZOQUd55sF9pszTppY+x6ENtjCMPuuU4oJc36RnAZaCaelZlwVYZUR27VZpU+6CXb2/mi5ZTyudekF9PmvTkA+2UBYaExKhNIjF9HuQib66ZvKSQ4pHgIG21nBHnhy/2Oe8sTZRfFhISFbneEhtZeGR6zzOBXh6xzNyHERVxFgZIIOTYK0ZpVW4UHD3poVgOlSa9/VUdq3xjPfLgreLSl6Nqn0A2cA3l/ULyIpcDlUjYmx6Ij19fUmfNeulJk14eUSDoC10vLeXxi2LuK7HfVXkIZJwEQWwnLXeU+7agrGqJKQYyK+FySmkSRUWVVxQeEhRRpMS0lJtnsVSiYq2+5K+BoJ7UEJU0qeQLUC4DwpxTCZ9RLIiIGAtkQVLtizFHybAnzz0oXz4T0AcZyGagT7+sZomsPEhxTmnSy5sBGPKmT0maKG2eEUJaHmQf01ZImmS5ouO5b7FUDPWIZWWpoLLiTJJTSRMGVONgE+VJYrDslPKtRIjSM3BNv9VyQVXavdJEs0yq9EiKONOkl7aSKRW9WSRaHog8yUsSI+YV5YoGdpEECPlRflCJEYF44fxkOdI7RtKEaysPMH/70r45HuQEZYyeVyJpQr4aMAX+j3QhX+5P9EvJjkqOZJmiPBik5MdOMS4JEvqmyqxECvA6D2anP0ia9NISR5YpIGlSzS7JSHjkPGCrNKn2gfKOMgWQYLz35FklWkoq3z/F6HkmiiE/d4T21MydWJ6kR5YppEdg8L1Dy/pV0oS6ITaoW5Qjki70r/ydZe0YzhfHjCQIsVGXOFtllL4nTUazSyJKn2eMgGSHZIVER5W2Si+I81uXewzLf3H+K2nSO74nPCRHcnryQ1zxg0Pd+3p59DhWmlT7oJIpIAmSZ5XwGZBrJvZ5IH/6d5Qsd55TSxNOsEQH631LgMS0UW4ce/xof0bPNek9bN4Yc4UcIE14Tc9NiBv3JGA2QBQd8bgsQUByI/+iH3Je+W9R5T3Kd8Qh0mRPXNXrVTtD9UwTlRVFAMSy9JqkSdUGWajsyRd6MzGAvGgv0nN8JUZiWg34x306PqK8ch17cSATYj45lpw+U8mIntCI9OTGVmmS4xZV/UF5MNMmf5EY0ZMmKieKkUgWKllIrNFLT7mSJqwJHOkdk9kiTRCD/D/LC2BGicRAJMaWX4uonCxdoJImyjeLEVGJjSgVRm0Bo7QSPFGorMmNQ6SJju3VMT/TpMq32hePr6QJ/TovbbZVmmR5EV+LgqSXnhiyGIlkwdHLpxev8pdUWCuvYiRNFB9fJnMbHsK5pYnS55kgIsuHSlBALPcvpnbsHVNxCmkS63TozA3YIziqfdXskSodaGZK3r8VxcpnE76T5o1BsXx+e2KD9jtGmuj4nuyIzzTh/XMkRnpCJSJpUokhyuK9GmnCZ9BKjAjNNolC5VTSJO4TfP4nNkkTiQ3iy88RqThWmlRiJJKfacLfxJuX91I+WchkNDOEwWn6UC9dXoYLqlklMb/RuekJEKAsPlvwI7DYH6iTJEh8TdIEAZIHPJVeckPk55VU9NKQb5YmzEAg5lxOlXZEliY6XmIk94f8TBNmbBBHfsYM+SBYiCO+JmmCXOi1gziFNCE+Zpsy4zvHh7CgL8fXlAf1HMm/jOLJckblZDEiKqESZ4pkAUM/pz4jaQLVclu9tGJ0DNKD991KjIhKkFT7gHbpSRNkRF7WrSKml7yIr0VJUokOoViol8RIJAuRKi9mYfD5ihkWuZ8hXainXtO+KGJGXFqaMHuYuuTnwhA37Uld4mvKg/eyfJ1WEAfjCJYmgZE04WQxlSoOGvK3TiJk6QGaLcJWCZJq36HHj/ZH2M/rpPNME2PuEAdIEwmE/GWW+xRf5jiOv/kQyprocWN/FggjuRFlhGLamvco3whfJvlixj2cX6KQN3nFGRQjabI3rurY3utZmig99RqVtUWacK/XjAmdt635wkhWVNIkHx/TRmmi9L1Y2J/r2Isjy4e1WDJV3jnPimOkyd76A+XpmSacK6Zo0/9zX82sSRPKyfICssDIf6/RS0+5e6UJ1y+DLQyEcP3yZYx2yDMrdDwfmOlvVd1UPsfTLlXbM11+JE16M1VgJE2ijIhU0qPa12OU9tLSJIqNyKmlSW/fWhzQkxdQLe/VS09ZkhpVWfm4/HfMg/sD/ZHn68T+yH76Y5QmUTKsMZImvKYyuKcwWM09aquU5Usvg7YM5nFdUg7XT57ZcWpp0qs/7RuFRBYUIuazR5rE+vIr2FjfY6VJFcuILbFAJT6qfdUSXYgU3uNyXFXaPfSW5wIGZBkQ43NpFDjnlibx+EglTXppR0JEjNJU0oT218yTCIKDfBAcyucmpAnxxdknPU4lTXqyI0oTzhNpueeQPt9Tee9iAL7KR9CWeqYJ90aWLUJ+5wdQV0t0VXKD61XPNFF+3A9zfj1pQv0RHb06sZ86zSRN6MP8zb2Ga6YXc44BEAG0D4Pv3N+4p9J2vM9QTiwrixCI0oTPYYiRtThuSppQlxgfz6mK8bGfZ51EaUKZfKYndvoT5fN+sPYg+Fy2IAbJGYmOiARJrMcppEm1RBdShGNZfjTHAdUSXfEY+p1mulR5SGLE429KmiAo6MP0663SJMYSycfmv9mQILyP8t0o9zP208+yNIkiZcQlpQmx8T2P949RXaI0ic804ZphhhliW8tQZiRNWMJXcdx5RtKEmx8ng/3a+Jv9opIeNC43M9LHWR2V3Dj2+NH+iPK0NDHmjtGRJsBgNveZvBRWJs7M0OA79xLe6PNsFMnlOJg7khuVNNma9yhfID+O0eA0x/KllUHPPTNN9sZVHbtXmlAW039zObmsvdJka75QCQVxCmmyNZZRHFlwrMWSyfJDf68tQ5WPE3ukCW0yqn81eEn/ZZBN8oQ2HM2ouc3ShLQMhmhAmefjMDDKoL369aHS5JC2F5Ymf/z4eGwlEM4hTfKzToiBgRxiy4IjUskLcVPShP5Iv819Uf1R9TulNBEM/DFAK3nCF9a8ZFeEOBiUop25Lh+3XHv0C/W1a5ImpOeXwKovs/1ifS8pTRQL7Zljod8eKk1i3IgG7mP8zbnMA+jnlCag/FneSGVbmtwXS5P7UkkTzhuDjLRrvqfyWWI0g0QwqCtZoXtjnFVCm8cluvR3XJorQn4M9vfyW5Mma3WK530WaULMDGL3Yo7PySEPZj7SL7jO+D+fm7n+ea5OnmmyR5rsieMmpAn9dxRfNaOEgV1kB/dG+tPag+Bz2YIYbkKa0HZxuS2uH/7mPPc+g68dQ10sTf7432yaOUJ/6/Uz2lP33NmlierCDzyquuTrEf720o7cY3TN5CW7wNKkYCRNtlBJD6CB6XiRSm4ce/xof2RLGmPMFTKQJnr2QzUYHYlyQoPvPQlQMZIblTTZmvcoXyBvXmcd2/h6lEDav0WabI0rsnZsT5psHfTfK0225gsjWXEKadJLnxnFcaw0gbhEF30qCo4ep5Ame2LMkMfDl3wrOSBuszTRg9n5ohXPxTHLc8XyR7NJRlia/PHj47GVQDiHNKFMPWReP2zicy5fsPLxkUpeiJuSJr08IjFtJQ0qtkgTQf4PXWLU7JaqDJ5DQZuzDERsj0stz9Wr/7mkCV/IqS9f2Kv6XlKajGI5ZnkuiEt0cS/tLcF1bmlS1cXS5L5YmtyXSpr00h4C5bNMC+2TZ6nEJbq4BzEonZ87ksn5aYbImjShTnl5rh6zSJOqnB56MDtLQcc+2Fuea4806aWtuAlpwvWVl+faCnnwfsx54Rf2lfiAXLbg+JuQJhCX2+L6Ic8qXaR3DP2culia/PG/2fZIkL3pb0KaEFtenmsr5EGf4dzwDKqcj6VJwbmkSUUlLo49frQ/oueZ6Pkoxpg7wkCaSB70BvQFg97cYzSwn/9eYyQ3ojTR31vzHuXLvbAnK/ZKE8hyYw+jY6vXqn09RtIkv5blxRojWRGlif7u5V29Vu3rMYojSxPtU945PQML+QcJMX/6RM6v4hhpAqMY97CWT0+agI6tnmnCa/Sdm3qmCbH20m2RJpTZexA8MqZX7y2onK3SBFRm9bwPyaFzPNOkek3SI8sJzs2h0gSyGInk16p8q33x+CwW2MeXY83C0C/k1qjkxei1ap9QvapnjPAa7bTlmSa9PDJ6eHuVli+huQ32SBPRe0A80M49cbMmTah3T15skSYQY8t9XTLnlM80GaU9hTSB6nkiIp7TtViyaIBKkFT7IMoQ7v+8v+VyoHf8VtakyWimSZYNlfTYI00gipHc/vm1/HdOSz8/xTNNqIfKqp5pgsRQWepHl5Qm2hefIxLJ96KRNMnlMZiVpQnk55ZE8mu9B7kfS5VvXKKL93ItzTVqf5EfEN+TJjEtDy3eUqeblibkG+XFWszx+Cw3sjSBUd7VM034+0EbRe8lpQkQH+8lW+Pr0XtAvFA8WZrA6Fhe47516meaQMyHz0KjpbkEQmB0DFKF95jqmSa8Rl2qZ5pEkQKVqDilNMliI/+d4Zkk1Kt6xgivcf9ee6ZJ7/gKnhvSS6+ZdWrzS0oTILbqwe576T0g3g+CL7h2acLfTJ2nbtXrxpgrZyBNgMFr7g9aeivz7svgaZQJPVnBB0Z+McGyNzGvXnrI0qSXtsq7lxZG0kQzbLY+0wSygBBVXJnejB7JmyyJ9pSltAwQ5PJpW17jV/fksydfGMmKLE1GdWSQizpGQdLLO8aiQf5eWqikidLnJbZ6okP76S986ONaGH1gh15elTTZug/IlzWcY/17ZcEx0iRLBqFj4iyUXtoevfSnkCY9GZLLVFlR/sR0WTJQb76U0/b54fERzd7IdQPyqKRJr0y+dJCeto5fNCrZ0UNp9SyW2A/WhExsP9UrxlKlrfZBT8YoX+4Bp5ImnFsED9creTK4xpbvgRWSFwxyZJFAObSXREdMn2XH6DXOK1/kaUvF3Evb208eDBzTH/WgdqXNzw3pyZG9++FQaSI5kmMjZga8szSRdKCNtkoT5ZVFiI4jLw30V4ICRvIhHzNKK3lwrDTRviw8cl57Y4FqVki1D1Qe7xUMZlRLcwFlMQCZJQ/xMRDO/Vn9tWIkTSRBuI9Uz1zJsoG8GPDg3neoNOkJGeXNfUuSpCc9JCzof9XMENE7HrI06aXtlaX9l5ImSs97ZhxUIo7/sMShJY+qvNn3m0V5DJA/bzmnUZrQt2gP5ESVnvMkaaK8c1pi4/Md99S4HFOEND8ZltyKaSppQnpEB/1N100cTN0iQrZIk54EIR2fx6lTjLeX/pLSRGmzfCBmPrsSs+o5kiYfvJxPPdMk7st5S7DQHyRNiKOSIFUccE5psnUfkDef4YiPfkbeKo/BZr7bxvJG4gP4NT33DeqVRUc1mwQoj2fwcFychbJHmsS0WTSQP8tr0X5cP7yH5e8qmXwMn5PiMdVskngcdYmSpZee9qI/ci86Vpr8yPJdJp6vLaIj0nudevGcS+qlWSFV2mqfjufHG/QzvksrRqVnVkd8Tyd9FiTVvhGk3ypNtu4D7oG8l1IXtTf7qrJgJE24j9AG2k+bPXL5jBPvF3eGa5ImbHE9N77YaMkCOjI3c2PMHWNFmkgucJ9g8I43A76sMWVe9xDeiPkQXB3Dmy9fbLgPaV8e3B7JjSxNct78YquX9yhfkDSI+XBvrB4EH9Pz4YHBmXif3RNXRkJGx9K+eq4K+7I0UVk5du2LZUmE6D7PsgDkTz2zTNmTr/LuyYosTTSwrzrSfrmOUZoQix6GvhbLKI5KmsS8dS7pz3xoYl+19JakD7FWr2d6IqOSIQwaSxxRDucjxsiHPtVf+7JM0cwP1rAnLdeclufiHPe+ZIykSW4n+iBtpQfOV6KhEgUVvfSU2ZMh+RgN+NM+3H9oHwYt1h4EH8tU/Wl7zSxRDGp75a19a6JCYiTPdImvZWkSy2RQmmuB65QHGLIvz9qIAmEUCygtfZcvTohu8tbzYIglfuHhyzcx0iZcUxxPWvpoFjiVyIgShOPVr5Qv9WFKO8ciUvi1tO4Bp5ImQBw81FXXbdxI3xu4lXhQe7F8o9qL/pNlSk9qAOdVD3KnTPpYPK9b5EvM41OXASP6I1KIfdVyXiqPPs+9jfKy7BGagaH0Ol/az5dGyuSe8rCBUBI6LsbK4F/vQfASGpx/rk3agfT0C8nZKGBivLzHx/sW9Ucc5PamH7BPs0ygEhQxj0o+VMdoSaxYX37J3Hv4utJz/8rxV/nHOukYzmlVJ+X9aRtjkaCg7bmuuCa4bvI+IfnCtdGbSaIHxOclqiQ2RsdCjIlzre+stAF143gGN6LwkAjh8wQx049zH4rxaNaH2nMkwZU37Ue7krfEEPsYmJE0YdCEZbN0fpnxRb1/dDlXo1km0BMhkKVJLIv3/6qsPDCqGSik58cy1Lv6LNOTGHmfqKQJ8TEjRPFRHjNJiI99cVZJFBvcz7i3SK5wTrkeaHf6Mu8tOqdRmkhmUPfPWM4r54m+pPMkaUJsehg8aRm8pd/TnuyLD26v4L2A64DBXwZXieP9lvbhAfFZpnzIcl7pu9XSXPRVrvtefnEATmn5jM1nUT0sXrKD+D9zyYc6cQ7Yl+XIDNJE+2jLzwoxc27Yl6WElueKaZkZwPVJn4rShDbjYc70B9LT//TsE/UHSROO0cPWScsA+CiOc0oTBuIZhOda4FpDcPIeoPg+O8THeWJfFhn0I9qJ9mKQnP7EL+I5Lz9cyBQhAYLozD8woY1Yoovy+GzLDDfuCfRP+leeJbJHmlBn3m+pM9delrqa6cH1k8vpkY/JfZxZyFxHfE9QXXhfoX55GS7JFO5F9Gv6kmar0J+5Fx0rTYiT/soSqHwGIn+u/yhTelJDsI+ZL6oX9zvqRd+jXpIvUOXFv3oYPM/K47zQz+h77OP7UCxX6elrfLbg8yX3dbUjMz9iOzL7gzopbe8h67BHmtDH9Z2Fa5L7L6/pYfA8v0R1oQ+zL8sUPuciWXkv4zMI1wztxbl5Skem8LmK9y69p2vJLs7lnZyBck3SJH9pZPux5Qt0TG+MuUOsSBPg/hAHuOPGF7koTOIxvFHFASvuQ4/ICVfkRpYmMMo7Hj/KF8hH8kD5MOjMB2nqGpfnAj7w8iau8vLyWFvjqmCgW3nrOAbrWDKRWA4tS9KENiCvmJ7BjfzBeGu+MJIVWZrAWh3zUlxbYxnFUUkT6OXNtPScB0hs0BdzXhV7pAkgOOKMG14jRj645hj5JUuOkbR8ccrXKOc4y5DISJqAYiDmUTtVQmJELz3lbZUmpNXAv2J7/HL9blmeS3BuSc+5VZm9etP2a/VTHWjTPBjXkybAcTyDI5fJF75c5iHShC+CrAUuScHGoGSOQ8cwOKV0yAO+4DIQyLkZSRNgcJ1yiD8ux8UXkSgyVD9kIelPKU0kZKi3RCJfIKP8qMRJlBfcmySc2CrZ0pMdQudVA75sfOkjrizCevmQB4MlOY8P3JGW8nJaYLCR7wL0u/iQd/JhgIA2jPegqg0iHKcHwesYviyztIieB5MHDam7BqFJzwAFg2KUxX00ShPi1cCw4s33EOofzxvp8jNWKkGh4/dIE9LrQfCxvvyaNy/PBTn+OCOjyh8og8G8tToplphuFAswOEvbcy0qlmofSGgwqJfbBiQYqlkcUYbkWSgRpYt9Tht9gft31f9oO+oY+xCDKdzjssQhTgZCdA6q5bQiyAClV9szIMR9i3aKxzOQxKC15FJMnyVGZo80gV5ZDNhUZVFvBuHoq6SrlvaCSpBU+0QlTYD4kBL06Rgf/SvXj5jVP+KMEA1ycywDugxSqS3yM0kon0FhXYsqi/NE3nHprl5sCI5cvwzHco3G/sbG59484AvEzLr4XDfV0lzKL/d78sszXhhMZCBR5zAux0U+nx7kpOrELJxcpxmkifYjIyWVYsxZXJFWD4JXWu53LA/Eszri8lzAtcL7vO6H5Mtnbb7P0q8kTZR3FQeiJcdxTmkCvFdLImpJLuJDzHMNxvgQgzkG0vI5KV47bHwmHv0CnuMYVOazayVWqhgYeOdzZdVGW6UJUGeuEeqcl82SVOH6WVuaS6wdQ1348Q4D5bEufL/M7QlIBvLSewCCgx9l8FmHuhwrTUjP5036leLhs1LsM5XoyLAfIcC1HevFd5dYr15eveO5Zqr6kJ48cnrKy+edvsd3I96vSJNnb0T2SBPgO6lko/JVbJJnio33g1wX0tL+9MH4HYxZSnF2DfRmpvB5g75ADHEGyp3hWGlijDFTs0GaRHiT4osKX762sjf9Hk6Rt+p0Sg6Ni1j2HjcqK0oTnWPSxw8bPUb5HsOp63gs5LvWHpImeUmvS7Gn/qQ7dX+GLe10E+j63XoP2wsDMVvbXvAFo/f8ji2cu62pUxamFaMv2Mege8A58gauVwYzK8ECGozPvx6DSl5sba81aM/eea3KrVB/zHFXjMrbA/nsvcYoNw+irnHq/naq+m/hkPoewpY6nSuW3rNR8utZ+lySU/ehCAMre/InLfeNremP4ZJlHcIx8e1pc9h7nhhczwPaW6EcrrXR50JJEwbg8mBdZkt+W1Cdjs3nkmyNmfNL2tH7ZET9YS1fgWDdEsdNsSc+BnjpT1vbimeqIGx6S3gJ8j30et6LBAhLE1c/7qrYc8yeupB2S7tvJUoTyQvOLzFviWfEqF49aRLZ089gVN5Nw488ttZF10yv/0uO0HZrn8XuFJYmxpirZqc0MbeLSpqY/Wj5qy1LcxmjGSV5Vou5DKNZKbBXmlyCmyrXmK0wc5Hrqre8Fr965r6Xl+Yy5i6jJbWqpbmMmQnkEjO6WCYrzxS4KfRw9q1Lc0E8Js+CmYlKmlyCLdLE1PA8E5aCjEtzGUsTY8y1Y2ly1ViaHA6/IOEBnPH5L2u/WDJGsJQVz+Cplr8y54WZGJomj+iUuOKa1lJZLH1Q/ZLs0vKCmFgCRMuZ8WwC36vNLNA/WdaIgV+ESX6eSEzHQ9qZjbl1YMuYa4WBSJY/Y/kohEn1rBNjZoTls3ieYbVE16Xg+mHZQz0MnWUF8zJJmUOOuWkuLU0og0F/lrPj8yZL21nkbof241kpzLbtPdfvzmJpYoy5aixNrhpLk8PRc0l47+eZDjxY15it6IHo7+Br70bIz0/RxhdFvjT2hMilpYmWEiOu6hklxtwkCMifXq4jnhPC2u3V/UzPFBk9r8SYuwLXzU8s6+Pzy32WrvN1YW4DLG3FM/545uRNCXBmvPB+ww9ceCYMz3pc+2wUj+GZI1uOuWkuLU1YWornQfF5s/ecEtOH56UwLnAnn1myhqWJMeaqsTQxxhhzpej5DnoukN/rjDHGGGOMMeYEWJoYY64aSxNjjDHGGGOMMcYYY8xW7iNNvHnz5s2bN2/evHnz5s2bN2/evHnz5s2bN2/e7vLmmSbGmKvFM02MMcYYY4wxxpib5957733Bs5/97D+b95ub4d577/3l5z73uTw7xUzAPffc8/xf/MVf/D/yfnMzeHkuY8xVY2lijDHGGGOMMcbcPJYmc2FpMheWJnNhaWKMuWosTYwxxhhjjDHGmJvH0mQuLE3mwtJkLixNjDFXjaWJMcYYY4wxxhhz81iazIWlyVxYmsyFpYkx5qqxNDHGGGOMMcYYY24eS5O5sDSZC0uTubA0McZcNZYmxhhjjDHGGGPMzWNpMheWJnNhaTIXlibGmKvG0sQYY4wxxhhjjLl5LE3mwtJkLixN5uIU0uR+rbVXyDs7VGnZN9pmJNfhErzkxO1hzLRslCZc02/eWnu95Vq7BrhfXEtd7jrH3v+PPf42cI11POVnDbXP2r3wGuBL303Xc4YY1qBPvHqKM8ddpbmt5LpdglO0H3FX7+Xkyz1ilDfHrqUZcYr4bxvU96XyzjNwqXJuA6+2tMVd6memT75X/6nlenmhsO+UkD99UPm/fFFWTnMTEANtc5MxnAxLk7mwNJkLS5O5OFaaMMD4a601jn27/GLia5Z03xc+/Mfje9tavpfmo5e4qM8loTzaijYzxmxkRZq8e2vtBcV955mttdfMiW8R3Df/sLX2Mf4SehV81dJP3yC/sJF4/LX2B9XxDa+kjh/ZWvuD1trXtdZeOL+4g9dtrT1tuR/wGeJa2qcH7fb7J2i3Y/iIEMOL5BcngD7x1NAn3njpE8T9eylu7XunWz5Qo3p8fWvtT+QXz8iXt9Z+tbX21w9sv7/WWvsvRftr/w+01v502B/hu9Z3tNZ+vrX2Fw+87j+8tfa7rbW/d4PX0yV569bab7fW/uGZr12V848u3B9nhLb4H24Ls/AhrbXfaq19U2vtJdK+dztxH/mrrbUfWt6vf3358Rz3PJWPpBAfvOzne+MpY9jDW7bWfrG19sBruB9bmsyFpclcWJrMxSmlSZQhmV467WeA8l2XD055O+UvLU8Bb1Q/1lp7//zCmbE0MeYABtJEYoHr6qOWX2FzfT1xuVc9t7U265vVKy4DIdxPq18qWppcBs7Dzy3n4aXziyfE0mSda5MmfHl/SmvtkQcOtgKftb57uRd8QGvtNa6kbfhc+LOtte9vrb1seo12+5Ej2+1Yjo2B+j27U79joU985yLkPnD5cYD6xJu11n546SsakLkWaVLV7RIcK004/nsLMWJpch4sTS7PrNKE+/B/WK6xP3fg9WP28ybLe98Htdb+5LLvHNIEIfLty/vbh7XWHrDcoymfz/SU/6Ih/QzShJj/+fLDhih0biWWJnNhaTIXliZzcUppMpoVolkmPWkyEi7mj7A0MeYABtLkq5d70oPzC4tEmVk63AZpwj2dATcGba71Td/SZB6uTZqcAvrnc5YBiJfJL95iRtLkGjinNIl5v1x+seBapMlNcYw0kRj5+GIA39LkPFiaXB5LE7PGOaQJg8P/fjm/eTmwihmkCRDHf7qG2SaWJnNhaTIXliZzcSppwq+g+FV2JT+U5kmFIDlWmvCBhg9b/HoS+HXf57TWPinsU7qHt9a+tLX2Np2ySMOyDqQhD/KqyGVW+3pxbIVjOJY8iBcsTYw5gI404R7AfYtr6vXTa8B19iXFjLLRfYI8+ZutusdwXed7B5BW96ct9wxiY2YeA8TM0uNLBPnGMrM0ifek3rJjHP+wEEcvXQ/iph4cS3lIKWL4riRNtpZT3Vcfu3LM3rz5l2P4P+c69hNeY8BQ55ovKPH13nmoJJbiok+N4gLq+4lLmW+7lLlHmqwdH+uwNS7a4q3CuaCeW8/F3rz5Rfha3qM6ZmlSxZHvB6A49HqOozom5k0s3Ety2eRD3636BbPbYpmRHE9vf4zz/iEtSzC9S2vtV1prz1q+6Of+SXwPDfHn/iFUJhImXi8MAlfxfHYRD+nUVtyfqvYA0jFQq5gelGJaqxdf+Kp2E1vqnPPo1alHPr7a18tT9fvlpX7vUZw3saUukV7eEr45RhhJk1j+J29sG8jlvGmnLUhH/l+89JlKTJOGXwnH/pLjVLpct7wvxsGvjrfUJcL1/I+XOIiXOI6RJlwHnKvq2GOlCa+939K2nLtefStpQruxTIzajf+vtZvS8H7KD1Wqc5nJ5XB+PquIl3Sqyyhv9RXSfW5r7S2KduV6qKQJ7UUs3MvzMVvbMqJysiioyhm1w2t1yiKf9w11faMibn5RTzm5vXh2BOXxfjY6RuVW+2BrPrRFlCa89pmhfvlY4Ff21O+LVtKp7biv8PqWvIHr651ba/+5tfbjrbX3Wr6P8+OD3N4xFtqa5Q7XBrOJ6++21l5pubcTI5+f82A8eb/PkventNZeexBzTLslji3pFafa72+21j5jab8YC+nUBu+wyP7YTjkf/q/zkOuU08KaNKEu7x3a6XUG7QQsy8X5fd5yfmkHzi9xV+XDSJqo/C8M5ee2FH9nqTvvWVVbrUHs9yyfgV8sv3ibsDSZC0uTubA0mYtTSRMG9PWsD/6N8BpChTejLEiOlSZ8KaFM3qDIQ7NZ4swX3tzibJg82wUUOxtLbyl9TgcqM9ZzSxxbibHwS0rF8WRLE2P205EmMJppUqHZJ9V9QgNa5NkTMdVr3Bv0TJWY5+cNPkRLRsR7TJUvaR7VuSflOh8SR4QvXJTHPYulX7TsWW4HBri3lkPaWIdcZ+oQjzkkb84p8oz/f21IF881a/8rL36drQGG3nnIYiPGFfOq4orl6v5Pmdz/t0iTLcerTOJiMK+KK3/ZJC3L+XAu1F7Kn+3ti3OxN+9Hh7xjm+a89awPXmMWBeljHaM0yXHoPDy+EwfrWvfi4Mttr46Kg//nWR1fWcS15TXF87Ep1q1xkrfaSRvnQWWRD+JhLf5YJhJWZeqZIVvi4XOYytJWzaLQ80h4PZ6vmLZXLwYFqRefNRnk/7jiHPMag9BVnWMsyuMxS51yee9Y5B2JMWjgZGueX1G8Rv303JFYRlUXBtFzu4q1vMmTAXJmNqwtz6XyKZdn5nCu+P8TNvxCX+V8amvte4qYKIs+o/y1n7rF2TGKjddiDDkdVHXbEsfoPEeQC4pF54M4uC8dIk0kPHjvq6TIMdKEQepfKs7d5xeDgZU04fjfSe0W+2BMiwT90ZCG9w3S8fyAv7HSJirn0zrn5+8v/UR1if3kz6S8VI/cV34wpa2kCe34r5fzmGMmPedBbUkataWWFqqopEmvHKVVO+geGdshDtCS/vlLHMyEVbvlurIULfdlBsJjndhPX1Z69RvO5X9cngsUly3akg8DozGfnwr5SJp8+rKcZK4fg9vxnoLoVP2eHtr8C1JcSstAdy9vJHJ1v0Luqb9oo88iXWIdyR+xUrX1aHYKx/3mcv75YRHt9I2ttRdPaZhRkOv5T4rB8pg2xsHzOnioeY5ja3rFiShRnLFNkBhsykv7yYfBV+WDFPrviyxQPrHcKEOUFimg8zmSJqRHflD+M0I7/dPUnhFkIveWfH4Rebwv/LdCSvSkiZ4zovK5Fvg/AkXPZAHag3sTdeeezL1Qz1LZM2tES3Tx3sC1lM/trcHSZC4sTebC0mQuTilN+LDHDRxBwq8RIQqGSpBU+/ag/NkeF/LgDU37yV+zNRQj+yQfiLWaJSN5kYXHSJrkOPbWT+mJR7+65TjyVF0sTYzZwUCaSCxwXfGL29E12lsOS4PUkhDKMy+LRd4MlMXjqzxJp8H4LDYi1bERxcF9g4FqpeH+wWDB3jiq9hNqA9pQ6VROFBF7y5HY2FoHLZO1N+8vW+SOzn9vyS3VMw7i99KK6vUYV8yLevFlj/s/v3BTWgkp+ulImmw9nvJ6cTFbI8cFEhu0F+JEbcwv11Umv5iEY/LmPOsY5R1FVSwv1pFfdpNHlAJamqoXRyVBNKCCVIll8iU4ygTlTRzxV8USOlF09OQHsTCIQ3xZUkDvuEPizCKE/Xxhr+LXA8zjF/hYJr+cpx+pD+R4VA6zsLSf86JrkHozaMI1LNEBfPmvltxSTFFU9NJCT5roGOocf51dPbRdeRA7EkB1oo0ZyK/KjYykyZY8iXW0PJdepy78SjfWhTJGD6CPeW8RC5U0qfLgvCJlaMs12aBy1BaqI31G+xlI4holH/JGxtNnJHiI4WeKelTxQlW3XhycEwbCc949JDA4H/zCWP2cmRXEQl32ShPVj3OZBwnhUGlCvj+91E3HkY7rmnOXl+EaSRPaDXGidiMmBrN/IZRXHa90DJqviQWVg4TQuWCgW/tpW+4N5E09KukQ6xylgWKL0qGSJnxG4Dzm2SeSCDFfYlD6LDMilTTRcXn2idJSX8SA2oF2ZMA+SiLFRF/8K6ENmGFDm31DGIiuYmBAljakL3Ae/1K4v6g82iHHl5fXIp9/teTDr+JfbZCPjlf96JekJR2D8dRP0kXCJe6jLAmaLEEkTcgb2VDl3ZMblDVankuv09b8+l9t/aFLuyJBstwQkhHExWcS7g9xpg55/+RStiQG9ZTM4V6peiotcVCvGAft+gnpOovpudcpPWKC9FHexDiREGpz+rb2cw1KbBHjv1g+izCbUv1fIoT0iBPJONoN4UBfY9yDWPZIEwZ4fyItsUUMzOKgv+f0EdJXy3NR/lZpEvOgXVW+pExMy/G0WdynWSO0+Z5nlDCjBlm8R7ZMh6XJXFiazIWlyVycUppAFAp8cGQwQBKlEgjax8YHgbzxZVlpK1Seyhex7CwZ8owY0vKBLS+Jk+smRtIkp81tsEZP1CgfSxNjdjKQJsASM/o1MxvLLDEImO87o/sEx3PtU0YlBmK6KFOycBG9PCJraSRNorQA6qHlFPVGfEwcVX4CMdArJ8bUK0diY1QHDdSP8s4yBXp5A/nzRbE61wzGZBGUBUGkEi1QHddLSzz8unRNmmw9ntd6aau4QGKDuueBP/LiNeWV/xZ781bc+TxXeSttnLUhgZHTVjIFNPhfxYHcII5XXvYp7yxeSMtAKa8r7564kOSgvOpL75o0yWJDcXItKc5e2RIRVfzkkWe/9MocvRbjyTNpVH4UG7ru8rJakgoxfwYn9kqTSr4A5WaJozyyfFBa6vQqKc7ISJqM8nzVJc8oJXL9QKJnVJc8M0VUwkNUYqGSENU+GOUdUTkMmue2QI7QFjl+lanYSBuXLBL0FwaTsmyo6hbjiGljHH+h044RzTJBDOTzIdmzV5qMnmcSX+c+zgwHZldWG/epNYkBlUyBKr1kRiU9cnpEAPe5PEODJaaqpa4ivXJoV8mg3K4qP88UqfpKJW+yNFF+yIZeXbMcqWRKJguLKDVyOUobhQdQLwQH7SC5oXxyTErLZxjNCJG8iDNHtI8ZcVxHMR/yZl+eUXJsPpImuX4SL3xukHThWNoizz6pZApImmSBQd7/csmbZcSqa3xNmkiOZFGjvOn39PP8ngmSEXl2iZDwiHIEKpnSS0sczE7ic5NkEUiOVOmz8OjFqbS0X66j8kfW6HxKhHxTmn2h9FGI7JEmvf09IRLppdkjTap9UMmUnujgOuBeWN3ne0jA8GO1nhSaHkuTubA0mQtLk7k4tTThQ5kkAYORUS6MpIkGLPMW01ZUAgNiHFlW9I7J5LqJ6vhqn9DyZDmOjGLuiRE/08SYA1iRJsC1x4BalCdca4/ICQuyNIEsC6ASE1U6IJ6eiBA90SDWZrzEvI+JQ2mqOHK++W/RK0diI9cBlJcG0/PfIuYdXxvl3eMQaUJcnKcqrigE9HdPjKw90yQfn+uUn2nC31viEhIbDODnvLP0OGXeMS8dH+uR08bBfh0rgSBiHPG1nqSAmBfHV2JhRLUMV0+8iF48vf1AOWvSZC3+SqiozCwiRq+pHAmGSE9sVJxCmhBLFiORLCEq6SGYTXGMNBnluUWaxLpksQA9oSFGYqMSC1V+xMt9T/EKYpNsyK9FqnIgHp9lRe+YzCHSpMqTmRfUMceRUcw9MXLoM02IjcHvLGJElCb5u1PeojRRvapnnORZKZAlCEhm5JkX8TWJCB0fZ4pspVdOL1Ydk2eK9FiTJnxe4/95WSuBEKIt42wMIL4sMzJRmiD2R+VkwRJhhoVi4DNYFiORLFSqOCmLGU5ILiRanFVCWXyeilICJDfIR3JD+RAHAmmUj6RJrl8lTfhBJe9pceZKLy1ImvCsoSyjlNch0kRihLbO0gB6QkVIRlRxATMliI3nJOVyJSt4jXMu0VHFkanESCQLFcUZBQjEOPiBUYxR0qOSJjmf+JqEyh5pwowOPgtoloogvm9f4kOW5msBTiFNECGUn8ugfJbQiuVLdLBsV+5PeyHG37A0MafE0mQuLE3mYiRN+DDFkhdx5gd/s19UYiEuVVUJkrV9e+jJCvLaK034cMSHBOrJQ+u1XvulpUkvraWJMQewQZpEuA+wnJFkbh5UH90nlE7CQoKEaztLAe3jWPLIvw5lf5YIkVNJk2PjgEqGnKKckdiIkkR5k3aUdx6o7+UtONd84eXLazzXW6UJcTE434uL/Vma5DjFVmmy5fg9cYmR2NCSWbQLbXDKvCtpwvFZhCitRADXhOJg4KEXxzHSJB8/oso7C45MdcxoP+Q8R9KkkhlQSZBq3yg9jMqpxIbI1x0D/JyvU0iTnuzIQiP/HZlFmsT0kZEIgGOlCeUjCbhm6Vs8eyZeW5rZUMUmqnJAeVO3LCt6x/AFn1+dM3gW+0uePVIdX+0Te6VJFTMcKk2irKiOkzRhwG/r8lz6e+3cHSNNsoigv+mZJrx/8tBlhGx+v6zolZPrFdt8JE3UVxjoZICWQX36SpzdoeO/dRlYzu0hiEHLWI3ack2axHLW0mapAJU0oV2qvKp88qwPCQ3kDVJI/+c8Vs8zEb18GBCN/yef+DwT2CpNqJ+W/GJfbnP256XAzi1NiKM6flSuXu9JE+XNfXdUzyhNJFFyHJksXXL6LEny3+KU0kRLdDGbZY80kRjptRP7aacsNMSx0kRihHK45tbKpwzKYj/3wn+7CEze4/N5WEPS5JMGS8BNj6XJXFiazIWlyVyMpAlfthkUYL82/o4D+pU04YMkA0ikj8tMVYKk2reHnqxQDDleyMeQlg90GsxDDPEBjl9b5rpVx/f2CUsTY26QndJEaAaJBvK5PvmCVd0n8kwTCQ3tq2ajkB9fIrmmGejJSxNKUldCBE4tTQ6NA1Q/xUKen5zKP6SckdiopAl5f3OR7968da418I9EY3BN53qvNNkSl9JmoSDOIU22xCVGYqOSJpQ1yjsvi9XL+1hpsjeOnow4VppkeaG/e0tzQS+e3n64zdKE9Ax8a0CXZ7mRjkF7BhUtTf6IWJdKTIxEAJxKmnBtfUtxXenaqp7TI6pyQHlXAiIfQ1oGvzVoTX+hLxKvZiZZmtTShHg4d3z3qc5d7HPHShPBIB8DwZwvPkfteRB8LifXK7Z5JU1Iz6+76cf0FZ6dRV+hbgz0VzNNtkoT2pK0VVvy2SFfY6IqpxIdMW2WCnCsNIn7OO8czz2K1xEh3CvIi/d5ltvKy36JKD6oM3Ij54PMqPLZK03W2jwuRTWSF6SfWZrQL/7ZoJ7ILPrhSIJkrlGarLVTnhklTiVNKP/Jg/Jz3/k7y3HcV3UvzEt2rWFpYk6OpclcWJrMxUiabKGSJsCbOB82IpUgqfbtoScryKsnIPIxxM7fvAlGenXLx/f2CUsTY26QjjTheuOLGuvIVvC6BuJ5SDiD9FzjTIWOVEIE4uyLPPMElL/S7OXU0uTQOIA89LBx2oiNdmN5M5V9SDkjsVFJk54wqFjLm9fig+2Bc71neS7iGomMyFrac0iTXtqKkdiopMmp8j5WmvTSVoxkxLHSBOISXVyflNVbmgt68fT2w22WJsROP3hIyueUy3P1ZEcWGvnviKXJtiW4RlTlQMw7C4h8jB5c/t4pj5tanquKGWaUJpVs6HEqaSKI4aHL8T0hIXrljOpRSRNmTNBX3ied5yrWePxoeS5iGAmKNaKsOPXyXL2Yqnw0g4TrheX+otDQc0n4mx+NSKDkfJWPZpBsySfOBtkrTfR3FUdmJC9mlyY9sRFZkyCZtfRZkuS/xUzSRDFU98kRp5ImlN+bzTKC47knUVdmpNx/Rx6WJubkWJrMhaXJXJxLmlRUgqTat4eerCCvnoCIx4zS9epWlVntE1ulCYzEyOg1Y0yHjjTJsyMy3BskTfgFUG/AvydNoijRPSAfy+C8pMxeTiVN4Jg4gOP5lZVmTGRhLkhHW20tZ01sxIH5U+Ud2ycP+u+VJqC4erIjMkq7Jk0gpsntlV/Lf68xEhv5tVPmHaWJ/u7lHaVJjKN6bkfFSEZEaaK/e3nT/6trIOavZ92MpEsvnt5+2CJNlK4Xv+TFJZ9pQtqe1DiFNAHqxfVbPdMEaUGdb8MzTZSeulTPNFFdzv1Mk175W6jKgZGAiMfQl3vpLi1NYCRGRq+NILYtzzTZI02oB/Hwy+it8eyVJqPXIr0HxEd6eVX1isdEaRLlRk67Jk04fvQg+C116JEFxpYHwWepAFGaUDf+JqbqmSa8xrWcZ4soj3+QxIiEyqcu71laYqt3PZAP7zfKR2JDQoV8eO/M+WyVJqRHdPB+8CZF/SpG8uIYaQKKpXqWCK/Rb455pkkv78woLQOg1CPGrvTVM014jbhv4pkmkiT5b6ikCTA7lfs9P4DLdVnjWGkCvYe77+GQPPwgeHNyLE3mwtJkLixN+ul4nXS5blWZ1T5RSRPK5dc2bLHeKjPno3ayNDFmJx1posFxrrc4A0REqcK1m0WD0APeszSR1GAGBsfl16EnNjiWJaxYVqgSInBKadJLuyUO5ffMRVjwyzW26n7eExW9cnrpIUuTXtq9ecf2ydJE53qPNJEQyOVUcSn/nFayhvv/SJr0jtdMEB3Pa6O4WOuduPLSVaRnoDXXk0EQyuXXsjHvLEHW8s7pIUsT6qi0ccAk1lEiIOYb047i6MmILE2Ulr6Q864kRXyNvsL1MlqaC3rx9PbDVmnSEx2kR0bQ/6Po6KUfvca1dAppogfTHytNetJCeanOlN1LCzNIk15eOo669GaB7JUmW/cBeTPoy7VVxS16x9MPejJkqzSR5Dn1M02IjYFt+mO+thlYp0zyiQOkEhvclyQpRvlEdGzOM7++V5r0RATnjjbj3MV+UaXXvqpszepAsnDf5mHi9LUq3ZpwqMqGql7xmK3SpBIiveOpU5YNOa2gLblf0Za53iKLkC3lZKkAWZr00kqAcG/Is0X0PBK9VzDbRa+TP89+4fMw9czlR3I+UYyQD32hymePNGEQn7TIhlw/3lNp81juOaVJL28dR1v38l6TJlFW5Lz5PkE9FZPSMlPjxVPan1zif/nUJpUIUXri1iyUXtpDpckPJUEBiA+ucwmRSppU+0b7KYPvCbRTrHtkrzSp9lf7gPz43Ej5Elcqi//HeCppQvt+0PI+Ea9HgTT5TztFy3RYmsyFpclcWJrMxV2XJkDs/P0py4cEYuLDnR76m+uWj+/tE5U0UXo2/i9IQ1rFwwdJPVuFfZYmxuykI01AsoBri2ueX1ZxzfF/XXMSKlqe61HhPsEXrnifyGVomaeemNEAfc5X+/KAdkb5M/hA3PEe2hMhUQrojTjHwRegPXGQ9hnhnhY3YpMU2FtOT2xAlibKm/Q57yqPtbxzPpxrBhqJM0qTmJ66MggX5Qxx6YHka3FJwKh9yEvPUWHfmjTZejzlrcWVBYYEBPk8a/lyS5+jXUgfZUrM+9Ehb+3r5Z33Q5YmkgDEQd7UkUFShInqKGmyJY6tMiJLE/JGCJAPg6vEwf3j6cu+3rJbnA+1Yy+N6MXT2w9bpUmOn35BHXrx98TI6DWVsUWagGa4PGZZ6oJzxa9eue6IKUqTmJ74iUHXXZU3EA9iJtaZPvy0ZZ9mmeQ88oDEJaSJ9lX1A9WF10lHn4916c0ygb3SRDM3uLa4X9GPKF8Pg4/nSzFVEiJSlQPKt5Ih+Rgtz8Wv11nWhPIZfNPDvU8tTZSWazfP/qBNVS7xcL70bBX2sWa9pAn5MEBY5RNRnnnGjDhUmmgf5ym2nc5nFgBR/HDPQYbFOvBg9/dc+h/tTx+PMUmifH5r7QHL55yHDaRL5BTSBBTDp4X6MlA5ehB8PJ5zoQH/KHmIQ6KDvKkf1wttyb4cd6SSGxIbuZwqrcjSJMbEPZKZdRyvh9NnIQNaPou2yGVoBgx9uJq9Ejk0nz3SRPuo36eHNleds4ToiQ1YkyagGSN8BuBzPPc/pdUyWpTL68y8oy5PWfb1ZpnAmjSRlOB6+ozW2mst9aTu7IsyJabl8yg/YKFsxaFZI1XepOfeFOOO6U8tTbhn/JtlWUXuIzxriH4RZUolQljC697lPkQ/0XNrtEQXdfnM1tprL+3EeWFflimRvdIkx6Bnyuhh8J+VyqffxOWzuOdQV+r8Osu98P2Wuv5wkimKgfaKM1sEefH9c8+SXtNhaTIXliZzYWkyF5Ymf5SWD53s08YDJZnqWdUtH9/bJypponpXEoQPH/wKVbGQhjdM8q7SG2MGDKQJcD1VA/6aOSG4T/DlKabhYaLcJ/iCW0kTiYsoKDLku/Y8kB7cUxQ7x8R490gT7T80Dn79TxswTVwzTeKAepwNs6ecNbGRZ4OcKm+d65gP55pfdOXluYDzwGCzystiY09c3P81cK10tCv3fy1LNaI6ngGteLzK3BNXFBvkpYF/Ngak8uwT8uaBwjnvR67knV/L0gRGdeT8xCWnFEeMdxRHT0ZkaQK9vIkl5y34Ms2vq+m7o6W5oBdPbz9slSbQiz8/UwR6YmT0GvnvkSak14PgFc/jW2sPKpbnAgYYnrr0A+LWsltV3oIyHrvEO6rzFsFxbmmS65eXwurV5b2Kekf2ShPgGRScgxhHVT4Doh9Y1C/TK4c8t0oT0upB8Cr/CUt/OcfyXFy7edZIhPc9DUyrLRgY5P2RttMx1eyTCuqHGOD9sxILh0oT7f/spT/Gc8eySrkdgPMvcUbMXPOSGdx3JZPYuAfFfkVZDJ5KIPXSVZxKmpBeD4JX+Uict9iwPJfQUl75ge3kzWBp1Za9AXPoiZCqnF5ayNIEFFM8L8TE8xOqmEgv6fDOqQ9IhOR6V0ShMconP49kjzTRfgbIc/349X1un2OlCfdLBrSpE2XkZcGIBakhiahYGAzPsUTWpAn08q7q2Uvbi0Pp6VcxPdd6TH9qacI+7hmcb5XL5/k4k6eSJkD/pQ9xH4rLcRELAi3X5UMHbQt7pQlwT2eGBzFolgflI01jnVR+bjPea7i+472Q7495NgyChuecxHIEsf67zqyVW4WlyVxYmsyFpclcHCtNrgk+NPKlZxaIhzdDY8wRrEiTiAb8R5zzPkG+M1zze+JAOjEYX8kHkNyo3vT3lLOXU+R9jnO9Na5j7/97j1+LqxIbHEM5a6zlfSinruMxkO+WtpA0WVua69Jsjf8S6Lqr7ienhC+Gs9T5WG66Lgw63tTgDfUeDXpeGt2XThEPy0dF4XIODjl3lcwgn94ynoJ+eolru8e5+8ohbXlubvrecG6QKfw4YIY2p625Bs4Ry5567o1jb/pDqEQKdTp1uWqnc90v19haPpKE+8VaugoJlUrq3CosTebC0mQuLE3mwtLEGHPV7JAmZj+jGRswkibm9lBJE7Of6iHrxhhTwQA8S0gxO6maIXBTVNLEGGN6VNLEHAYzjVgu8FYvzQWWJnNhaTIXliZzYWlijLlqLE3OCr+oYokMppAzsK525peNWvopL2dlbh+WJofDtfBmy1IgtGG1VJYxxlSwTBhLavaW4LoJLE2MMXuwNDkNLPHFM1RYfpL/32osTebC0mQuLE3mwtLEGHPVWJqcHdYzrp4Lg0ipno9hbh+WJoej54ogEJ+1PLjWbWiM2YKeXfJOE/2q2NLEGLMHS5PTQDv+YvGck1uJpclcWJrMhaXJXFiaGGOuGkuTi6FnEZzz2RHGGGOMMcYYY24pliZzYWkyF5Ymc2FpYoy5aixNjDHGGGOMMcaYm8fSZC4sTebC0mQu7iNNvHnz5s2bN2/evHnz5s2bN2/evHnz5s2bN2/e7vLmmSbGmKvFM02MMcaY28+999772895znO8Jv4k3HPPPb/1vOc978XzfnMz3HPPPb/5/Oc//yXyfnMz3HPPPb/xghe84KXyfnMz3Hvvvf/1nnvuedm839wMnmkyF55pMheeaTIXXp7LGHPVWJoYY4wxtx9Lk7mwNJkLS5O5sDSZC0uTubA0mQtLk7mwNJkLSxNjzFVjaWKMMcbcfixN5sLSZC4sTebC0mQuLE3mwtJkLixN5sLSZC4sTYwxV42liTHGGHP7sTSZC0uTubA0mQtLk7mwNJkLS5O5sDSZC0uTubA0McZcNZYmxhhjzO3H0mQuLE3mwtJkLixN5sLSZC4sTebC0mQuLE3mwtLEGHPVWJoYY4wxtx9Lk7mwNJkLS5O5sDSZC0uTubA0mQtLk7mwNJkLSxNjzFVjaWKMMcbcfixN5sLSZC4sTebC0mQuLE3mwtJkLixN5sLSZC4sTYwxV81OaXK/1tqbL/++ZH7xlvEK6W/qQ71uCzcd702Xfy569cr95RAucd1c0zV6bbz6znNyij53bqgP9dJ7CF8o8/tJTnNKKG9Pm26FPGn/c8R8NixN5sLSZC4sTebC0mQuLE3mwtJkLixN5sLSZC4sTYwxV80GacLg0ee21v6wtcZ9MG7PbK29Zj7gFvBRS32+NgyKad+DU9pZifGOzt+5+OrW2gtaa2+QX7jlqF3fvugb9JcXSum38rattT9orX3sGc4X1+jndK7RZ7XW7p8PMBeH8//7rbWP29iHPnJJ/3WttRfOL07A67bWnrb0uV9rrb3Rcp0o5hcJaT9i2f+OG+u+FWL4pTPkC2/TWvvl1tobn+F6PRuWJnNhaTIXliZzYWkyF5Ymc2FpMheWJnNhaTIXlibGmKtmRZq8YmvtGUGQMPCnX7I/cdnPgNnr5wMn54GttR9trT2iGBi3NNnGbZIm9OOfa619X2vtpfOLiUqa0N9zf9nLuaQJdXv6EjOC5N1ba6/RWnu91tqXLueIazTW5xAo5zlLG75MfvGMqNzvv3C5p2avNGHQ/imttUduTH8szKr42aWd1wZNkHTftfTnD1j6G32L6+RHipjPJU2+orX2vRviPQTq+J2LKI0CaGosTebC0mQuLE3mwtJkLixN5sLSZC4sTebC0mQuLE2MMVfNijRhYJx739d0BlzfbhmsZSD1tn/xsTTZx12SJqfgXNLkq1ZmwfBr/F9trT23tfbK+cUdWJocx15pcmn2SJM9aeEc0kSzTGjPc83EIe5fuU2zTSxN5sLSZC4sTebC0mQuLE3mwtJkLixN5sLSZC5OJU34xdrDl199soQGvwA1xpgbZyBNuE8xKM5ga+9NiXsbv/Tl/phlw9b7HgNwb738Whn4tTLpPynsUzrlx6+w4zr2OQ9eVx7V8mE5PYykCWU9bCm7l+eIeDxxVTNzcky0w2MH5cV4+dJJerZqfX/yzPXdA8d94hI7g7/0l5402VLXilz/N1upP6isLxmURb971yVWZku921JO74t6JU2I7a2K9sv7RzH3pAl1IA/OXXUdjohC5JXyiwGWelLZGrRmxhjtgJTIUA/iURtRzrssZdGGzGaJbah2oM7UgddiO+R6UTbp18qO5WoWzejcRYjpw0PfYHZZjiPHHc8fS5rl9D04hw8NZXFN5GOzNKEeX9xa++ROWTm2SCyvd7zYEpvaGUFAO7/HoJ1HaXsxj6TJnrpEjhEaW9oELiFmToqlyVxYmsyFpclcWJrMhaXJXFiazIWlyVxYmszFKaQJv8RmaQyO55d5WmecX2tWg1vGGHMxBtJEg8cf0xlQEhqQZ8BMcN9jkLq67+UvSJqt8qjldaXVhhRgsFT5VXlVecRyswhR+li3njSJdfmxcD//vJV2EQyWbmkL0uU65HaI5eWZJpIYlTgYvbaGyonx8wvzJxfSpFdX0q/N8JBUoP6IOJWpLc/8ID2D6WtlaSZGzItz2BsoraSJYsvXwp6YK2nCZ4DvCe1YxTOCWHOeFZIrsW0kUnK7KqY4M6XXhm+4HCsh8OjQDswO0THvkMpQ2Xk/ZX93a+3nl7Ipl3S9cnsof9I/NfTJPFulijuWleOrIA8G70kf69wr6zEb2wjx+3vFzBT2q7xYt8cXA/sxbY4tDox8ZaedeU5Jrj9LYvXSUkfFHGPpSRM9NyTX5QlFXSL0E5YH4z65d4Anlhnb5AeKvCiHJboo5+XSa1NiaTIXliZzYWkyF5Ymc2FpMheWJnNhaTIXliZzcaw04VeUDDywxV+ofvTyJY1/jTHmxhhIEy3NlSXCGtz3GPTkvhd/ba/B6LzUlwQGZSEi9AUKUaL9DMoxIAcMZDHoGJ+lEvNgAFt59GbLbJUmqksUHJRP2yht1XZirS3ig+glTXI7qA5ZsmRpouPzwL7aKx+/BcrWTAY9TJz8PncpS/IBtARWTAtVXSskFar6E0NcWmtLWXFw9tjludakSY65khSVNJGMWJMePXR8Fh8ZLXEVRcgeaQKj5bkkBGgHBITqTDswaJ/z2ipNYO/yXL30VZkxbqRDjjvnkaEshB31e0DIt3qIeywLcRLLYhCfPF4l5FFJk2pZLNpM0iNKCaUl39cqYssypsq7Ry9tjHlNmpDHs4u6SMpkwRLRsXufN6LjaJPXDm1CfMSdH2APxMO1fMiMlotjaTIXliZzYWkyF5Ymc2FpMheWJnNhaTIXliZzcaw0kRxhgC7CF0OWBODLq2ebGGNujI40qcTEVir5AL08JTDyoLrSM8CVY8izYHp5xLQxnq3SpNoHlUypyGJDVG0h6ZHrENshfjjIeUcxEGOSdMn5biGXITSwHqVJJRt6aSskFXKccRBfS1DtLevc0iRLmirmLE0opzp2KypjyyyVmFazNM4hTaq6VLKi2geUfaw0IY9qiSiJEGLMIiPKDYhxIDJ6SED06kF7a7ZGryyI+aj9KmmidFkoVBKjl5bYPmvpf/FaqPLo0Uu7R5pU+6CSKZlDl82SHHmnok2YucL5ynKkd8yUWJrMhaXJXFiazIWlyVxYmsyFpclcWJrMhaXJXBwjTfgSxuACgze9tfyNMeZGObE0WTuukhCVwADllWUB5GPy31XaOBhfpa9iY0ZJVf4oNrGnLTSommMSVRz5eKXLy3BV6bYQ469kR3ymiQbae2krEZHpiQmgLAawERCHlHVuaVLNFGEWiGLOael//D/ORNmL2mEmaRKfmZJfi0LlnNKkx0iaVHEze2MkTaIYqZYLy0JFZeUZHqDZJjG2SprEmHK7Meiv16IEqJbYquiJkIpe2j3ShBkcxPuqg7rk14TKycJlRGyTLEagJ0co63eL/VNiaTIXliZzYWkyF5Ymc2FpMheWJnNhaTIXliZzMZImfAFjtggPu9XG3+zX6wwuMPDAl35jjJmOM0mTPMAvKllR7YNRXvmY/HdEMy3ismBV+ixNVD73fgYIeZ5J3NhfxSZG8UOWJPnvyFZpUuWhY0cPCq+I8VfHVtKkl7YnHSKjNJU02VPWTNLkm8OScVX8W1E7zC5Noqy4pDRhYJ8HlvOw7yctsxc4r9WSWVXcW6VJL02WJPnvyBZpQnkM+lMH2iPfj9j/C0maVIKlR0+EVPTSbpUmio8+MKpLT5rk/LYQ26TKV3Lk41Psvf1TYmkyF5Ymc2FpMheWJnNhaTIXliZzYWkyF5YmczGSJnyRZ1CB/dqiIOELmqWJMWZqOtIEDnmmyZooqGRFtQ9GeeVj8t+RY6UJ4ohB1yjIoyjvfeEbxQ9ZcOS/I1ulSV6iS3/n58hsIcZfDe5bmtysNIHZnmlSyYdLSxPyQJRoQJ7n7zDwzUA7z6Y49UyTXposSfLfkT3ShL5DH8r3It2PaKPbIk2oy7cU9Yh1qcj5bcHSxFwcS5O5sDSZC0uTubA0mQtLk7mwNJkLS5O5GEmTNSxNjDHTM5AmGjzOA8UZ0vHr4PfYIAoqWVHtg1Fe+Zj8d+RYaVKVv4W147MkyX9HtkoTpaW+zBBSPXOaLVia/O/jqzzj/j3S5FTLcwGx9sqPVA+mv1ZpooeiPyTFcq7luXppsiTJf0f2SJMtImRPWtETIRW9tHulSU9grJHz28JamT050ts/JZYmc2FpMheWJnNhaTIXliZzYWkyF5Ymc2FpMhfHSBNgkK73TBO+dLIZY8yNMZAmkg15sD6igfW4jBcD3L1lvarZK5XAgJF0yMfkv0dpe/uyNIFRXbYQBUaG16LQOJU0ifnwHtSTC1uIYiSTX8t/R1TXPEAf6YkJiNIEEBK9sqrZF7NJE9JKeFQPT9+KZMjaOVabRDkgcZGFwamlSfXaqOxjpEl1vDi1NAHSxCXP8mtRDI2kSfValiZAnpzvLc8pGaXlSx+fP+P+ngip6KXdKk2AZ5r04ltD5eyRJqAyq2ea8BrnKz+7pPeskymxNJkLS5O5sDSZC0uTubA0mQtLk7mwNJkLS5O5OFaaMDDHcQxcRbS0F4MPfMk3xpgbYSBNQJKDe1j1xebdl8FYLQcFlZAA7nsMQubB/176Q6RJjENEOSHy8Xv2AXVhyS6WycnlRXoipGqLXlqopEkvvQQBbffMYmku2pWBQAauczmZ3mwjhBqDj/Fh7D2xoHjWBvZ7x0OWJr20vbL2SJMq72pf3H+INJGcyIImnp9R3xISIsiAqm7vtpSbJUiMJw4GSy7k9FukSSU2FF+cVdKTFVXZp5ImEjWneqYJVLIDiBmpQD10vNLquSORKFhG0qTaB0iMb1zuR2ojpY31VdpKePT2V/TS9qRJtb/aB7EuvTjoJ79UHCvoBx+2nPPYZ3qzRiiTZ95wvvIsFK5F+mQWLb0ybhRLk7mwNJkLS5O5sDSZC0uTubA0mQtLk7mwNJmLY6UJX6oYYODYJ7bW3rq19q7LQBb7GJAzxpgbY0WaSFzoYegMEOk+9p3L/jwTIx7DfY/XGKx6RjHLBHpi4hBpQv7cXxkoJk7Kr2RKPh40s4b6IAtIH+vyqNbaayzptC/HnInHf1mnLeJAco5JVNKkildIduQyQOVUr2UkG1R/2pQ+QLk695ImUQJUdR3NMoGemIAsTUZlZQkhNHhPetL2vqhr9kZs115sWYRE1qQJqH3VjuxXui1tBrEtuEaJmfpxjX7Hsj/mLyQjeO2jl2N4lgTnVgP+WTz02lBCgJiftchU+gr5UZcsPPaWLanw5SvnDpT20a2111yuE55xcuoHwYMkDfkSG21MfE9f9lWiKLeRnr+S2yhKBcVGeXoY/GNC/RRDLy2xUT59QrFVszRiO5O+1857pYmWH+N8cw0h9xQf5eW6sC/nEZHkQBS+SH4xxEFbx3rGMplZwgwhzsHTljapZpOQjms0yxQJGMqojrsRLE3mwtJkLixN5sLSZC4sTebC0mQuLE3mwtJkLo6VJsCXtMctX6y08cWRL8zGGHOjrEgT4B4WB8rjhpRgsCvDMTyAWYPzuu/x3JNMJTDgEGnC3wzCxnIZ4M1fyvLx4uFBREgE9eryiA0D2tA7nrbIA/BVTFBJE6jihbi0Wp7doVkixLEmTQBRJPERY6ed8xJZW+ta0RMTkKUJ7C2LgXoNGFcSIRLblXT0lyq2SoSILdIE8hJbeRZPzreCttCDztUWsf/fPx+wQEzxGAbzSavYszShDTXATHxalirKB/qFpA8bA/DVDJiq7Ad0yu6VW0FbSEQo78e31h54huW5gPJ4aHksjxjzM1VUFvvff4kltlGerVBJE6C8xxblfUBRh17aHJtARjw1tHNv6ay90gQettQ55qv4JJNGdYlIfiDDqwEezUQhr2qGSFXmexVlSs5Qz5dLr43KuDEsTebC0mQuLE3mwtJkLixN5sLSZC4sTebC0mQuTiFNInwB4wubMcZMwQZpEuH+db+dz2O6xH2vkiDEeepy99Y9c4m2AEkTBoirc8vrDAZWz1rpQdx76n6pusIly5qdQ6/RY6jkw6tvPCfHlt1D7VD1/3Oxtx+O2qgnTSIcv7X9+KLXK2sGVJet56u3bNYe1tpkbRmw6bA0mQtLk7mwNJkLS5O5sDSZC0uTubA0mQtLk7k4tTQxxpip2ClNZqWSJneZ/JD5CIOEzODJzzox5lAqaWKOY4s0uctoFsg5hQZihmXk8tJc02JpMheWJnNhaTIXliZzYWkyF5Ymc2FpMheWJnNhaWKMuWosTa4GZMibL8+GoC1YUqb6MsozL1gysnrNmEOwNDkdXMcfHpZo6y2RZf7oeSMI4HMM8nAeeG5X77kpU2JpMheWJnNhaTIXliZzYWkyF5Ymc2FpMheWJnNhaWKMuWosTa6G+ND2Z3aeNWPMObA0OR3xoelrz/a462j5rOqh9sfCTB/OwzHLf10cS5O5sDSZC0uTubA0mQtLk7mwNJkLS5O5sDSZC0sTY8xVcyXSxBhjjLnTWJrMhaXJXFiazIWlyVxYmsyFpclcWJrMhaXJXFiaGGOuGksTY4wx5vZjaTIXliZzYWkyF5Ymc2FpMheWJnNhaTIXliZzcR9p4s2bN2/evHnz5s2bN2/evHnz5s2bN2/evHnzdpc3zzQxxlwtnmlijLkt3HPPPb/3P//n/7w1D+a+du69997f+amf+qk/mfebm8EzTebCM03mwjNN5sIzTebCM03mwjNN5sIzTebCM03mwstzGWOuGksTY8xtwdJkLixN5sLSZC4sTebC0mQuLE3mwtJkLixN5sLSZC4sTebC0sQYc9VYmhhjbguWJnNhaTIXliZzYWkyF5Ymc2FpMheWJnNhaTIXliZzYWkyF5YmxpirxtLEGHNbsDSZC0uTubA0mQtLk7mwNJkLS5O5sDSZC0uTubA0mQtLk7mwNDHGXDWWJsaY24KlyVxYmsyFpclcWJrMhaXJXFiazIWlyVxYmsyFpclcWJrMhaWJMeaqsTQxxtwWLE3mwtJkLixN5sLSZC4sTebC0mQuLE3mwtJkLixN5sLSZC4sTYwxV42liTHmtmBpMheWJnNhaTIXliZzYWkyF5Ymc2FpMheWJnNhaTIXliZzcRelySvkHcaY62VFmtxvwz2B19fS3HZoh5fMO83Zoc1pe5H7WX79NpPrZgosTebC0mQu/v/2zl1XlqMKwyUegBgEITYpF4fYMXciMBDaODe3ENmkGDvmEnCJ4BUAR2CE/QRg4AG4PAIg9KNe0mJpVe2e6Zm9/z3n+6SSzumuqrWqZqa3pr7pLqSJF0gTL5AmXiBNvECaeIE08QJp4gXSxIsnTZp8c4yhcf6sngCA22QhTT46xvjHGOOfY4yP1ZMbWrT+9Rjjr2OMW/3D9dkxxn/GGN8aY3TzBJdH7723t79Hev99fIzxje11+PkY4z1bvTj2+Uf+2mgc/y5jgwakiRdIEy+QJl4gTbxAmniBNPECaeIF0sQLpIkXSBMvnjRp8twY460xxtfqCQC4TXZIE137fjPG6L7Y3Io0ef8Y4y+Tcd6KNNEY/zwZ4zXJcd9bTzboPfWrbc5fGmM8tR1/dozxu+1YvA63Ik00tt+WsUED0sQLpIkXSBMvkCZeIE28QJp4gTTxAmniBdLEC6SJF0+aNAGAJ4yd0kSlkwZIk8fDY5Emp9S/FWkCO0GaeIE08QJp4gXSxAukiRdIEy+QJl4gTbxAmniBNPHiUtJEC4svjjF+OMZ4bVuMvAs93/xT5Ve2avuddCzqRd+fXjx3X/W+nnJQf5Uaszs2y2Mv58wFAFyJHdIkpEgnRlbSZM81R+y9xuy51unYC1sdtX+6VmjQOL+0jfWdMcbzWz7Rf5Umyu97O/o/J5cgt9VczB6PpvlRrt1+GMpTRX3NxhhfVutroH+vxriK+4kT4lZW9WuOYiVNYg5/sBhHh+J8MsXReLq5UL3o/zOLManey+m11B2dNdcaszs2y2MveT7iPVXzsAdp4gXSxAukiRdIEy+QJl4gTbxAmniBNPECaeIF0sSLS0gTLbjpmexq/6f0q239irZb9AvUTvVe2epGuyg6/+XU96rf2KtERY/fija1bsRU/Xpslcdezp0LALgSO6SJ9jgKcaB/57ozaRKL2d01p35Bir5fnVxjPrdd6/JdL11f6ifq5Jhv3LE4/NOUa5S8j8ue/Gr/WkQ/JxeR29brZJ27mOeaQ35dPrAYo/YKEYoZY1Q7/TvHrv3PZIXi6tFae+NWVvX1Omjfj3zHzywPjefvW/vfnzH/ipPnIuejWHo/Rv9R3mzujIm9SmoetW7E/HbKL459d5HHXWMJ8ny8m/qqediDNPECaeIF0sQLpIkXSBMvkCZeIE28QJp4gTTxAmnixVFposeMxC+08y9I92y4HrJC5fUkFbRYE8e1AKNfXAud16KajuW7NyKHKiYihyw9VtKk5qEYilX7nXFkLgDgSuyUJvpSo4XbLBNEJ01mj7rKC/yZkBK6DmhRO9roWhfHFVcLvyJi5ly6mKoXi/A1ZqVrH8zyi/mpbbq+ai7dfItoq/nMdxPkTdA7eVH7rNJErB7PFdJEY5QsyGPUYnvuR8xkRZUm4pTHbYlZ/ZAId0mTrn2e/5pzJeLU11t3vcRxvff0vlA/MWa9FyR3VnmIECk5j5U0iTyij49sr8le4aE8JEr0mnw49a+7wB7d5vNIEy+QJl4gTbxAmniBNPECaeIF0sQLpIkXSBMvkCZeHJUmnZgQM8GRCVlRZUK01QJIbRvxsvRQ/fpIExHSI/e/kiarPLQocxdH5gIArsROaaLznSTopMnqmpP7C0JKVCGQ+66Pp4rF8lhAnwmZTmB0rOrtya+7y6aKjFWMYNa2E0V76s/kRY0f0qSOUXQxOlkhHKRJd0zM+q1EnCoT8tiyHBEhQrL0UP36yC0R0iP3v5ImqzyyyJoRcqTOR5Y9zzSvuyVIEy+QJl4gTbxAmniBNPECaeIF0sQLpIkXSBMvkCZeHJEmd8mAmUQIOoEhVrJi1qbjVGnS9am2XR6Vo3MBAFfiBGkiqqyYiYOOrj8RUqJutL7qu7bRXQRdvVUfmZXQqLGCWd/n5jITI8FKXlxKmtQx5nNZqMzERLegv1dWBLP6e6XJT7bXsgqFLreOLo5Yte+kx4xTpUnX52yMlSxGqugRM6FiC9LEC6SJF0gTL5AmXiBNvECaeIE08QJp4gXSxAukiRcraaLFCG2mqs1do+j/Oh7nZ3JDrGSEmJ1f9TtrI7SprDbYVZ6/SM+rv09pMqu7igEAV+REaRJyIRb+VyJgdc3J8U6VEiK30Rcu1VPfiqE9RHLR8a6PzKWkSRw7J5euv0wnNu5DmsQjuh6DNIn4OtbNv4530iPTxRHd2IKV4NDn4IvbBuz6HPxxex/cpzRRzh+sJ0uMR/GILqSJF0gTL5AmXiBNvECaeIE08QJp4gXSxAukiRdIEy9W0kQLO1qI0PEoWQocFQWz86t+uzaq/6O0iCexo0fn6Bem932nyazuKgYAXJETpYkIiaDjISyqOJAo6a45q/66Rerad9BJE13PtCidRXYW2qsvZpeWJufk0vWX6cQG0qSXJpr/XzZzv5r/oIsjurEFneBQfYmSEDjf3/Ygi88B0uQMkCZeIE28QJp4gTTxAmniBdLEC6SJF0gTL5AmXiBNvFhJk7s4Kgpm51f9dm20QKlj2lQ58xCP55rVXcUAgCtyhjQRegSVPrNfSZ/t+MOVz2Vm/Z0iJYJOmnT19nJpaXJOLne17cQG0qSXJp3Y2EsXR6z67gSHxIZy+2rp5yEez4U0gauANPECaeIF0sQLpIkXSBMvkCZeIE28QJp4gTTx4og0EVocnO3jETJDC3IdM5GwEhC1zarufUoTcWQuAOBKnClN4tw7W4mF/tXC/6y/U6REUNtI1Mz2AtnDpaSJUC4a5zm5rNrqXBUkdY+Z4JLSpDu3ilvFwkyCzJjV72RGlSZCQiH28DiHLo7oxhZUwbGqe5/SROT56Pqp82cN0sQLpIkXSBMvkCZeIE28QJp4gTTxAmniBdLEC6SJF0elyUw4aFFIiykr4TBruxIhtc2qruqo7qWliWLq8SMq+ncw62fPXADAlThTmohYsNbneo80ifq1v1OlhKht6v8DXVP0mCw9qmn1xeyS0qSTDGJPLqu2eS+Zu+rHazeTFzV+9PNmc66TNTOxEHelzOJeWprsPSby/K/ymLVfiZAqOFZ19TlQ3UtLE8V8efvbm1/D3E++m0Tz8e6WY74LZdaPBUgTL5AmXiBNvECaeIE08QJp4gXSxAukiRdIEy+QJl4clSYhLdRW+4poQUnPNNcvs++6s2ImGVYipGsTd3G8Msb40JaDcrnWRvBRv47vyFwAwJU4IE1iIT9LExGP53o1XXO0l8S1NoKPRWrVjbhPbXHjWO27I+TAj7drU0jfGiuY5Xckl9xWeeiOE+Xy9nasPoYrBIPustFivPaO0VzrddN810X7Osb4shrSRDF0TX4+9dXJlEvF7ThFmoSkiTzUbwgLxavz372OlS6OWImQTnDEXRw5B83RtTaCj/rqO985kucjv6f+sB2rd5mon39t/Xyhif2gIE28QJp4gTTxAmniBdLEC6SJF0gTL5AmXiBNvECaeHFUmggtWLy+LUBE0QJP3WOkMpMVp0oT1Y+N4KMon2ev9HguLQyp3+5RXOfOBQBciQPSRIRQyOJAn3MtDufP+RvbNafr71QpIbo2qq/NtmPxP64vLy3yz+g6FnIiP+qriyVW+R3JZdZWe8R0bbXIrXmNupIeT2+ioi7w1zHGI6xCmmiMutbn2Fpo777UruLWBX3F1SJ9jdtxijQRL2555H5nc7hn/mdxTpUmqh8bwUcO+hw8d6XHc8Vjv2Ieau6vJakS81H3WxHq52/b+Wea8w8K0sQLpIkXSBMvkCZeIE28QJp4gTTxAmniBdLEC6SJF5eQJpn3bYsXD4Hi6lffLjzkXADAxkKaHOUhrzmKq2uMA0dyOeU6eW4MkaVJvBeU957YR+LeB0fm/xI85Oeg45T3lB1IEy+QJl4gTbxAmniBNPECaeIF0sQLpIkXSBMvkCZeXFqaAABYcUVpAo+HTpoA2IE08QJp4gXSxAukiRdIEy+QJl4gTbxAmniBNPECaeIF0gQAbhqkCSBN4LGANPECaeIF0sQLpIkXSBMvkCZeIE28QJp4gTTxAmniBdIEAG4apAkgTeCxgDTxAmniBdLEC6SJF0gTL5AmXiBNvECaeIE08QJp4gXSBABuGqQJADwWkCZeIE28QJp4gTTxAmniBdLEC6SJF0gTL5AmXiBNvECaAMBNgzQBgMcC0sQLpIkXSBMvkCZeIE28QJp4gTTxAmniBdLEC6SJF/8nTSgUCoVCoVAoFAqFQqFQKBQKhUKhUJ7k8j9pAgAAAAAAAAAAAAAAAGP8Fxas+z/fl3lQAAAAAElFTkSuQmCC;" vertex="1" parent="1">
          <mxGeometry x="1480" y="222.44" width="1613" height="514" as="geometry" />
        </mxCell>
      </root>
    </mxGraphModel>
  </diagram>
</mxfile>
